solid OpenSCAD_Model
  facet normal -0.866025 -0.5 0
    outer loop
      vertex 1.38627 -1.37 4.18882
      vertex 0.875 -0.484455 7
      vertex 0.875 -0.484455 4.0227
    endloop
  endfacet
  facet normal -0.866025 -0.5 -0
    outer loop
      vertex 1.75 -2 7
      vertex 1.38627 -1.37 4.18882
      vertex 1.75 -2 3.68819
    endloop
  endfacet
  facet normal -0.866025 -0.5 4.81705e-009
    outer loop
      vertex 1.38627 -1.37 4.18882
      vertex 1.75 -2 7
      vertex 0.875 -0.484455 7
    endloop
  endfacet
  facet normal -0.866025 -0.5 0
    outer loop
      vertex 0.875 -0.484455 -7
      vertex 1.38627 -1.37 1.81118
      vertex 0.875 -0.484455 1.9773
    endloop
  endfacet
  facet normal -0.866025 -0.5 -1.53687e-009
    outer loop
      vertex 1.75 -2 -7
      vertex 1.38627 -1.37 1.81118
      vertex 0.875 -0.484455 -7
    endloop
  endfacet
  facet normal -0.866025 -0.5 7.35794e-009
    outer loop
      vertex 1.38627 -1.37 1.81118
      vertex 1.75 -2 -7
      vertex 1.73303 -1.97061 2.28845
    endloop
  endfacet
  facet normal -0.866026 -0.499998 0
    outer loop
      vertex 1.73303 -1.97061 2.28845
      vertex 1.75 -2 -7
      vertex 1.75 -2 2.31181
    endloop
  endfacet
  facet normal 0.866025 -0.500001 0
    outer loop
      vertex -1.75 -2 7
      vertex -0.874999 -0.484455 -7
      vertex -0.874999 -0.484455 7
    endloop
  endfacet
  facet normal 0.866025 -0.500001 0
    outer loop
      vertex -0.874999 -0.484455 -7
      vertex -1.75 -2 7
      vertex -1.75 -2 -7
    endloop
  endfacet
  facet normal 0 -1 0
    outer loop
      vertex -0.874999 -0.484455 7
      vertex 0.875 -0.484455 4.0227
      vertex 0.875 -0.484455 7
    endloop
  endfacet
  facet normal 0 -1 0
    outer loop
      vertex -0.874999 -0.484455 7
      vertex -0.0112705 -0.484455 3.73473
      vertex 0.875 -0.484455 4.0227
    endloop
  endfacet
  facet normal 0 -1 0
    outer loop
      vertex -0.874999 -0.484455 7
      vertex -0.0112705 -0.484455 2.26527
      vertex -0.0112705 -0.484455 3.73473
    endloop
  endfacet
  facet normal 0 -1 0
    outer loop
      vertex -0.874999 -0.484455 -7
      vertex -0.0112705 -0.484455 2.26527
      vertex -0.874999 -0.484455 7
    endloop
  endfacet
  facet normal 0 -1 0
    outer loop
      vertex -0.874999 -0.484455 -7
      vertex 0.875 -0.484455 1.9773
      vertex -0.0112705 -0.484455 2.26527
    endloop
  endfacet
  facet normal 0 -1 -0
    outer loop
      vertex 0.875 -0.484455 1.9773
      vertex -0.874999 -0.484455 -7
      vertex 0.875 -0.484455 -7
    endloop
  endfacet
  facet normal -0.866025 0.5 0
    outer loop
      vertex 1.38627 -2.63 4.18882
      vertex 1.75 -2 7
      vertex 1.75 -2 3.68819
    endloop
  endfacet
  facet normal -0.866025 0.5 0
    outer loop
      vertex 0.875 -3.51554 7
      vertex 1.38627 -2.63 4.18882
      vertex 0.875 -3.51554 4.0227
    endloop
  endfacet
  facet normal -0.866025 0.5 -2.085e-009
    outer loop
      vertex 1.38627 -2.63 4.18882
      vertex 0.875 -3.51554 7
      vertex 1.75 -2 7
    endloop
  endfacet
  facet normal -0.866025 0.500001 0
    outer loop
      vertex 1.75 -2 -7
      vertex 1.73029 -2.03414 2.28468
      vertex 1.75 -2 2.31181
    endloop
  endfacet
  facet normal -0.866025 0.5 -2.46818e-009
    outer loop
      vertex 1.75 -2 -7
      vertex 1.38627 -2.63 1.81118
      vertex 1.73029 -2.03414 2.28468
    endloop
  endfacet
  facet normal -0.866025 0.5 6.65212e-010
    outer loop
      vertex 0.875 -3.51554 -7
      vertex 1.38627 -2.63 1.81118
      vertex 1.75 -2 -7
    endloop
  endfacet
  facet normal -0.866025 0.5 0
    outer loop
      vertex 1.38627 -2.63 1.81118
      vertex 0.875 -3.51554 -7
      vertex 0.875 -3.51554 1.9773
    endloop
  endfacet
  facet normal 0 1 -0
    outer loop
      vertex 0.875 -3.51554 4.0227
      vertex -0.875 -3.51554 7
      vertex 0.875 -3.51554 7
    endloop
  endfacet
  facet normal 0 1 -0
    outer loop
      vertex -0.0112705 -3.51554 3.73473
      vertex -0.875 -3.51554 7
      vertex 0.875 -3.51554 4.0227
    endloop
  endfacet
  facet normal 0 1 -0
    outer loop
      vertex -0.0112705 -3.51554 2.26527
      vertex -0.875 -3.51554 7
      vertex -0.0112705 -3.51554 3.73473
    endloop
  endfacet
  facet normal 0 1 0
    outer loop
      vertex -0.875 -3.51554 -7
      vertex 0.875 -3.51554 1.9773
      vertex 0.875 -3.51554 -7
    endloop
  endfacet
  facet normal 0 1 0
    outer loop
      vertex 0.875 -3.51554 1.9773
      vertex -0.875 -3.51554 -7
      vertex -0.0112705 -3.51554 2.26527
    endloop
  endfacet
  facet normal 0 1 0
    outer loop
      vertex -0.0112705 -3.51554 2.26527
      vertex -0.875 -3.51554 -7
      vertex -0.875 -3.51554 7
    endloop
  endfacet
  facet normal 0.866025 0.5 0
    outer loop
      vertex -0.875 -3.51554 7
      vertex -1.75 -2 -7
      vertex -1.75 -2 7
    endloop
  endfacet
  facet normal 0.866025 0.5 0
    outer loop
      vertex -1.75 -2 -7
      vertex -0.875 -3.51554 7
      vertex -0.875 -3.51554 -7
    endloop
  endfacet
  facet normal -0.809016 0 -0.587786
    outer loop
      vertex 1.51583 7 4.0105
      vertex 1.38627 -1.37 4.18882
      vertex 1.38627 7 4.18882
    endloop
  endfacet
  facet normal -0.809017 9.90531e-009 -0.587786
    outer loop
      vertex 1.51583 7 4.0105
      vertex 1.75 -2 3.68819
      vertex 1.38627 -1.37 4.18882
    endloop
  endfacet
  facet normal -0.809017 4.54165e-009 -0.587786
    outer loop
      vertex 2.12044 -7 3.17832
      vertex 1.75 -2 3.68819
      vertex 1.51583 7 4.0105
    endloop
  endfacet
  facet normal -0.809017 1.64345e-008 -0.587786
    outer loop
      vertex 2.12044 -7 3.17832
      vertex 1.38627 -2.63 4.18882
      vertex 1.75 -2 3.68819
    endloop
  endfacet
  facet normal -0.809017 -0 -0.587786
    outer loop
      vertex 1.38627 -2.63 4.18882
      vertex 2.12044 -7 3.17832
      vertex 1.38627 -7 4.18882
    endloop
  endfacet
  facet normal 0.309017 0 -0.951056
    outer loop
      vertex 1.38627 -7 4.18882
      vertex 0.875 -3.51554 4.0227
      vertex 1.38627 -2.63 4.18882
    endloop
  endfacet
  facet normal 0.309017 2.87968e-008 -0.951056
    outer loop
      vertex -0.0112705 -7 3.73473
      vertex 0.875 -3.51554 4.0227
      vertex 1.38627 -7 4.18882
    endloop
  endfacet
  facet normal 0.309017 0 -0.951056
    outer loop
      vertex 0.875 -3.51554 4.0227
      vertex -0.0112705 -7 3.73473
      vertex -0.0112705 -3.51554 3.73473
    endloop
  endfacet
  facet normal 0.309017 0 -0.951056
    outer loop
      vertex 0.875 -0.484455 4.0227
      vertex 1.38627 7 4.18882
      vertex 1.38627 -1.37 4.18882
    endloop
  endfacet
  facet normal 0.309017 0 -0.951056
    outer loop
      vertex -0.0112705 7 3.73473
      vertex 0.875 -0.484455 4.0227
      vertex -0.0112705 -0.484455 3.73473
    endloop
  endfacet
  facet normal 0.309017 -1.34066e-008 -0.951056
    outer loop
      vertex 0.875 -0.484455 4.0227
      vertex -0.0112705 7 3.73473
      vertex 1.38627 7 4.18882
    endloop
  endfacet
  facet normal -0.809017 -2.00199e-008 -0.587785
    outer loop
      vertex 2.12044 -7 3.17832
      vertex 2.25 7 3
      vertex 2.25 -7 3
    endloop
  endfacet
  facet normal -0.809017 -2.00514e-008 -0.587785
    outer loop
      vertex 2.25 7 3
      vertex 2.12044 -7 3.17832
      vertex 1.51583 7 4.0105
    endloop
  endfacet
  facet normal 1 -0 0
    outer loop
      vertex -0.0112705 -7 3.73473
      vertex -0.0112705 -3.51554 2.26527
      vertex -0.0112705 -3.51554 3.73473
    endloop
  endfacet
  facet normal 1 0 0
    outer loop
      vertex -0.0112705 -3.51554 2.26527
      vertex -0.0112705 -7 3.73473
      vertex -0.0112705 -7 2.26527
    endloop
  endfacet
  facet normal 1 -0 0
    outer loop
      vertex -0.0112705 -0.484455 3.73473
      vertex -0.0112705 7 2.26527
      vertex -0.0112705 7 3.73473
    endloop
  endfacet
  facet normal 1 0 0
    outer loop
      vertex -0.0112705 7 2.26527
      vertex -0.0112705 -0.484455 3.73473
      vertex -0.0112705 -0.484455 2.26527
    endloop
  endfacet
  facet normal 0.309017 0 0.951056
    outer loop
      vertex 0.875 -3.51554 1.9773
      vertex 1.38627 -7 1.81118
      vertex 1.38627 -2.63 1.81118
    endloop
  endfacet
  facet normal 0.309017 -0 0.951056
    outer loop
      vertex -0.0112705 -7 2.26527
      vertex 0.875 -3.51554 1.9773
      vertex -0.0112705 -3.51554 2.26527
    endloop
  endfacet
  facet normal 0.309017 -3.74054e-009 0.951056
    outer loop
      vertex 0.875 -3.51554 1.9773
      vertex -0.0112705 -7 2.26527
      vertex 1.38627 -7 1.81118
    endloop
  endfacet
  facet normal 0.309017 0 0.951056
    outer loop
      vertex 1.38627 7 1.81118
      vertex 0.875 -0.484455 1.9773
      vertex 1.38627 -1.37 1.81118
    endloop
  endfacet
  facet normal 0.309017 1.74144e-009 0.951056
    outer loop
      vertex -0.0112705 7 2.26527
      vertex 0.875 -0.484455 1.9773
      vertex 1.38627 7 1.81118
    endloop
  endfacet
  facet normal 0.309017 0 0.951056
    outer loop
      vertex 0.875 -0.484455 1.9773
      vertex -0.0112705 7 2.26527
      vertex -0.0112705 -0.484455 2.26527
    endloop
  endfacet
  facet normal -0.809017 1.6911e-008 0.587785
    outer loop
      vertex 1.73303 -1.97061 2.28845
      vertex 2.25 7 3
      vertex 2.12044 7 2.82168
    endloop
  endfacet
  facet normal -0.809018 1.32111e-007 0.587785
    outer loop
      vertex 1.75 -2 2.31181
      vertex 2.25 7 3
      vertex 1.73303 -1.97061 2.28845
    endloop
  endfacet
  facet normal -0.809017 1.56977e-008 0.587786
    outer loop
      vertex 2.25 -7 3
      vertex 1.73029 -2.03414 2.28468
      vertex 1.51583 -7 1.9895
    endloop
  endfacet
  facet normal -0.809015 5.07526e-007 0.587788
    outer loop
      vertex 1.73029 -2.03414 2.28468
      vertex 2.25 -7 3
      vertex 1.75 -2 2.31181
    endloop
  endfacet
  facet normal -0.809017 2.00199e-008 0.587785
    outer loop
      vertex 1.75 -2 2.31181
      vertex 2.25 -7 3
      vertex 2.25 7 3
    endloop
  endfacet
  facet normal -0.809017 0 0.587786
    outer loop
      vertex 1.38627 -1.37 1.81118
      vertex 2.12044 7 2.82168
      vertex 1.38627 7 1.81118
    endloop
  endfacet
  facet normal -0.809017 -2.07562e-008 0.587786
    outer loop
      vertex 2.12044 7 2.82168
      vertex 1.38627 -1.37 1.81118
      vertex 1.73303 -1.97061 2.28845
    endloop
  endfacet
  facet normal -0.809017 0 0.587786
    outer loop
      vertex 1.51583 -7 1.9895
      vertex 1.38627 -2.63 1.81118
      vertex 1.38627 -7 1.81118
    endloop
  endfacet
  facet normal -0.809017 3.87625e-009 0.587786
    outer loop
      vertex 1.38627 -2.63 1.81118
      vertex 1.51583 -7 1.9895
      vertex 1.73029 -2.03414 2.28468
    endloop
  endfacet
  facet normal -1 0 0
    outer loop
      vertex -3 -7 -7
      vertex -3 7 7
      vertex -3 7 -7
    endloop
  endfacet
  facet normal -1 -0 0
    outer loop
      vertex -3 7 7
      vertex -3 -7 -7
      vertex -3 -7 7
    endloop
  endfacet
  facet normal 0 0 1
    outer loop
      vertex 3 7 7
      vertex 1.75 -2 7
      vertex 3 -7 7
    endloop
  endfacet
  facet normal 0 0 1
    outer loop
      vertex 3 7 7
      vertex 0.875 -0.484455 7
      vertex 1.75 -2 7
    endloop
  endfacet
  facet normal 0 0 1
    outer loop
      vertex 3 7 7
      vertex -0.874999 -0.484455 7
      vertex 0.875 -0.484455 7
    endloop
  endfacet
  facet normal -0 0 1
    outer loop
      vertex -3 7 7
      vertex -0.874999 -0.484455 7
      vertex 3 7 7
    endloop
  endfacet
  facet normal 0 0 1
    outer loop
      vertex -0.874999 -0.484455 7
      vertex -3 7 7
      vertex -1.75 -2 7
    endloop
  endfacet
  facet normal -0 0 1
    outer loop
      vertex 0.875 -3.51554 7
      vertex 3 -7 7
      vertex 1.75 -2 7
    endloop
  endfacet
  facet normal -0 0 1
    outer loop
      vertex -0.875 -3.51554 7
      vertex 3 -7 7
      vertex 0.875 -3.51554 7
    endloop
  endfacet
  facet normal 0 0 1
    outer loop
      vertex -0.875 -3.51554 7
      vertex -3 -7 7
      vertex 3 -7 7
    endloop
  endfacet
  facet normal 0 0 1
    outer loop
      vertex -1.75 -2 7
      vertex -3 -7 7
      vertex -0.875 -3.51554 7
    endloop
  endfacet
  facet normal 0 0 1
    outer loop
      vertex -3 -7 7
      vertex -1.75 -2 7
      vertex -3 7 7
    endloop
  endfacet
  facet normal 1 -0 0
    outer loop
      vertex 3 -7 7
      vertex 3 7 -7
      vertex 3 7 7
    endloop
  endfacet
  facet normal 1 0 0
    outer loop
      vertex 3 7 -7
      vertex 3 -7 7
      vertex 3 -7 -7
    endloop
  endfacet
  facet normal 0 1 0
    outer loop
      vertex 3 7 7
      vertex 1.38627 7 4.18882
      vertex -3 7 7
    endloop
  endfacet
  facet normal 0 1 0
    outer loop
      vertex 3 7 7
      vertex 1.51583 7 4.0105
      vertex 1.38627 7 4.18882
    endloop
  endfacet
  facet normal 0 1 0
    outer loop
      vertex 3 7 7
      vertex 2.25 7 3
      vertex 1.51583 7 4.0105
    endloop
  endfacet
  facet normal 0 1 0
    outer loop
      vertex 2.12044 7 2.82168
      vertex 3 7 -7
      vertex 1.38627 7 1.81118
    endloop
  endfacet
  facet normal 0 1 0
    outer loop
      vertex 2.25 7 3
      vertex 3 7 -7
      vertex 2.12044 7 2.82168
    endloop
  endfacet
  facet normal 0 1 -0
    outer loop
      vertex 3 7 -7
      vertex 2.25 7 3
      vertex 3 7 7
    endloop
  endfacet
  facet normal 0 1 -0
    outer loop
      vertex -0.0112705 7 3.73473
      vertex -3 7 7
      vertex 1.38627 7 4.18882
    endloop
  endfacet
  facet normal 0 1 -0
    outer loop
      vertex -0.0112705 7 2.26527
      vertex -3 7 7
      vertex -0.0112705 7 3.73473
    endloop
  endfacet
  facet normal 0 1 0
    outer loop
      vertex -3 7 -7
      vertex 1.38627 7 1.81118
      vertex 3 7 -7
    endloop
  endfacet
  facet normal 0 1 0
    outer loop
      vertex 1.38627 7 1.81118
      vertex -3 7 -7
      vertex -0.0112705 7 2.26527
    endloop
  endfacet
  facet normal 0 1 0
    outer loop
      vertex -0.0112705 7 2.26527
      vertex -3 7 -7
      vertex -3 7 7
    endloop
  endfacet
  facet normal 0 0 -1
    outer loop
      vertex 3 -7 -7
      vertex 1.75 -2 -7
      vertex 3 7 -7
    endloop
  endfacet
  facet normal 0 0 -1
    outer loop
      vertex 3 -7 -7
      vertex 0.875 -3.51554 -7
      vertex 1.75 -2 -7
    endloop
  endfacet
  facet normal 0 0 -1
    outer loop
      vertex 3 -7 -7
      vertex -0.875 -3.51554 -7
      vertex 0.875 -3.51554 -7
    endloop
  endfacet
  facet normal -0 0 -1
    outer loop
      vertex -0.875 -3.51554 -7
      vertex -3 -7 -7
      vertex -1.75 -2 -7
    endloop
  endfacet
  facet normal 0 0 -1
    outer loop
      vertex -3 -7 -7
      vertex -0.875 -3.51554 -7
      vertex 3 -7 -7
    endloop
  endfacet
  facet normal 0 0 -1
    outer loop
      vertex 0.875 -0.484455 -7
      vertex 3 7 -7
      vertex 1.75 -2 -7
    endloop
  endfacet
  facet normal 0 0 -1
    outer loop
      vertex -0.874999 -0.484455 -7
      vertex 3 7 -7
      vertex 0.875 -0.484455 -7
    endloop
  endfacet
  facet normal 0 0 -1
    outer loop
      vertex -3 7 -7
      vertex -0.874999 -0.484455 -7
      vertex -1.75 -2 -7
    endloop
  endfacet
  facet normal 0 0 -1
    outer loop
      vertex -0.874999 -0.484455 -7
      vertex -3 7 -7
      vertex 3 7 -7
    endloop
  endfacet
  facet normal 0 0 -1
    outer loop
      vertex -3 7 -7
      vertex -1.75 -2 -7
      vertex -3 -7 -7
    endloop
  endfacet
  facet normal 0 -1 0
    outer loop
      vertex -3 -7 7
      vertex 1.38627 -7 4.18882
      vertex 3 -7 7
    endloop
  endfacet
  facet normal 0 -1 0
    outer loop
      vertex -3 -7 7
      vertex -0.0112705 -7 3.73473
      vertex 1.38627 -7 4.18882
    endloop
  endfacet
  facet normal 0 -1 0
    outer loop
      vertex -3 -7 7
      vertex -0.0112705 -7 2.26527
      vertex -0.0112705 -7 3.73473
    endloop
  endfacet
  facet normal 0 -1 -0
    outer loop
      vertex -0.0112705 -7 2.26527
      vertex -3 -7 -7
      vertex 1.38627 -7 1.81118
    endloop
  endfacet
  facet normal 0 -1 0
    outer loop
      vertex -3 -7 -7
      vertex -0.0112705 -7 2.26527
      vertex -3 -7 7
    endloop
  endfacet
  facet normal 0 -1 0
    outer loop
      vertex 2.12044 -7 3.17832
      vertex 3 -7 7
      vertex 1.38627 -7 4.18882
    endloop
  endfacet
  facet normal 0 -1 0
    outer loop
      vertex 2.25 -7 3
      vertex 3 -7 7
      vertex 2.12044 -7 3.17832
    endloop
  endfacet
  facet normal 0 -1 0
    outer loop
      vertex 3 -7 -7
      vertex 1.38627 -7 1.81118
      vertex -3 -7 -7
    endloop
  endfacet
  facet normal 0 -1 0
    outer loop
      vertex 1.38627 -7 1.81118
      vertex 3 -7 -7
      vertex 1.51583 -7 1.9895
    endloop
  endfacet
  facet normal 0 -1 0
    outer loop
      vertex 2.25 -7 3
      vertex 3 -7 -7
      vertex 3 -7 7
    endloop
  endfacet
  facet normal 0 -1 0
    outer loop
      vertex 1.51583 -7 1.9895
      vertex 3 -7 -7
      vertex 2.25 -7 3
    endloop
  endfacet
  facet normal -0.866025 -0.5 0
    outer loop
      vertex 11.75 -2 -7
      vertex 10.875 -0.484455 7
      vertex 10.875 -0.484455 -7
    endloop
  endfacet
  facet normal -0.866025 -0.5 0
    outer loop
      vertex 10.875 -0.484455 7
      vertex 11.75 -2 -7
      vertex 11.75 -2 7
    endloop
  endfacet
  facet normal 0.866025 -0.500001 0
    outer loop
      vertex 8.25 -2 7
      vertex 9.125 -0.484455 4.10393
      vertex 9.125 -0.484455 7
    endloop
  endfacet
  facet normal 0.866025 -0.500001 0
    outer loop
      vertex 9.125 -0.484455 4.10393
      vertex 8.25 -2 7
      vertex 8.25 -2 3.81962
    endloop
  endfacet
  facet normal 0.866025 -0.500001 0
    outer loop
      vertex 8.25 -2 -7
      vertex 9.125 -0.484455 1.89607
      vertex 8.25 -2 2.18038
    endloop
  endfacet
  facet normal 0.866025 -0.500001 0
    outer loop
      vertex 9.125 -0.484455 1.89607
      vertex 8.25 -2 -7
      vertex 9.125 -0.484455 -7
    endloop
  endfacet
  facet normal 0 -1 0
    outer loop
      vertex 9.125 -0.484455 1.89607
      vertex 9.125 -0.484455 -7
      vertex 9.38627 -0.484455 1.81118
    endloop
  endfacet
  facet normal 0 -1 0
    outer loop
      vertex 9.125 -0.484455 7
      vertex 9.38627 -0.484455 4.18882
      vertex 10.875 -0.484455 7
    endloop
  endfacet
  facet normal -0 -1 0
    outer loop
      vertex 9.38627 -0.484455 4.18882
      vertex 9.125 -0.484455 7
      vertex 9.125 -0.484455 4.10393
    endloop
  endfacet
  facet normal 0 -1 0
    outer loop
      vertex 9.83906 -0.484455 3.56561
      vertex 10.875 -0.484455 7
      vertex 9.38627 -0.484455 4.18882
    endloop
  endfacet
  facet normal 0 -1 0
    outer loop
      vertex 10.25 -0.484455 3
      vertex 10.875 -0.484455 7
      vertex 9.83906 -0.484455 3.56561
    endloop
  endfacet
  facet normal 0 -1 0
    outer loop
      vertex 10.875 -0.484455 -7
      vertex 9.79721 -0.484455 2.37679
      vertex 9.38627 -0.484455 1.81118
    endloop
  endfacet
  facet normal 0 -1 0
    outer loop
      vertex 10.875 -0.484455 -7
      vertex 9.38627 -0.484455 1.81118
      vertex 9.125 -0.484455 -7
    endloop
  endfacet
  facet normal 0 -1 0
    outer loop
      vertex 9.79721 -0.484455 2.37679
      vertex 10.875 -0.484455 -7
      vertex 10.25 -0.484455 3
    endloop
  endfacet
  facet normal 0 -1 0
    outer loop
      vertex 10.25 -0.484455 3
      vertex 10.875 -0.484455 -7
      vertex 10.875 -0.484455 7
    endloop
  endfacet
  facet normal -0.866025 0.5 0
    outer loop
      vertex 10.875 -3.51554 -7
      vertex 11.75 -2 7
      vertex 11.75 -2 -7
    endloop
  endfacet
  facet normal -0.866025 0.5 0
    outer loop
      vertex 11.75 -2 7
      vertex 10.875 -3.51554 -7
      vertex 10.875 -3.51554 7
    endloop
  endfacet
  facet normal 0 1 0
    outer loop
      vertex 10.875 -3.51554 7
      vertex 9.38627 -3.51554 4.18882
      vertex 9.125 -3.51554 7
    endloop
  endfacet
  facet normal 0 1 0
    outer loop
      vertex 10.875 -3.51554 7
      vertex 9.96996 -3.51554 3.38544
      vertex 9.38627 -3.51554 4.18882
    endloop
  endfacet
  facet normal 0 1 0
    outer loop
      vertex 10.875 -3.51554 7
      vertex 10.25 -3.51554 3
      vertex 9.96996 -3.51554 3.38544
    endloop
  endfacet
  facet normal 0 1 0
    outer loop
      vertex 9.66631 -3.51554 2.19662
      vertex 10.875 -3.51554 -7
      vertex 9.38627 -3.51554 1.81118
    endloop
  endfacet
  facet normal 0 1 0
    outer loop
      vertex 10.25 -3.51554 3
      vertex 10.875 -3.51554 -7
      vertex 9.66631 -3.51554 2.19662
    endloop
  endfacet
  facet normal 0 1 -0
    outer loop
      vertex 10.875 -3.51554 -7
      vertex 10.25 -3.51554 3
      vertex 10.875 -3.51554 7
    endloop
  endfacet
  facet normal 0 1 0
    outer loop
      vertex 9.125 -3.51554 7
      vertex 9.38627 -3.51554 4.18882
      vertex 9.125 -3.51554 4.10393
    endloop
  endfacet
  facet normal 0 1 0
    outer loop
      vertex 9.125 -3.51554 -7
      vertex 9.38627 -3.51554 1.81118
      vertex 10.875 -3.51554 -7
    endloop
  endfacet
  facet normal 0 1 0
    outer loop
      vertex 9.38627 -3.51554 1.81118
      vertex 9.125 -3.51554 -7
      vertex 9.125 -3.51554 1.89607
    endloop
  endfacet
  facet normal 0.866025 0.5 -0
    outer loop
      vertex 9.125 -3.51554 4.10393
      vertex 8.25 -2 7
      vertex 9.125 -3.51554 7
    endloop
  endfacet
  facet normal 0.866025 0.5 0
    outer loop
      vertex 8.25 -2 7
      vertex 9.125 -3.51554 4.10393
      vertex 8.25 -2 3.81962
    endloop
  endfacet
  facet normal 0.866025 0.5 0
    outer loop
      vertex 9.125 -3.51554 1.89607
      vertex 8.25 -2 -7
      vertex 8.25 -2 2.18038
    endloop
  endfacet
  facet normal 0.866025 0.5 0
    outer loop
      vertex 8.25 -2 -7
      vertex 9.125 -3.51554 1.89607
      vertex 9.125 -3.51554 -7
    endloop
  endfacet
  facet normal -0.809017 -2.57097e-008 -0.587785
    outer loop
      vertex 9.38627 -7 4.18882
      vertex 9.96996 -3.51554 3.38544
      vertex 10.1204 -7 3.17832
    endloop
  endfacet
  facet normal -0.809017 0 -0.587785
    outer loop
      vertex 9.96996 -3.51554 3.38544
      vertex 9.38627 -7 4.18882
      vertex 9.38627 -3.51554 4.18882
    endloop
  endfacet
  facet normal -0.809017 3.01718e-008 -0.587786
    outer loop
      vertex 9.38627 -0.484455 4.18882
      vertex 9.51583 7 4.0105
      vertex 9.83906 -0.484455 3.56561
    endloop
  endfacet
  facet normal -0.809016 0 -0.587787
    outer loop
      vertex 9.51583 7 4.0105
      vertex 9.38627 -0.484455 4.18882
      vertex 9.38627 7 4.18882
    endloop
  endfacet
  facet normal 0.309017 0 -0.951056
    outer loop
      vertex 9.38627 -7 4.18882
      vertex 9.125 -3.51554 4.10393
      vertex 9.38627 -3.51554 4.18882
    endloop
  endfacet
  facet normal 0.309017 5.80784e-009 -0.951056
    outer loop
      vertex 7.98873 -7 3.73473
      vertex 9.125 -3.51554 4.10393
      vertex 9.38627 -7 4.18882
    endloop
  endfacet
  facet normal 0.309017 1.02557e-008 -0.951056
    outer loop
      vertex 9.125 -3.51554 4.10393
      vertex 7.98873 -7 3.73473
      vertex 8.25 -2 3.81962
    endloop
  endfacet
  facet normal 0.309017 0 -0.951057
    outer loop
      vertex 9.125 -0.484455 4.10393
      vertex 9.38627 7 4.18882
      vertex 9.38627 -0.484455 4.18882
    endloop
  endfacet
  facet normal 0.309017 -8.99626e-010 -0.951056
    outer loop
      vertex 7.98873 7 3.73473
      vertex 9.125 -0.484455 4.10393
      vertex 8.25 -2 3.81962
    endloop
  endfacet
  facet normal 0.309017 -2.39208e-008 -0.951056
    outer loop
      vertex 9.125 -0.484455 4.10393
      vertex 7.98873 7 3.73473
      vertex 9.38627 7 4.18882
    endloop
  endfacet
  facet normal 0.309017 0 -0.951056
    outer loop
      vertex 7.98873 7 3.73473
      vertex 8.25 -2 3.81962
      vertex 7.98873 -7 3.73473
    endloop
  endfacet
  facet normal -0.809017 0 -0.587785
    outer loop
      vertex 10.1204 -7 3.17832
      vertex 10.25 -3.51554 3
      vertex 10.25 -7 3
    endloop
  endfacet
  facet normal -0.809017 -3.5961e-009 -0.587786
    outer loop
      vertex 10.25 -3.51554 3
      vertex 10.1204 -7 3.17832
      vertex 9.96996 -3.51554 3.38544
    endloop
  endfacet
  facet normal -0.809017 -1.8724e-008 -0.587785
    outer loop
      vertex 9.83906 -0.484455 3.56561
      vertex 10.25 7 3
      vertex 10.25 -0.484455 3
    endloop
  endfacet
  facet normal -0.809017 -3.88915e-008 -0.587785
    outer loop
      vertex 10.25 7 3
      vertex 9.83906 -0.484455 3.56561
      vertex 9.51583 7 4.0105
    endloop
  endfacet
  facet normal 1 -0 0
    outer loop
      vertex 7.98873 -7 3.73473
      vertex 7.98873 7 2.26527
      vertex 7.98873 7 3.73473
    endloop
  endfacet
  facet normal 1 0 0
    outer loop
      vertex 7.98873 7 2.26527
      vertex 7.98873 -7 3.73473
      vertex 7.98873 -7 2.26527
    endloop
  endfacet
  facet normal 0.309017 0 0.951056
    outer loop
      vertex 9.38627 7 1.81118
      vertex 9.125 -0.484455 1.89607
      vertex 9.38627 -0.484455 1.81118
    endloop
  endfacet
  facet normal 0.309017 6.37522e-009 0.951056
    outer loop
      vertex 7.98873 7 2.26527
      vertex 9.125 -0.484455 1.89607
      vertex 9.38627 7 1.81118
    endloop
  endfacet
  facet normal 0.309017 -8.06238e-009 0.951056
    outer loop
      vertex 9.125 -0.484455 1.89607
      vertex 7.98873 7 2.26527
      vertex 8.25 -2 2.18038
    endloop
  endfacet
  facet normal 0.309017 0 0.951056
    outer loop
      vertex 9.125 -3.51554 1.89607
      vertex 9.38627 -7 1.81118
      vertex 9.38627 -3.51554 1.81118
    endloop
  endfacet
  facet normal 0.309017 1.02557e-008 0.951056
    outer loop
      vertex 7.98873 -7 2.26527
      vertex 9.125 -3.51554 1.89607
      vertex 8.25 -2 2.18038
    endloop
  endfacet
  facet normal 0.309017 5.80784e-009 0.951056
    outer loop
      vertex 9.125 -3.51554 1.89607
      vertex 7.98873 -7 2.26527
      vertex 9.38627 -7 1.81118
    endloop
  endfacet
  facet normal 0.309017 -0 0.951056
    outer loop
      vertex 7.98873 -7 2.26527
      vertex 8.25 -2 2.18038
      vertex 7.98873 7 2.26527
    endloop
  endfacet
  facet normal -0.809017 5.044e-008 0.587785
    outer loop
      vertex 10.25 -7 3
      vertex 9.66631 -3.51554 2.19662
      vertex 9.51583 -7 1.9895
    endloop
  endfacet
  facet normal -0.809017 0 0.587785
    outer loop
      vertex 9.66631 -3.51554 2.19662
      vertex 10.25 -7 3
      vertex 10.25 -3.51554 3
    endloop
  endfacet
  facet normal -0.809017 1.52849e-008 0.587785
    outer loop
      vertex 10.25 -0.484455 3
      vertex 10.1204 7 2.82168
      vertex 9.79721 -0.484455 2.37679
    endloop
  endfacet
  facet normal -0.809017 1.8724e-008 0.587785
    outer loop
      vertex 10.1204 7 2.82168
      vertex 10.25 -0.484455 3
      vertex 10.25 7 3
    endloop
  endfacet
  facet normal -0.809016 0 0.587786
    outer loop
      vertex 9.51583 -7 1.9895
      vertex 9.38627 -3.51554 1.81118
      vertex 9.38627 -7 1.81118
    endloop
  endfacet
  facet normal -0.809017 -1.80154e-008 0.587786
    outer loop
      vertex 9.38627 -3.51554 1.81118
      vertex 9.51583 -7 1.9895
      vertex 9.66631 -3.51554 2.19662
    endloop
  endfacet
  facet normal -0.809017 0 0.587785
    outer loop
      vertex 9.79721 -0.484455 2.37679
      vertex 9.38627 7 1.81118
      vertex 9.38627 -0.484455 1.81118
    endloop
  endfacet
  facet normal -0.809017 2.46417e-008 0.587785
    outer loop
      vertex 9.38627 7 1.81118
      vertex 9.79721 -0.484455 2.37679
      vertex 10.1204 7 2.82168
    endloop
  endfacet
  facet normal -1 0 0
    outer loop
      vertex 7 -7 -7
      vertex 7 7 7
      vertex 7 7 -7
    endloop
  endfacet
  facet normal -1 -0 0
    outer loop
      vertex 7 7 7
      vertex 7 -7 -7
      vertex 7 -7 7
    endloop
  endfacet
  facet normal 0 0 1
    outer loop
      vertex 13 7 7
      vertex 11.75 -2 7
      vertex 13 -7 7
    endloop
  endfacet
  facet normal 0 0 1
    outer loop
      vertex 13 7 7
      vertex 10.875 -0.484455 7
      vertex 11.75 -2 7
    endloop
  endfacet
  facet normal 0 0 1
    outer loop
      vertex 13 7 7
      vertex 9.125 -0.484455 7
      vertex 10.875 -0.484455 7
    endloop
  endfacet
  facet normal -0 0 1
    outer loop
      vertex 7 7 7
      vertex 9.125 -0.484455 7
      vertex 13 7 7
    endloop
  endfacet
  facet normal 0 0 1
    outer loop
      vertex 9.125 -0.484455 7
      vertex 7 7 7
      vertex 8.25 -2 7
    endloop
  endfacet
  facet normal -0 0 1
    outer loop
      vertex 10.875 -3.51554 7
      vertex 13 -7 7
      vertex 11.75 -2 7
    endloop
  endfacet
  facet normal -0 0 1
    outer loop
      vertex 9.125 -3.51554 7
      vertex 13 -7 7
      vertex 10.875 -3.51554 7
    endloop
  endfacet
  facet normal 0 0 1
    outer loop
      vertex 9.125 -3.51554 7
      vertex 7 -7 7
      vertex 13 -7 7
    endloop
  endfacet
  facet normal 0 0 1
    outer loop
      vertex 8.25 -2 7
      vertex 7 -7 7
      vertex 9.125 -3.51554 7
    endloop
  endfacet
  facet normal 0 0 1
    outer loop
      vertex 7 -7 7
      vertex 8.25 -2 7
      vertex 7 7 7
    endloop
  endfacet
  facet normal 1 -0 0
    outer loop
      vertex 13 -7 7
      vertex 13 7 -7
      vertex 13 7 7
    endloop
  endfacet
  facet normal 1 0 0
    outer loop
      vertex 13 7 -7
      vertex 13 -7 7
      vertex 13 -7 -7
    endloop
  endfacet
  facet normal 0 0 -1
    outer loop
      vertex 13 -7 -7
      vertex 11.75 -2 -7
      vertex 13 7 -7
    endloop
  endfacet
  facet normal 0 0 -1
    outer loop
      vertex 13 -7 -7
      vertex 10.875 -3.51554 -7
      vertex 11.75 -2 -7
    endloop
  endfacet
  facet normal 0 0 -1
    outer loop
      vertex 13 -7 -7
      vertex 9.125 -3.51554 -7
      vertex 10.875 -3.51554 -7
    endloop
  endfacet
  facet normal -0 0 -1
    outer loop
      vertex 9.125 -3.51554 -7
      vertex 7 -7 -7
      vertex 8.25 -2 -7
    endloop
  endfacet
  facet normal 0 0 -1
    outer loop
      vertex 7 -7 -7
      vertex 9.125 -3.51554 -7
      vertex 13 -7 -7
    endloop
  endfacet
  facet normal 0 0 -1
    outer loop
      vertex 10.875 -0.484455 -7
      vertex 13 7 -7
      vertex 11.75 -2 -7
    endloop
  endfacet
  facet normal 0 0 -1
    outer loop
      vertex 9.125 -0.484455 -7
      vertex 13 7 -7
      vertex 10.875 -0.484455 -7
    endloop
  endfacet
  facet normal 0 0 -1
    outer loop
      vertex 7 7 -7
      vertex 9.125 -0.484455 -7
      vertex 8.25 -2 -7
    endloop
  endfacet
  facet normal 0 0 -1
    outer loop
      vertex 9.125 -0.484455 -7
      vertex 7 7 -7
      vertex 13 7 -7
    endloop
  endfacet
  facet normal 0 0 -1
    outer loop
      vertex 7 7 -7
      vertex 8.25 -2 -7
      vertex 7 -7 -7
    endloop
  endfacet
  facet normal 0 -1 0
    outer loop
      vertex 7 -7 7
      vertex 9.38627 -7 4.18882
      vertex 13 -7 7
    endloop
  endfacet
  facet normal 0 -1 0
    outer loop
      vertex 7 -7 7
      vertex 7.98873 -7 3.73473
      vertex 9.38627 -7 4.18882
    endloop
  endfacet
  facet normal 0 -1 0
    outer loop
      vertex 7 -7 7
      vertex 7.98873 -7 2.26527
      vertex 7.98873 -7 3.73473
    endloop
  endfacet
  facet normal 0 -1 -0
    outer loop
      vertex 7.98873 -7 2.26527
      vertex 7 -7 -7
      vertex 9.38627 -7 1.81118
    endloop
  endfacet
  facet normal 0 -1 0
    outer loop
      vertex 7 -7 -7
      vertex 7.98873 -7 2.26527
      vertex 7 -7 7
    endloop
  endfacet
  facet normal 0 -1 0
    outer loop
      vertex 10.1204 -7 3.17832
      vertex 13 -7 7
      vertex 9.38627 -7 4.18882
    endloop
  endfacet
  facet normal 0 -1 0
    outer loop
      vertex 10.25 -7 3
      vertex 13 -7 7
      vertex 10.1204 -7 3.17832
    endloop
  endfacet
  facet normal 0 -1 0
    outer loop
      vertex 13 -7 -7
      vertex 9.38627 -7 1.81118
      vertex 7 -7 -7
    endloop
  endfacet
  facet normal 0 -1 0
    outer loop
      vertex 9.38627 -7 1.81118
      vertex 13 -7 -7
      vertex 9.51583 -7 1.9895
    endloop
  endfacet
  facet normal 0 -1 0
    outer loop
      vertex 9.51583 -7 1.9895
      vertex 13 -7 -7
      vertex 10.25 -7 3
    endloop
  endfacet
  facet normal 0 -1 0
    outer loop
      vertex 10.25 -7 3
      vertex 13 -7 -7
      vertex 13 -7 7
    endloop
  endfacet
  facet normal 0 1 0
    outer loop
      vertex 13 7 7
      vertex 9.38627 7 4.18882
      vertex 7 7 7
    endloop
  endfacet
  facet normal 0 1 0
    outer loop
      vertex 13 7 7
      vertex 9.51583 7 4.0105
      vertex 9.38627 7 4.18882
    endloop
  endfacet
  facet normal 0 1 0
    outer loop
      vertex 13 7 7
      vertex 10.25 7 3
      vertex 9.51583 7 4.0105
    endloop
  endfacet
  facet normal 0 1 0
    outer loop
      vertex 13 7 -7
      vertex 10.1204 7 2.82168
      vertex 10.25 7 3
    endloop
  endfacet
  facet normal 0 1 0
    outer loop
      vertex 10.1204 7 2.82168
      vertex 13 7 -7
      vertex 9.38627 7 1.81118
    endloop
  endfacet
  facet normal 0 1 -0
    outer loop
      vertex 13 7 -7
      vertex 10.25 7 3
      vertex 13 7 7
    endloop
  endfacet
  facet normal 0 1 -0
    outer loop
      vertex 7.98873 7 3.73473
      vertex 7 7 7
      vertex 9.38627 7 4.18882
    endloop
  endfacet
  facet normal 0 1 -0
    outer loop
      vertex 7.98873 7 2.26527
      vertex 7 7 7
      vertex 7.98873 7 3.73473
    endloop
  endfacet
  facet normal 0 1 0
    outer loop
      vertex 7 7 -7
      vertex 9.38627 7 1.81118
      vertex 13 7 -7
    endloop
  endfacet
  facet normal 0 1 0
    outer loop
      vertex 7.98873 7 2.26527
      vertex 7 7 -7
      vertex 7 7 7
    endloop
  endfacet
  facet normal 0 1 0
    outer loop
      vertex 9.38627 7 1.81118
      vertex 7 7 -7
      vertex 7.98873 7 2.26527
    endloop
  endfacet
endsolid OpenSCAD_Model
