solid OpenSCAD_Model
  facet normal 1 0 0
    outer loop
      vertex -15 5 7.5
      vertex -15 1.94986 3.77837
      vertex -15 5 -2.5
    endloop
  endfacet
  facet normal 1 0 0
    outer loop
      vertex -15 5 7.5
      vertex -15 0.867767 5.13527
      vertex -15 1.94986 3.77837
    endloop
  endfacet
  facet normal 1 0 0
    outer loop
      vertex -15 5 7.5
      vertex -15 -0.867767 5.13527
      vertex -15 0.867767 5.13527
    endloop
  endfacet
  facet normal 1 0 0
    outer loop
      vertex -15 -0.867767 5.13527
      vertex -15 -5 7.5
      vertex -15 -1.94986 3.77837
    endloop
  endfacet
  facet normal 1 -0 0
    outer loop
      vertex -15 -5 7.5
      vertex -15 -0.867767 5.13527
      vertex -15 5 7.5
    endloop
  endfacet
  facet normal 1 -0 0
    outer loop
      vertex -15 1.56366 2.08635
      vertex -15 5 -2.5
      vertex -15 1.94986 3.77837
    endloop
  endfacet
  facet normal 1 -0 0
    outer loop
      vertex -15 0 1.33333
      vertex -15 5 -2.5
      vertex -15 1.56366 2.08635
    endloop
  endfacet
  facet normal 1 0 0
    outer loop
      vertex -15 -5 -2.5
      vertex -15 0 1.33333
      vertex -15 -1.56366 2.08635
    endloop
  endfacet
  facet normal 1 0 0
    outer loop
      vertex -15 -5 -2.5
      vertex -15 -1.94986 3.77837
      vertex -15 -5 7.5
    endloop
  endfacet
  facet normal 1 0 0
    outer loop
      vertex -15 0 1.33333
      vertex -15 -5 -2.5
      vertex -15 5 -2.5
    endloop
  endfacet
  facet normal 1 0 0
    outer loop
      vertex -15 -1.94986 3.77837
      vertex -15 -5 -2.5
      vertex -15 -1.56366 2.08635
    endloop
  endfacet
  facet normal -1 0 0
    outer loop
      vertex 15 5 -2.5
      vertex 15 1.94986 3.77837
      vertex 15 5 7.5
    endloop
  endfacet
  facet normal -1 0 0
    outer loop
      vertex 15 5 -2.5
      vertex 15 1.56366 2.08635
      vertex 15 1.94986 3.77837
    endloop
  endfacet
  facet normal -1 0 0
    outer loop
      vertex 15 5 -2.5
      vertex 15 0 1.33333
      vertex 15 1.56366 2.08635
    endloop
  endfacet
  facet normal -1 0 0
    outer loop
      vertex 15 -5 -2.5
      vertex 15 0 1.33333
      vertex 15 5 -2.5
    endloop
  endfacet
  facet normal -1 -0 0
    outer loop
      vertex 15 -1.56366 2.08635
      vertex 15 -5 -2.5
      vertex 15 -1.94986 3.77837
    endloop
  endfacet
  facet normal -1 -0 0
    outer loop
      vertex 15 0 1.33333
      vertex 15 -5 -2.5
      vertex 15 -1.56366 2.08635
    endloop
  endfacet
  facet normal -1 0 0
    outer loop
      vertex 15 0.867767 5.13527
      vertex 15 5 7.5
      vertex 15 1.94986 3.77837
    endloop
  endfacet
  facet normal -1 0 0
    outer loop
      vertex 15 -0.867767 5.13527
      vertex 15 5 7.5
      vertex 15 0.867767 5.13527
    endloop
  endfacet
  facet normal -1 0 0
    outer loop
      vertex 15 -0.867767 5.13527
      vertex 15 -5 7.5
      vertex 15 5 7.5
    endloop
  endfacet
  facet normal -1 0 0
    outer loop
      vertex 15 -1.94986 3.77837
      vertex 15 -5 7.5
      vertex 15 -0.867767 5.13527
    endloop
  endfacet
  facet normal -1 0 0
    outer loop
      vertex 15 -5 7.5
      vertex 15 -1.94986 3.77837
      vertex 15 -5 -2.5
    endloop
  endfacet
  facet normal 0 0 1
    outer loop
      vertex 15 5 -2.5
      vertex 6.75 0 -2.5
      vertex 15 -5 -2.5
    endloop
  endfacet
  facet normal 0 0 1
    outer loop
      vertex 15 5 -2.5
      vertex 5.875 1.51554 -2.5
      vertex 6.75 0 -2.5
    endloop
  endfacet
  facet normal 0 0 1
    outer loop
      vertex 15 5 -2.5
      vertex 4.125 1.51554 -2.5
      vertex 5.875 1.51554 -2.5
    endloop
  endfacet
  facet normal 0 0 1
    outer loop
      vertex 4.125 1.51554 -2.5
      vertex -3.25 0 -2.5
      vertex 3.25 0 -2.5
    endloop
  endfacet
  facet normal 0 0 1
    outer loop
      vertex -4.125 1.51554 -2.5
      vertex 4.125 1.51554 -2.5
      vertex 15 5 -2.5
    endloop
  endfacet
  facet normal 0 0 1
    outer loop
      vertex 4.125 1.51554 -2.5
      vertex -4.125 1.51554 -2.5
      vertex -3.25 0 -2.5
    endloop
  endfacet
  facet normal -0 0 1
    outer loop
      vertex -15 5 -2.5
      vertex -4.125 1.51554 -2.5
      vertex 15 5 -2.5
    endloop
  endfacet
  facet normal 0 0 1
    outer loop
      vertex -5.875 1.51554 -2.5
      vertex -15 5 -2.5
      vertex -6.75 0 -2.5
    endloop
  endfacet
  facet normal 0 0 1
    outer loop
      vertex -4.125 1.51554 -2.5
      vertex -15 5 -2.5
      vertex -5.875 1.51554 -2.5
    endloop
  endfacet
  facet normal -0 0 1
    outer loop
      vertex 5.875 -1.51554 -2.5
      vertex 15 -5 -2.5
      vertex 6.75 0 -2.5
    endloop
  endfacet
  facet normal -0 0 1
    outer loop
      vertex 4.125 -1.51554 -2.5
      vertex 15 -5 -2.5
      vertex 5.875 -1.51554 -2.5
    endloop
  endfacet
  facet normal -0 0 1
    outer loop
      vertex -3.25 0 -2.5
      vertex 4.125 -1.51554 -2.5
      vertex 3.25 0 -2.5
    endloop
  endfacet
  facet normal 0 0 1
    outer loop
      vertex -4.125 -1.51554 -2.5
      vertex 4.125 -1.51554 -2.5
      vertex -3.25 0 -2.5
    endloop
  endfacet
  facet normal 0 0 1
    outer loop
      vertex 4.125 -1.51554 -2.5
      vertex -4.125 -1.51554 -2.5
      vertex 15 -5 -2.5
    endloop
  endfacet
  facet normal 0 0 1
    outer loop
      vertex -15 -5 -2.5
      vertex -4.125 -1.51554 -2.5
      vertex -5.875 -1.51554 -2.5
    endloop
  endfacet
  facet normal 0 0 1
    outer loop
      vertex -15 -5 -2.5
      vertex -6.75 0 -2.5
      vertex -15 5 -2.5
    endloop
  endfacet
  facet normal 0 0 1
    outer loop
      vertex -4.125 -1.51554 -2.5
      vertex -15 -5 -2.5
      vertex 15 -5 -2.5
    endloop
  endfacet
  facet normal 0 0 1
    outer loop
      vertex -6.75 0 -2.5
      vertex -15 -5 -2.5
      vertex -5.875 -1.51554 -2.5
    endloop
  endfacet
  facet normal 0 -1 0
    outer loop
      vertex -20 -5 7.5
      vertex -15 -5 -2.5
      vertex -15 -5 7.5
    endloop
  endfacet
  facet normal 0 -1 -0
    outer loop
      vertex -15 -5 -2.5
      vertex -20 -5 -7.5
      vertex 15 -5 -2.5
    endloop
  endfacet
  facet normal 0 -1 0
    outer loop
      vertex -20 -5 -7.5
      vertex -15 -5 -2.5
      vertex -20 -5 7.5
    endloop
  endfacet
  facet normal 0 -1 0
    outer loop
      vertex 15 -5 -2.5
      vertex 20 -5 7.5
      vertex 15 -5 7.5
    endloop
  endfacet
  facet normal 0 -1 0
    outer loop
      vertex 15 -5 -2.5
      vertex 20 -5 -7.5
      vertex 20 -5 7.5
    endloop
  endfacet
  facet normal 0 -1 0
    outer loop
      vertex 20 -5 -7.5
      vertex 15 -5 -2.5
      vertex -20 -5 -7.5
    endloop
  endfacet
  facet normal 0 1 0
    outer loop
      vertex 20 5 7.5
      vertex 15 5 -2.5
      vertex 15 5 7.5
    endloop
  endfacet
  facet normal 0 1 0
    outer loop
      vertex 15 5 -2.5
      vertex 20 5 -7.5
      vertex -15 5 -2.5
    endloop
  endfacet
  facet normal 0 1 -0
    outer loop
      vertex 20 5 -7.5
      vertex 15 5 -2.5
      vertex 20 5 7.5
    endloop
  endfacet
  facet normal 0 1 -0
    outer loop
      vertex -15 5 -2.5
      vertex -20 5 7.5
      vertex -15 5 7.5
    endloop
  endfacet
  facet normal 0 1 0
    outer loop
      vertex -15 5 -2.5
      vertex -20 5 -7.5
      vertex -20 5 7.5
    endloop
  endfacet
  facet normal 0 1 0
    outer loop
      vertex -20 5 -7.5
      vertex -15 5 -2.5
      vertex 20 5 -7.5
    endloop
  endfacet
  facet normal -0.866025 -0.5 0
    outer loop
      vertex -3.25 0 -7.5
      vertex -4.125 1.51554 -2.5
      vertex -4.125 1.51554 -7.5
    endloop
  endfacet
  facet normal -0.866025 -0.5 0
    outer loop
      vertex -4.125 1.51554 -2.5
      vertex -3.25 0 -7.5
      vertex -3.25 0 -2.5
    endloop
  endfacet
  facet normal 0.866025 -0.5 0
    outer loop
      vertex -6.75 0 -2.5
      vertex -5.875 1.51554 -7.5
      vertex -5.875 1.51554 -2.5
    endloop
  endfacet
  facet normal 0.866025 -0.5 0
    outer loop
      vertex -5.875 1.51554 -7.5
      vertex -6.75 0 -2.5
      vertex -6.75 0 -7.5
    endloop
  endfacet
  facet normal 0 -1 0
    outer loop
      vertex -5.875 1.51554 -7.5
      vertex -4.125 1.51554 -2.5
      vertex -5.875 1.51554 -2.5
    endloop
  endfacet
  facet normal 0 -1 -0
    outer loop
      vertex -4.125 1.51554 -2.5
      vertex -5.875 1.51554 -7.5
      vertex -4.125 1.51554 -7.5
    endloop
  endfacet
  facet normal -0.866025 0.5 0
    outer loop
      vertex -4.125 -1.51554 -7.5
      vertex -3.25 0 -2.5
      vertex -3.25 0 -7.5
    endloop
  endfacet
  facet normal -0.866025 0.5 0
    outer loop
      vertex -3.25 0 -2.5
      vertex -4.125 -1.51554 -7.5
      vertex -4.125 -1.51554 -2.5
    endloop
  endfacet
  facet normal 0 1 -0
    outer loop
      vertex -4.125 -1.51554 -7.5
      vertex -5.875 -1.51554 -2.5
      vertex -4.125 -1.51554 -2.5
    endloop
  endfacet
  facet normal 0 1 0
    outer loop
      vertex -5.875 -1.51554 -2.5
      vertex -4.125 -1.51554 -7.5
      vertex -5.875 -1.51554 -7.5
    endloop
  endfacet
  facet normal 0.866025 0.5 0
    outer loop
      vertex -5.875 -1.51554 -2.5
      vertex -6.75 0 -7.5
      vertex -6.75 0 -2.5
    endloop
  endfacet
  facet normal 0.866025 0.5 0
    outer loop
      vertex -6.75 0 -7.5
      vertex -5.875 -1.51554 -2.5
      vertex -5.875 -1.51554 -7.5
    endloop
  endfacet
  facet normal -0.866025 -0.5 0
    outer loop
      vertex 6.75 0 -7.5
      vertex 5.875 1.51554 -2.5
      vertex 5.875 1.51554 -7.5
    endloop
  endfacet
  facet normal -0.866025 -0.5 0
    outer loop
      vertex 5.875 1.51554 -2.5
      vertex 6.75 0 -7.5
      vertex 6.75 0 -2.5
    endloop
  endfacet
  facet normal 0.866026 0.5 0
    outer loop
      vertex 4.125 -1.51554 -2.5
      vertex 3.25 0 -7.5
      vertex 3.25 0 -2.5
    endloop
  endfacet
  facet normal 0.866026 0.5 0
    outer loop
      vertex 3.25 0 -7.5
      vertex 4.125 -1.51554 -2.5
      vertex 4.125 -1.51554 -7.5
    endloop
  endfacet
  facet normal 0 -1 0
    outer loop
      vertex 4.125 1.51554 -7.5
      vertex 5.875 1.51554 -2.5
      vertex 4.125 1.51554 -2.5
    endloop
  endfacet
  facet normal 0 -1 -0
    outer loop
      vertex 5.875 1.51554 -2.5
      vertex 4.125 1.51554 -7.5
      vertex 5.875 1.51554 -7.5
    endloop
  endfacet
  facet normal 0 1 -0
    outer loop
      vertex 5.875 -1.51554 -7.5
      vertex 4.125 -1.51554 -2.5
      vertex 5.875 -1.51554 -2.5
    endloop
  endfacet
  facet normal 0 1 0
    outer loop
      vertex 4.125 -1.51554 -2.5
      vertex 5.875 -1.51554 -7.5
      vertex 4.125 -1.51554 -7.5
    endloop
  endfacet
  facet normal 0.866025 -0.5 0
    outer loop
      vertex 3.25 0 -2.5
      vertex 4.125 1.51554 -7.5
      vertex 4.125 1.51554 -2.5
    endloop
  endfacet
  facet normal 0.866025 -0.5 0
    outer loop
      vertex 4.125 1.51554 -7.5
      vertex 3.25 0 -2.5
      vertex 3.25 0 -7.5
    endloop
  endfacet
  facet normal -0.866025 0.5 0
    outer loop
      vertex 5.875 -1.51554 -7.5
      vertex 6.75 0 -2.5
      vertex 6.75 0 -7.5
    endloop
  endfacet
  facet normal -0.866025 0.5 0
    outer loop
      vertex 6.75 0 -2.5
      vertex 5.875 -1.51554 -7.5
      vertex 5.875 -1.51554 -2.5
    endloop
  endfacet
  facet normal 0 -0.433884 0.900969
    outer loop
      vertex -20 1.56366 2.08635
      vertex -15 0 1.33333
      vertex -15 1.56366 2.08635
    endloop
  endfacet
  facet normal 0 -0.433884 0.900969
    outer loop
      vertex -15 0 1.33333
      vertex -20 1.56366 2.08635
      vertex -20 0 1.33333
    endloop
  endfacet
  facet normal 0 -0.433884 0.900969
    outer loop
      vertex 15 1.56366 2.08635
      vertex 20 0 1.33333
      vertex 20 1.56366 2.08635
    endloop
  endfacet
  facet normal 0 -0.433884 0.900969
    outer loop
      vertex 20 0 1.33333
      vertex 15 1.56366 2.08635
      vertex 15 0 1.33333
    endloop
  endfacet
  facet normal 0 0 -1
    outer loop
      vertex -20 -0.867767 5.13527
      vertex -15 0.867767 5.13527
      vertex -15 -0.867767 5.13527
    endloop
  endfacet
  facet normal -0 0 -1
    outer loop
      vertex -15 0.867767 5.13527
      vertex -20 -0.867767 5.13527
      vertex -20 0.867767 5.13527
    endloop
  endfacet
  facet normal 0 0 -1
    outer loop
      vertex 15 -0.867767 5.13527
      vertex 20 0.867767 5.13527
      vertex 20 -0.867767 5.13527
    endloop
  endfacet
  facet normal -0 0 -1
    outer loop
      vertex 20 0.867767 5.13527
      vertex 15 -0.867767 5.13527
      vertex 15 0.867767 5.13527
    endloop
  endfacet
  facet normal 0 -0.974928 0.222521
    outer loop
      vertex -20 1.56366 2.08635
      vertex -15 1.94986 3.77837
      vertex -20 1.94986 3.77837
    endloop
  endfacet
  facet normal 0 -0.974928 0.222521
    outer loop
      vertex -15 1.94986 3.77837
      vertex -20 1.56366 2.08635
      vertex -15 1.56366 2.08635
    endloop
  endfacet
  facet normal 0 -0.974928 0.222521
    outer loop
      vertex 15 1.56366 2.08635
      vertex 20 1.94986 3.77837
      vertex 15 1.94986 3.77837
    endloop
  endfacet
  facet normal 0 -0.974928 0.222521
    outer loop
      vertex 20 1.94986 3.77837
      vertex 15 1.56366 2.08635
      vertex 20 1.56366 2.08635
    endloop
  endfacet
  facet normal 0 -0.781831 -0.62349
    outer loop
      vertex -20 1.94986 3.77837
      vertex -15 0.867767 5.13527
      vertex -20 0.867767 5.13527
    endloop
  endfacet
  facet normal 0 -0.781831 -0.62349
    outer loop
      vertex -15 0.867767 5.13527
      vertex -20 1.94986 3.77837
      vertex -15 1.94986 3.77837
    endloop
  endfacet
  facet normal 0 -0.781831 -0.62349
    outer loop
      vertex 15 1.94986 3.77837
      vertex 20 0.867767 5.13527
      vertex 15 0.867767 5.13527
    endloop
  endfacet
  facet normal 0 -0.781831 -0.62349
    outer loop
      vertex 20 0.867767 5.13527
      vertex 15 1.94986 3.77837
      vertex 20 1.94986 3.77837
    endloop
  endfacet
  facet normal 0 0.974928 0.222521
    outer loop
      vertex -15 -1.56366 2.08635
      vertex -20 -1.94986 3.77837
      vertex -15 -1.94986 3.77837
    endloop
  endfacet
  facet normal 0 0.974928 0.222521
    outer loop
      vertex -20 -1.94986 3.77837
      vertex -15 -1.56366 2.08635
      vertex -20 -1.56366 2.08635
    endloop
  endfacet
  facet normal 0 0.974928 0.222521
    outer loop
      vertex 20 -1.56366 2.08635
      vertex 15 -1.94986 3.77837
      vertex 20 -1.94986 3.77837
    endloop
  endfacet
  facet normal 0 0.974928 0.222521
    outer loop
      vertex 15 -1.94986 3.77837
      vertex 20 -1.56366 2.08635
      vertex 15 -1.56366 2.08635
    endloop
  endfacet
  facet normal 0 0.781831 -0.62349
    outer loop
      vertex -15 -1.94986 3.77837
      vertex -20 -0.867767 5.13527
      vertex -15 -0.867767 5.13527
    endloop
  endfacet
  facet normal 0 0.781831 -0.62349
    outer loop
      vertex -20 -0.867767 5.13527
      vertex -15 -1.94986 3.77837
      vertex -20 -1.94986 3.77837
    endloop
  endfacet
  facet normal 0 0.781831 -0.62349
    outer loop
      vertex 20 -1.94986 3.77837
      vertex 15 -0.867767 5.13527
      vertex 20 -0.867767 5.13527
    endloop
  endfacet
  facet normal 0 0.781831 -0.62349
    outer loop
      vertex 15 -0.867767 5.13527
      vertex 20 -1.94986 3.77837
      vertex 15 -1.94986 3.77837
    endloop
  endfacet
  facet normal -0 0.433884 0.900969
    outer loop
      vertex -20 0 1.33333
      vertex -15 -1.56366 2.08635
      vertex -15 0 1.33333
    endloop
  endfacet
  facet normal 0 0.433884 0.900969
    outer loop
      vertex -15 -1.56366 2.08635
      vertex -20 0 1.33333
      vertex -20 -1.56366 2.08635
    endloop
  endfacet
  facet normal -0 0.433884 0.900969
    outer loop
      vertex 15 0 1.33333
      vertex 20 -1.56366 2.08635
      vertex 20 0 1.33333
    endloop
  endfacet
  facet normal 0 0.433884 0.900969
    outer loop
      vertex 20 -1.56366 2.08635
      vertex 15 0 1.33333
      vertex 15 -1.56366 2.08635
    endloop
  endfacet
  facet normal -1 0 0
    outer loop
      vertex -20 1.56366 2.08635
      vertex -20 5 7.5
      vertex -20 5 -7.5
    endloop
  endfacet
  facet normal -1 0 0
    outer loop
      vertex -20 5 7.5
      vertex -20 1.56366 2.08635
      vertex -20 1.94986 3.77837
    endloop
  endfacet
  facet normal -1 0 0
    outer loop
      vertex -20 5 -7.5
      vertex -20 0 1.33333
      vertex -20 1.56366 2.08635
    endloop
  endfacet
  facet normal -1 0 0
    outer loop
      vertex -20 -5 -7.5
      vertex -20 0 1.33333
      vertex -20 5 -7.5
    endloop
  endfacet
  facet normal -1 0 0
    outer loop
      vertex -20 -5 7.5
      vertex -20 -1.56366 2.08635
      vertex -20 -5 -7.5
    endloop
  endfacet
  facet normal -1 -0 0
    outer loop
      vertex -20 0 1.33333
      vertex -20 -5 -7.5
      vertex -20 -1.56366 2.08635
    endloop
  endfacet
  facet normal -1 0 0
    outer loop
      vertex -20 0.867767 5.13527
      vertex -20 5 7.5
      vertex -20 1.94986 3.77837
    endloop
  endfacet
  facet normal -1 0 0
    outer loop
      vertex -20 -0.867767 5.13527
      vertex -20 5 7.5
      vertex -20 0.867767 5.13527
    endloop
  endfacet
  facet normal -1 0 0
    outer loop
      vertex -20 -0.867767 5.13527
      vertex -20 -5 7.5
      vertex -20 5 7.5
    endloop
  endfacet
  facet normal -1 0 0
    outer loop
      vertex -20 -1.94986 3.77837
      vertex -20 -5 7.5
      vertex -20 -0.867767 5.13527
    endloop
  endfacet
  facet normal -1 0 0
    outer loop
      vertex -20 -1.56366 2.08635
      vertex -20 -5 7.5
      vertex -20 -1.94986 3.77837
    endloop
  endfacet
  facet normal -0 0 1
    outer loop
      vertex -20 5 7.5
      vertex -15 -5 7.5
      vertex -15 5 7.5
    endloop
  endfacet
  facet normal 0 0 1
    outer loop
      vertex -15 -5 7.5
      vertex -20 5 7.5
      vertex -20 -5 7.5
    endloop
  endfacet
  facet normal -0 0 1
    outer loop
      vertex 15 5 7.5
      vertex 20 -5 7.5
      vertex 20 5 7.5
    endloop
  endfacet
  facet normal 0 0 1
    outer loop
      vertex 20 -5 7.5
      vertex 15 5 7.5
      vertex 15 -5 7.5
    endloop
  endfacet
  facet normal 1 0 0
    outer loop
      vertex 20 1.56366 2.08635
      vertex 20 5 7.5
      vertex 20 1.94986 3.77837
    endloop
  endfacet
  facet normal 1 0 0
    outer loop
      vertex 20 5 7.5
      vertex 20 0.867767 5.13527
      vertex 20 1.94986 3.77837
    endloop
  endfacet
  facet normal 1 0 0
    outer loop
      vertex 20 5 7.5
      vertex 20 -0.867767 5.13527
      vertex 20 0.867767 5.13527
    endloop
  endfacet
  facet normal 1 0 0
    outer loop
      vertex 20 -0.867767 5.13527
      vertex 20 -5 7.5
      vertex 20 -1.94986 3.77837
    endloop
  endfacet
  facet normal 1 -0 0
    outer loop
      vertex 20 -5 7.5
      vertex 20 -0.867767 5.13527
      vertex 20 5 7.5
    endloop
  endfacet
  facet normal 1 0 0
    outer loop
      vertex 20 5 7.5
      vertex 20 1.56366 2.08635
      vertex 20 5 -7.5
    endloop
  endfacet
  facet normal 1 -0 0
    outer loop
      vertex 20 0 1.33333
      vertex 20 5 -7.5
      vertex 20 1.56366 2.08635
    endloop
  endfacet
  facet normal 1 0 0
    outer loop
      vertex 20 -5 -7.5
      vertex 20 0 1.33333
      vertex 20 -1.56366 2.08635
    endloop
  endfacet
  facet normal 1 0 0
    outer loop
      vertex 20 -5 7.5
      vertex 20 -1.56366 2.08635
      vertex 20 -1.94986 3.77837
    endloop
  endfacet
  facet normal 1 0 0
    outer loop
      vertex 20 0 1.33333
      vertex 20 -5 -7.5
      vertex 20 5 -7.5
    endloop
  endfacet
  facet normal 1 0 0
    outer loop
      vertex 20 -5 -7.5
      vertex 20 -1.56366 2.08635
      vertex 20 -5 7.5
    endloop
  endfacet
  facet normal 0 0 -1
    outer loop
      vertex 20 -5 -7.5
      vertex 6.75 0 -7.5
      vertex 20 5 -7.5
    endloop
  endfacet
  facet normal 0 0 -1
    outer loop
      vertex 20 -5 -7.5
      vertex 5.875 -1.51554 -7.5
      vertex 6.75 0 -7.5
    endloop
  endfacet
  facet normal 0 0 -1
    outer loop
      vertex 20 -5 -7.5
      vertex 4.125 -1.51554 -7.5
      vertex 5.875 -1.51554 -7.5
    endloop
  endfacet
  facet normal 0 0 -1
    outer loop
      vertex 4.125 -1.51554 -7.5
      vertex -3.25 0 -7.5
      vertex 3.25 0 -7.5
    endloop
  endfacet
  facet normal 0 0 -1
    outer loop
      vertex -4.125 -1.51554 -7.5
      vertex 4.125 -1.51554 -7.5
      vertex 20 -5 -7.5
    endloop
  endfacet
  facet normal 0 0 -1
    outer loop
      vertex 4.125 -1.51554 -7.5
      vertex -4.125 -1.51554 -7.5
      vertex -3.25 0 -7.5
    endloop
  endfacet
  facet normal 0 0 -1
    outer loop
      vertex -20 -5 -7.5
      vertex -4.125 -1.51554 -7.5
      vertex 20 -5 -7.5
    endloop
  endfacet
  facet normal -0 0 -1
    outer loop
      vertex -5.875 -1.51554 -7.5
      vertex -20 -5 -7.5
      vertex -6.75 0 -7.5
    endloop
  endfacet
  facet normal -0 0 -1
    outer loop
      vertex -4.125 -1.51554 -7.5
      vertex -20 -5 -7.5
      vertex -5.875 -1.51554 -7.5
    endloop
  endfacet
  facet normal 0 0 -1
    outer loop
      vertex 5.875 1.51554 -7.5
      vertex 20 5 -7.5
      vertex 6.75 0 -7.5
    endloop
  endfacet
  facet normal 0 0 -1
    outer loop
      vertex 4.125 1.51554 -7.5
      vertex 20 5 -7.5
      vertex 5.875 1.51554 -7.5
    endloop
  endfacet
  facet normal 0 0 -1
    outer loop
      vertex -3.25 0 -7.5
      vertex 4.125 1.51554 -7.5
      vertex 3.25 0 -7.5
    endloop
  endfacet
  facet normal 0 0 -1
    outer loop
      vertex -4.125 1.51554 -7.5
      vertex 4.125 1.51554 -7.5
      vertex -3.25 0 -7.5
    endloop
  endfacet
  facet normal 0 0 -1
    outer loop
      vertex 4.125 1.51554 -7.5
      vertex -4.125 1.51554 -7.5
      vertex 20 5 -7.5
    endloop
  endfacet
  facet normal 0 0 -1
    outer loop
      vertex -20 5 -7.5
      vertex -4.125 1.51554 -7.5
      vertex -5.875 1.51554 -7.5
    endloop
  endfacet
  facet normal 0 0 -1
    outer loop
      vertex -20 5 -7.5
      vertex -6.75 0 -7.5
      vertex -20 -5 -7.5
    endloop
  endfacet
  facet normal 0 0 -1
    outer loop
      vertex -4.125 1.51554 -7.5
      vertex -20 5 -7.5
      vertex 20 5 -7.5
    endloop
  endfacet
  facet normal 0 0 -1
    outer loop
      vertex -6.75 0 -7.5
      vertex -20 5 -7.5
      vertex -5.875 1.51554 -7.5
    endloop
  endfacet
  facet normal -2.22045e-016 0 1
    outer loop
      vertex 28 35 6.21725e-015
      vertex 7 30 1.55431e-015
      vertex 28 30 6.21725e-015
    endloop
  endfacet
  facet normal -2.22045e-016 0 1
    outer loop
      vertex 4.20833 28.4845 9.34438e-016
      vertex 7 30 1.55431e-015
      vertex 5.08333 30 1.12873e-015
    endloop
  endfacet
  facet normal -2.22045e-016 0 1
    outer loop
      vertex 4.20833 31.5155 9.34438e-016
      vertex 7 30 1.55431e-015
      vertex 28 35 6.21725e-015
    endloop
  endfacet
  facet normal -2.22045e-016 0 1
    outer loop
      vertex 7 30 1.55431e-015
      vertex 4.20833 31.5155 9.34438e-016
      vertex 5.08333 30 1.12873e-015
    endloop
  endfacet
  facet normal -2.22045e-016 0 1
    outer loop
      vertex 0 35 0
      vertex 4.20833 31.5155 9.34438e-016
      vertex 28 35 6.21725e-015
    endloop
  endfacet
  facet normal -2.22045e-016 0 1
    outer loop
      vertex 2.45833 31.5155 5.4586e-016
      vertex 0 35 0
      vertex 1.58333 30 3.51571e-016
    endloop
  endfacet
  facet normal -2.22045e-016 0 1
    outer loop
      vertex 4.20833 31.5155 9.34438e-016
      vertex 0 35 0
      vertex 2.45833 31.5155 5.4586e-016
    endloop
  endfacet
  facet normal -2.22045e-016 0 1
    outer loop
      vertex 7 30 1.55431e-015
      vertex 4.20833 28.4845 9.34438e-016
      vertex 7 25 1.55431e-015
    endloop
  endfacet
  facet normal -2.22045e-016 0 1
    outer loop
      vertex 0 25 0
      vertex 4.20833 28.4845 9.34438e-016
      vertex 2.45833 28.4845 5.4586e-016
    endloop
  endfacet
  facet normal -2.22045e-016 0 1
    outer loop
      vertex 4.20833 28.4845 9.34438e-016
      vertex 0 25 0
      vertex 7 25 1.55431e-015
    endloop
  endfacet
  facet normal -2.22045e-016 0 1
    outer loop
      vertex 1.58333 30 3.51571e-016
      vertex 0 25 0
      vertex 2.45833 28.4845 5.4586e-016
    endloop
  endfacet
  facet normal -2.22045e-016 0 1
    outer loop
      vertex 0 25 0
      vertex 1.58333 30 3.51571e-016
      vertex 0 35 0
    endloop
  endfacet
  facet normal 0 -1 0
    outer loop
      vertex 9.95106 30 -2.80902
      vertex 21.4122 30 -1.69098
      vertex 9.58778 30 -1.69098
    endloop
  endfacet
  facet normal 0 -1 0
    outer loop
      vertex 9.95106 30 -2.80902
      vertex 21.0489 30 -2.80902
      vertex 21.4122 30 -1.69098
    endloop
  endfacet
  facet normal 0 -1 0
    outer loop
      vertex 9.52308 30 -3.11996
      vertex 21.0489 30 -2.80902
      vertex 9.95106 30 -2.80902
    endloop
  endfacet
  facet normal 0 -1 0
    outer loop
      vertex 9.52308 30 -3.11996
      vertex 21.572 30 -3.18906
      vertex 21.0489 30 -2.80902
    endloop
  endfacet
  facet normal 0 -1 0
    outer loop
      vertex 9 30 -3.5
      vertex 21.572 30 -3.18906
      vertex 9.52308 30 -3.11996
    endloop
  endfacet
  facet normal 0 -1 -0
    outer loop
      vertex 21.572 30 -3.18906
      vertex 9 30 -3.5
      vertex 22 30 -3.5
    endloop
  endfacet
  facet normal 0 -1 0
    outer loop
      vertex 7 30 1.55431e-015
      vertex 8.04894 30 -2.80902
      vertex 8.41221 30 -1.69098
    endloop
  endfacet
  facet normal 0 -1 -0
    outer loop
      vertex 9 30 -3.5
      vertex 7 30 -5
      vertex 22 30 -3.5
    endloop
  endfacet
  facet normal 0 -1 -0
    outer loop
      vertex 8.57202 30 -3.18906
      vertex 7 30 -5
      vertex 9 30 -3.5
    endloop
  endfacet
  facet normal 0 -1 -0
    outer loop
      vertex 8.04894 30 -2.80902
      vertex 7 30 -5
      vertex 8.57202 30 -3.18906
    endloop
  endfacet
  facet normal 0 -1 0
    outer loop
      vertex 7 30 -5
      vertex 8.04894 30 -2.80902
      vertex 7 30 1.55431e-015
    endloop
  endfacet
  facet normal 0 -1 0
    outer loop
      vertex 9.58778 30 -1.69098
      vertex 7 30 1.55431e-015
      vertex 8.41221 30 -1.69098
    endloop
  endfacet
  facet normal 0 -1 0
    outer loop
      vertex 21.4122 30 -1.69098
      vertex 7 30 1.55431e-015
      vertex 9.58778 30 -1.69098
    endloop
  endfacet
  facet normal 0 -1 0
    outer loop
      vertex 7 30 1.55431e-015
      vertex 21.4122 30 -1.69098
      vertex 28 30 6.21725e-015
    endloop
  endfacet
  facet normal 0 -1 0
    outer loop
      vertex 22.5878 30 -1.69098
      vertex 28 30 6.21725e-015
      vertex 21.4122 30 -1.69098
    endloop
  endfacet
  facet normal 0 -1 0
    outer loop
      vertex 22.9511 30 -2.80902
      vertex 28 30 6.21725e-015
      vertex 22.5878 30 -1.69098
    endloop
  endfacet
  facet normal 0 -1 0
    outer loop
      vertex 28 30 -5
      vertex 22.9511 30 -2.80902
      vertex 22.5231 30 -3.11996
    endloop
  endfacet
  facet normal 0 -1 0
    outer loop
      vertex 28 30 -5
      vertex 22.5231 30 -3.11996
      vertex 22 30 -3.5
    endloop
  endfacet
  facet normal 0 -1 0
    outer loop
      vertex 22.9511 30 -2.80902
      vertex 28 30 -5
      vertex 28 30 6.21725e-015
    endloop
  endfacet
  facet normal 0 -1 0
    outer loop
      vertex 28 30 -5
      vertex 22 30 -3.5
      vertex 7 30 -5
    endloop
  endfacet
  facet normal 1 -0 0
    outer loop
      vertex 7 25 1.55431e-015
      vertex 7 30 -5
      vertex 7 30 1.55431e-015
    endloop
  endfacet
  facet normal 1 0 0
    outer loop
      vertex 7 30 -5
      vertex 7 25 1.55431e-015
      vertex 7 25 -5
    endloop
  endfacet
  facet normal 0.866025 -0.5 0
    outer loop
      vertex 1.58333 30 3.51571e-016
      vertex 2.45833 31.5155 -5
      vertex 2.45833 31.5155 5.4586e-016
    endloop
  endfacet
  facet normal 0.866025 -0.5 0
    outer loop
      vertex 2.45833 31.5155 -5
      vertex 1.58333 30 3.51571e-016
      vertex 1.58333 30 -5
    endloop
  endfacet
  facet normal -0.866025 0.5 0
    outer loop
      vertex 4.20833 28.4845 -5
      vertex 5.08333 30 1.12873e-015
      vertex 5.08333 30 -5
    endloop
  endfacet
  facet normal -0.866025 0.5 0
    outer loop
      vertex 5.08333 30 1.12873e-015
      vertex 4.20833 28.4845 -5
      vertex 4.20833 28.4845 9.34438e-016
    endloop
  endfacet
  facet normal 0 1 -0
    outer loop
      vertex 4.20833 28.4845 -5
      vertex 2.45833 28.4845 5.4586e-016
      vertex 4.20833 28.4845 9.34438e-016
    endloop
  endfacet
  facet normal 0 1 0
    outer loop
      vertex 2.45833 28.4845 5.4586e-016
      vertex 4.20833 28.4845 -5
      vertex 2.45833 28.4845 -5
    endloop
  endfacet
  facet normal -0.866025 -0.5 0
    outer loop
      vertex 5.08333 30 -5
      vertex 4.20833 31.5155 9.34438e-016
      vertex 4.20833 31.5155 -5
    endloop
  endfacet
  facet normal -0.866025 -0.5 0
    outer loop
      vertex 4.20833 31.5155 9.34438e-016
      vertex 5.08333 30 -5
      vertex 5.08333 30 1.12873e-015
    endloop
  endfacet
  facet normal 0 -1 0
    outer loop
      vertex 2.45833 31.5155 -5
      vertex 4.20833 31.5155 9.34438e-016
      vertex 2.45833 31.5155 5.4586e-016
    endloop
  endfacet
  facet normal 0 -1 -0
    outer loop
      vertex 4.20833 31.5155 9.34438e-016
      vertex 2.45833 31.5155 -5
      vertex 4.20833 31.5155 -5
    endloop
  endfacet
  facet normal 0.866025 0.5 0
    outer loop
      vertex 2.45833 28.4845 5.4586e-016
      vertex 1.58333 30 -5
      vertex 1.58333 30 3.51571e-016
    endloop
  endfacet
  facet normal 0.866025 0.5 0
    outer loop
      vertex 1.58333 30 -5
      vertex 2.45833 28.4845 5.4586e-016
      vertex 2.45833 28.4845 -5
    endloop
  endfacet
  facet normal -0.587786 0 0.809017
    outer loop
      vertex 9.57063 35 -3.08541
      vertex 9.95106 30 -2.80902
      vertex 9.95106 35 -2.80902
    endloop
  endfacet
  facet normal -0.587785 1.63409e-008 0.809017
    outer loop
      vertex 9.95106 30 -2.80902
      vertex 9.57063 35 -3.08541
      vertex 9.52308 30 -3.11996
    endloop
  endfacet
  facet normal -0.951056 0 -0.309017
    outer loop
      vertex 9.95106 30 -2.80902
      vertex 9.58778 35 -1.69098
      vertex 9.95106 35 -2.80902
    endloop
  endfacet
  facet normal -0.951056 -0 -0.309017
    outer loop
      vertex 9.58778 35 -1.69098
      vertex 9.95106 30 -2.80902
      vertex 9.58778 30 -1.69098
    endloop
  endfacet
  facet normal -0.587785 1.22557e-008 0.809017
    outer loop
      vertex 9 35 -3.5
      vertex 9.52308 30 -3.11996
      vertex 9.57063 35 -3.08541
    endloop
  endfacet
  facet normal -0.587785 0 0.809017
    outer loop
      vertex 9.52308 30 -3.11996
      vertex 9 35 -3.5
      vertex 9 30 -3.5
    endloop
  endfacet
  facet normal 0 0 -1
    outer loop
      vertex 8.41221 30 -1.69098
      vertex 9.58778 35 -1.69098
      vertex 9.58778 30 -1.69098
    endloop
  endfacet
  facet normal -0 0 -1
    outer loop
      vertex 9.58778 35 -1.69098
      vertex 8.41221 30 -1.69098
      vertex 8.41221 35 -1.69098
    endloop
  endfacet
  facet normal 0.951056 0 -0.309017
    outer loop
      vertex 8.41221 30 -1.69098
      vertex 8.04894 35 -2.80902
      vertex 8.41221 35 -1.69098
    endloop
  endfacet
  facet normal 0.951056 0 -0.309017
    outer loop
      vertex 8.04894 35 -2.80902
      vertex 8.41221 30 -1.69098
      vertex 8.04894 30 -2.80902
    endloop
  endfacet
  facet normal 0.587786 0 0.809017
    outer loop
      vertex 8.61958 35 -3.22361
      vertex 9 30 -3.5
      vertex 9 35 -3.5
    endloop
  endfacet
  facet normal 0.587785 -1.63409e-008 0.809017
    outer loop
      vertex 9 30 -3.5
      vertex 8.61958 35 -3.22361
      vertex 8.57202 30 -3.18906
    endloop
  endfacet
  facet normal 0.587786 -2.15983e-008 0.809017
    outer loop
      vertex 8.04894 35 -2.80902
      vertex 8.57202 30 -3.18906
      vertex 8.61958 35 -3.22361
    endloop
  endfacet
  facet normal 0.587786 0 0.809017
    outer loop
      vertex 8.57202 30 -3.18906
      vertex 8.04894 35 -2.80902
      vertex 8.04894 30 -2.80902
    endloop
  endfacet
  facet normal -0.587784 0 0.809018
    outer loop
      vertex 22.5706 35 -3.08541
      vertex 22.9511 30 -2.80902
      vertex 22.9511 35 -2.80902
    endloop
  endfacet
  facet normal -0.587785 -1.08227e-007 0.809017
    outer loop
      vertex 22.9511 30 -2.80902
      vertex 22.5706 35 -3.08541
      vertex 22.5231 30 -3.11996
    endloop
  endfacet
  facet normal -0.951056 0 -0.309019
    outer loop
      vertex 22.9511 30 -2.80902
      vertex 22.5878 35 -1.69098
      vertex 22.9511 35 -2.80902
    endloop
  endfacet
  facet normal -0.951056 -0 -0.309019
    outer loop
      vertex 22.5878 35 -1.69098
      vertex 22.9511 30 -2.80902
      vertex 22.5878 30 -1.69098
    endloop
  endfacet
  facet normal -0.587786 -8.11704e-008 0.809016
    outer loop
      vertex 22 35 -3.5
      vertex 22.5231 30 -3.11996
      vertex 22.5706 35 -3.08541
    endloop
  endfacet
  facet normal -0.587786 0 0.809017
    outer loop
      vertex 22.5231 30 -3.11996
      vertex 22 35 -3.5
      vertex 22 30 -3.5
    endloop
  endfacet
  facet normal 0 0 -1
    outer loop
      vertex 21.4122 30 -1.69098
      vertex 22.5878 35 -1.69098
      vertex 22.5878 30 -1.69098
    endloop
  endfacet
  facet normal -0 0 -1
    outer loop
      vertex 22.5878 35 -1.69098
      vertex 21.4122 30 -1.69098
      vertex 21.4122 35 -1.69098
    endloop
  endfacet
  facet normal 0.951056 0 -0.309017
    outer loop
      vertex 21.4122 30 -1.69098
      vertex 21.0489 35 -2.80902
      vertex 21.4122 35 -1.69098
    endloop
  endfacet
  facet normal 0.951056 0 -0.309017
    outer loop
      vertex 21.0489 35 -2.80902
      vertex 21.4122 30 -1.69098
      vertex 21.0489 30 -2.80902
    endloop
  endfacet
  facet normal 0.587784 0 0.809018
    outer loop
      vertex 21.6196 35 -3.22361
      vertex 22 30 -3.5
      vertex 22 35 -3.5
    endloop
  endfacet
  facet normal 0.587785 1.08227e-007 0.809017
    outer loop
      vertex 22 30 -3.5
      vertex 21.6196 35 -3.22361
      vertex 21.572 30 -3.18906
    endloop
  endfacet
  facet normal 0.587786 8.11704e-008 0.809016
    outer loop
      vertex 21.0489 35 -2.80902
      vertex 21.572 30 -3.18906
      vertex 21.6196 35 -3.22361
    endloop
  endfacet
  facet normal 0.587786 0 0.809017
    outer loop
      vertex 21.572 30 -3.18906
      vertex 21.0489 35 -2.80902
      vertex 21.0489 30 -2.80902
    endloop
  endfacet
  facet normal 1 -0 0
    outer loop
      vertex 28 30 6.21725e-015
      vertex 28 35 -5
      vertex 28 35 6.21725e-015
    endloop
  endfacet
  facet normal 1 0 0
    outer loop
      vertex 28 35 -5
      vertex 28 30 6.21725e-015
      vertex 28 30 -5
    endloop
  endfacet
  facet normal 0 0 -1
    outer loop
      vertex 4.20833 28.4845 -5
      vertex 7 30 -5
      vertex 7 25 -5
    endloop
  endfacet
  facet normal -0 0 -1
    outer loop
      vertex 7 30 -5
      vertex 4.20833 28.4845 -5
      vertex 5.08333 30 -5
    endloop
  endfacet
  facet normal 0 0 -1
    outer loop
      vertex 1.11022e-015 25 -5
      vertex 4.20833 28.4845 -5
      vertex 7 25 -5
    endloop
  endfacet
  facet normal -0 0 -1
    outer loop
      vertex 2.45833 28.4845 -5
      vertex 1.11022e-015 25 -5
      vertex 1.58333 30 -5
    endloop
  endfacet
  facet normal -0 0 -1
    outer loop
      vertex 4.20833 28.4845 -5
      vertex 1.11022e-015 25 -5
      vertex 2.45833 28.4845 -5
    endloop
  endfacet
  facet normal 0 0 -1
    outer loop
      vertex 7 30 -5
      vertex 28 35 -5
      vertex 28 30 -5
    endloop
  endfacet
  facet normal 0 0 -1
    outer loop
      vertex 4.20833 31.5155 -5
      vertex 7 30 -5
      vertex 5.08333 30 -5
    endloop
  endfacet
  facet normal 0 0 -1
    outer loop
      vertex 7 30 -5
      vertex 4.20833 31.5155 -5
      vertex 28 35 -5
    endloop
  endfacet
  facet normal 0 0 -1
    outer loop
      vertex 1.11022e-015 35 -5
      vertex 4.20833 31.5155 -5
      vertex 2.45833 31.5155 -5
    endloop
  endfacet
  facet normal 0 0 -1
    outer loop
      vertex 4.20833 31.5155 -5
      vertex 1.11022e-015 35 -5
      vertex 28 35 -5
    endloop
  endfacet
  facet normal 0 0 -1
    outer loop
      vertex 1.58333 30 -5
      vertex 1.11022e-015 35 -5
      vertex 2.45833 31.5155 -5
    endloop
  endfacet
  facet normal 0 0 -1
    outer loop
      vertex 1.11022e-015 35 -5
      vertex 1.58333 30 -5
      vertex 1.11022e-015 25 -5
    endloop
  endfacet
  facet normal 0 1 -0
    outer loop
      vertex 21.0489 35 -2.80902
      vertex 9.58778 35 -1.69098
      vertex 21.4122 35 -1.69098
    endloop
  endfacet
  facet normal 0 1 0
    outer loop
      vertex 21.0489 35 -2.80902
      vertex 9.95106 35 -2.80902
      vertex 9.58778 35 -1.69098
    endloop
  endfacet
  facet normal 0 1 0
    outer loop
      vertex 21.0489 35 -2.80902
      vertex 9.57063 35 -3.08541
      vertex 9.95106 35 -2.80902
    endloop
  endfacet
  facet normal 0 1 0
    outer loop
      vertex 21.6196 35 -3.22361
      vertex 9.57063 35 -3.08541
      vertex 21.0489 35 -2.80902
    endloop
  endfacet
  facet normal 0 1 0
    outer loop
      vertex 9 35 -3.5
      vertex 21.6196 35 -3.22361
      vertex 22 35 -3.5
    endloop
  endfacet
  facet normal 0 1 0
    outer loop
      vertex 21.6196 35 -3.22361
      vertex 9 35 -3.5
      vertex 9.57063 35 -3.08541
    endloop
  endfacet
  facet normal 0 1 0
    outer loop
      vertex 21.4122 35 -1.69098
      vertex 28 35 6.21725e-015
      vertex 22.5878 35 -1.69098
    endloop
  endfacet
  facet normal 0 1 0
    outer loop
      vertex 28 35 6.21725e-015
      vertex 22.9511 35 -2.80902
      vertex 22.5878 35 -1.69098
    endloop
  endfacet
  facet normal 0 1 -0
    outer loop
      vertex 28 35 -5
      vertex 22.9511 35 -2.80902
      vertex 28 35 6.21725e-015
    endloop
  endfacet
  facet normal 0 1 0
    outer loop
      vertex 22.9511 35 -2.80902
      vertex 28 35 -5
      vertex 22.5706 35 -3.08541
    endloop
  endfacet
  facet normal 0 1 0
    outer loop
      vertex 22 35 -3.5
      vertex 28 35 -5
      vertex 9 35 -3.5
    endloop
  endfacet
  facet normal 0 1 0
    outer loop
      vertex 22.5706 35 -3.08541
      vertex 28 35 -5
      vertex 22 35 -3.5
    endloop
  endfacet
  facet normal 0 1 0
    outer loop
      vertex 9.58778 35 -1.69098
      vertex 28 35 6.21725e-015
      vertex 21.4122 35 -1.69098
    endloop
  endfacet
  facet normal 0 1 0
    outer loop
      vertex 28 35 6.21725e-015
      vertex 9.58778 35 -1.69098
      vertex 0 35 0
    endloop
  endfacet
  facet normal 0 1 -0
    outer loop
      vertex 8.41221 35 -1.69098
      vertex 0 35 0
      vertex 9.58778 35 -1.69098
    endloop
  endfacet
  facet normal 0 1 -0
    outer loop
      vertex 8.04894 35 -2.80902
      vertex 0 35 0
      vertex 8.41221 35 -1.69098
    endloop
  endfacet
  facet normal 0 1 0
    outer loop
      vertex 1.11022e-015 35 -5
      vertex 8.04894 35 -2.80902
      vertex 8.61958 35 -3.22361
    endloop
  endfacet
  facet normal 0 1 0
    outer loop
      vertex 1.11022e-015 35 -5
      vertex 8.61958 35 -3.22361
      vertex 9 35 -3.5
    endloop
  endfacet
  facet normal 0 1 0
    outer loop
      vertex 8.04894 35 -2.80902
      vertex 1.11022e-015 35 -5
      vertex 0 35 0
    endloop
  endfacet
  facet normal 0 1 0
    outer loop
      vertex 1.11022e-015 35 -5
      vertex 9 35 -3.5
      vertex 28 35 -5
    endloop
  endfacet
  facet normal -1 0 -2.22045e-016
    outer loop
      vertex 1.11022e-015 25 -5
      vertex 0 35 0
      vertex 1.11022e-015 35 -5
    endloop
  endfacet
  facet normal -1 -0 -2.22045e-016
    outer loop
      vertex 0 35 0
      vertex 1.11022e-015 25 -5
      vertex 0 25 0
    endloop
  endfacet
  facet normal 0 -1 0
    outer loop
      vertex 1.11022e-015 25 -5
      vertex 7 25 1.55431e-015
      vertex 0 25 0
    endloop
  endfacet
  facet normal 0 -1 -0
    outer loop
      vertex 7 25 1.55431e-015
      vertex 1.11022e-015 25 -5
      vertex 7 25 -5
    endloop
  endfacet
  facet normal -2.22045e-016 0 1
    outer loop
      vertex 28 20 6.21725e-015
      vertex 25.809 18.0878 5.73075e-015
      vertex 28 15 6.21725e-015
    endloop
  endfacet
  facet normal -2.22045e-016 0 1
    outer loop
      vertex 28 20 6.21725e-015
      vertex 24.691 18.4511 5.4825e-015
      vertex 25.809 18.0878 5.73075e-015
    endloop
  endfacet
  facet normal -2.22045e-016 0 1
    outer loop
      vertex 7 15 1.55431e-015
      vertex 24.3282 17.9518 5.40195e-015
      vertex 24.691 18.4511 5.4825e-015
    endloop
  endfacet
  facet normal -2.22045e-016 0 1
    outer loop
      vertex 24.3282 17.9518 5.40195e-015
      vertex 7 15 1.55431e-015
      vertex 24 17.5 5.32907e-015
    endloop
  endfacet
  facet normal -2.22045e-016 0 1
    outer loop
      vertex 0 20 0
      vertex 24.691 18.4511 5.4825e-015
      vertex 28 20 6.21725e-015
    endloop
  endfacet
  facet normal -2.22045e-016 0 1
    outer loop
      vertex 4.20833 13.4845 9.34438e-016
      vertex 7 15 1.55431e-015
      vertex 5.08333 15 1.12873e-015
    endloop
  endfacet
  facet normal -2.22045e-016 0 1
    outer loop
      vertex 24.691 18.4511 5.4825e-015
      vertex 4.20833 16.5155 9.34438e-016
      vertex 7 15 1.55431e-015
    endloop
  endfacet
  facet normal -2.22045e-016 0 1
    outer loop
      vertex 7 15 1.55431e-015
      vertex 4.20833 16.5155 9.34438e-016
      vertex 5.08333 15 1.12873e-015
    endloop
  endfacet
  facet normal -2.22045e-016 0 1
    outer loop
      vertex 24.691 18.4511 5.4825e-015
      vertex 0 20 0
      vertex 4.20833 16.5155 9.34438e-016
    endloop
  endfacet
  facet normal -2.22045e-016 0 1
    outer loop
      vertex 2.45833 16.5155 5.4586e-016
      vertex 0 20 0
      vertex 1.58333 15 3.51571e-016
    endloop
  endfacet
  facet normal -2.22045e-016 0 1
    outer loop
      vertex 4.20833 16.5155 9.34438e-016
      vertex 0 20 0
      vertex 2.45833 16.5155 5.4586e-016
    endloop
  endfacet
  facet normal -2.22045e-016 0 1
    outer loop
      vertex 25.809 16.9122 5.73075e-015
      vertex 28 15 6.21725e-015
      vertex 25.809 18.0878 5.73075e-015
    endloop
  endfacet
  facet normal -2.22045e-016 0 1
    outer loop
      vertex 24.691 16.5489 5.4825e-015
      vertex 28 15 6.21725e-015
      vertex 25.809 16.9122 5.73075e-015
    endloop
  endfacet
  facet normal -2.22045e-016 0 1
    outer loop
      vertex 7 15 1.55431e-015
      vertex 24.3282 17.0482 5.40195e-015
      vertex 24 17.5 5.32907e-015
    endloop
  endfacet
  facet normal -2.22045e-016 0 1
    outer loop
      vertex 24.691 16.5489 5.4825e-015
      vertex 7 15 1.55431e-015
      vertex 28 15 6.21725e-015
    endloop
  endfacet
  facet normal -2.22045e-016 0 1
    outer loop
      vertex 24.3282 17.0482 5.40195e-015
      vertex 7 15 1.55431e-015
      vertex 24.691 16.5489 5.4825e-015
    endloop
  endfacet
  facet normal -2.22045e-016 0 1
    outer loop
      vertex 7 15 1.55431e-015
      vertex 4.20833 13.4845 9.34438e-016
      vertex 7 10 1.55431e-015
    endloop
  endfacet
  facet normal -2.22045e-016 0 1
    outer loop
      vertex 0 10 0
      vertex 4.20833 13.4845 9.34438e-016
      vertex 2.45833 13.4845 5.4586e-016
    endloop
  endfacet
  facet normal -2.22045e-016 0 1
    outer loop
      vertex 4.20833 13.4845 9.34438e-016
      vertex 0 10 0
      vertex 7 10 1.55431e-015
    endloop
  endfacet
  facet normal -2.22045e-016 0 1
    outer loop
      vertex 1.58333 15 3.51571e-016
      vertex 0 10 0
      vertex 2.45833 13.4845 5.4586e-016
    endloop
  endfacet
  facet normal -2.22045e-016 0 1
    outer loop
      vertex 0 10 0
      vertex 1.58333 15 3.51571e-016
      vertex 0 20 0
    endloop
  endfacet
  facet normal 0 -1 0
    outer loop
      vertex 9.95106 15 -2.80902
      vertex 21.4122 15 -1.69098
      vertex 9.58778 15 -1.69098
    endloop
  endfacet
  facet normal 0 -1 0
    outer loop
      vertex 9.95106 15 -2.80902
      vertex 21.0489 15 -2.80902
      vertex 21.4122 15 -1.69098
    endloop
  endfacet
  facet normal 0 -1 0
    outer loop
      vertex 9.52308 15 -3.11996
      vertex 21.0489 15 -2.80902
      vertex 9.95106 15 -2.80902
    endloop
  endfacet
  facet normal 0 -1 0
    outer loop
      vertex 9.52308 15 -3.11996
      vertex 21.572 15 -3.18906
      vertex 21.0489 15 -2.80902
    endloop
  endfacet
  facet normal 0 -1 0
    outer loop
      vertex 9 15 -3.5
      vertex 21.572 15 -3.18906
      vertex 9.52308 15 -3.11996
    endloop
  endfacet
  facet normal 0 -1 -0
    outer loop
      vertex 21.572 15 -3.18906
      vertex 9 15 -3.5
      vertex 22 15 -3.5
    endloop
  endfacet
  facet normal 0 -1 0
    outer loop
      vertex 7 15 1.55431e-015
      vertex 8.04894 15 -2.80902
      vertex 8.41221 15 -1.69098
    endloop
  endfacet
  facet normal 0 -1 -0
    outer loop
      vertex 9 15 -3.5
      vertex 7 15 -5
      vertex 22 15 -3.5
    endloop
  endfacet
  facet normal 0 -1 -0
    outer loop
      vertex 8.57202 15 -3.18906
      vertex 7 15 -5
      vertex 9 15 -3.5
    endloop
  endfacet
  facet normal 0 -1 -0
    outer loop
      vertex 8.04894 15 -2.80902
      vertex 7 15 -5
      vertex 8.57202 15 -3.18906
    endloop
  endfacet
  facet normal 0 -1 0
    outer loop
      vertex 7 15 -5
      vertex 8.04894 15 -2.80902
      vertex 7 15 1.55431e-015
    endloop
  endfacet
  facet normal 0 -1 0
    outer loop
      vertex 9.58778 15 -1.69098
      vertex 7 15 1.55431e-015
      vertex 8.41221 15 -1.69098
    endloop
  endfacet
  facet normal 0 -1 0
    outer loop
      vertex 21.4122 15 -1.69098
      vertex 7 15 1.55431e-015
      vertex 9.58778 15 -1.69098
    endloop
  endfacet
  facet normal 0 -1 0
    outer loop
      vertex 7 15 1.55431e-015
      vertex 21.4122 15 -1.69098
      vertex 28 15 6.21725e-015
    endloop
  endfacet
  facet normal 0 -1 0
    outer loop
      vertex 22.5878 15 -1.69098
      vertex 28 15 6.21725e-015
      vertex 21.4122 15 -1.69098
    endloop
  endfacet
  facet normal 0 -1 0
    outer loop
      vertex 22.9511 15 -2.80902
      vertex 28 15 6.21725e-015
      vertex 22.5878 15 -1.69098
    endloop
  endfacet
  facet normal 0 -1 0
    outer loop
      vertex 28 15 -5
      vertex 22.9511 15 -2.80902
      vertex 22.5231 15 -3.11996
    endloop
  endfacet
  facet normal 0 -1 0
    outer loop
      vertex 28 15 -5
      vertex 22.5231 15 -3.11996
      vertex 22 15 -3.5
    endloop
  endfacet
  facet normal 0 -1 0
    outer loop
      vertex 22.9511 15 -2.80902
      vertex 28 15 -5
      vertex 28 15 6.21725e-015
    endloop
  endfacet
  facet normal 0 -1 0
    outer loop
      vertex 28 15 -5
      vertex 22 15 -3.5
      vertex 7 15 -5
    endloop
  endfacet
  facet normal 1 -0 0
    outer loop
      vertex 7 10 1.55431e-015
      vertex 7 15 -5
      vertex 7 15 1.55431e-015
    endloop
  endfacet
  facet normal 1 0 0
    outer loop
      vertex 7 15 -5
      vertex 7 10 1.55431e-015
      vertex 7 10 -5
    endloop
  endfacet
  facet normal 0.866025 -0.5 0
    outer loop
      vertex 1.58333 15 3.51571e-016
      vertex 2.45833 16.5155 -5
      vertex 2.45833 16.5155 5.4586e-016
    endloop
  endfacet
  facet normal 0.866025 -0.5 0
    outer loop
      vertex 2.45833 16.5155 -5
      vertex 1.58333 15 3.51571e-016
      vertex 1.58333 15 -5
    endloop
  endfacet
  facet normal -0.866025 0.5 0
    outer loop
      vertex 4.20833 13.4845 -5
      vertex 5.08333 15 1.12873e-015
      vertex 5.08333 15 -5
    endloop
  endfacet
  facet normal -0.866025 0.5 0
    outer loop
      vertex 5.08333 15 1.12873e-015
      vertex 4.20833 13.4845 -5
      vertex 4.20833 13.4845 9.34438e-016
    endloop
  endfacet
  facet normal 0 1 -0
    outer loop
      vertex 4.20833 13.4845 -5
      vertex 2.45833 13.4845 5.4586e-016
      vertex 4.20833 13.4845 9.34438e-016
    endloop
  endfacet
  facet normal 0 1 0
    outer loop
      vertex 2.45833 13.4845 5.4586e-016
      vertex 4.20833 13.4845 -5
      vertex 2.45833 13.4845 -5
    endloop
  endfacet
  facet normal -0.866025 -0.5 0
    outer loop
      vertex 5.08333 15 -5
      vertex 4.20833 16.5155 9.34438e-016
      vertex 4.20833 16.5155 -5
    endloop
  endfacet
  facet normal -0.866025 -0.5 0
    outer loop
      vertex 4.20833 16.5155 9.34438e-016
      vertex 5.08333 15 -5
      vertex 5.08333 15 1.12873e-015
    endloop
  endfacet
  facet normal 0 -1 0
    outer loop
      vertex 2.45833 16.5155 -5
      vertex 4.20833 16.5155 9.34438e-016
      vertex 2.45833 16.5155 5.4586e-016
    endloop
  endfacet
  facet normal 0 -1 -0
    outer loop
      vertex 4.20833 16.5155 9.34438e-016
      vertex 2.45833 16.5155 -5
      vertex 4.20833 16.5155 -5
    endloop
  endfacet
  facet normal 0.866025 0.5 0
    outer loop
      vertex 2.45833 13.4845 5.4586e-016
      vertex 1.58333 15 -5
      vertex 1.58333 15 3.51571e-016
    endloop
  endfacet
  facet normal 0.866025 0.5 0
    outer loop
      vertex 1.58333 15 -5
      vertex 2.45833 13.4845 5.4586e-016
      vertex 2.45833 13.4845 -5
    endloop
  endfacet
  facet normal -0.587786 0 0.809017
    outer loop
      vertex 9.57063 20 -3.08541
      vertex 9.95106 15 -2.80902
      vertex 9.95106 20 -2.80902
    endloop
  endfacet
  facet normal -0.587785 1.63409e-008 0.809017
    outer loop
      vertex 9.95106 15 -2.80902
      vertex 9.57063 20 -3.08541
      vertex 9.52308 15 -3.11996
    endloop
  endfacet
  facet normal -0.951056 0 -0.309017
    outer loop
      vertex 9.95106 15 -2.80902
      vertex 9.58778 20 -1.69098
      vertex 9.95106 20 -2.80902
    endloop
  endfacet
  facet normal -0.951056 -0 -0.309017
    outer loop
      vertex 9.58778 20 -1.69098
      vertex 9.95106 15 -2.80902
      vertex 9.58778 15 -1.69098
    endloop
  endfacet
  facet normal -0.587785 1.22557e-008 0.809017
    outer loop
      vertex 9 20 -3.5
      vertex 9.52308 15 -3.11996
      vertex 9.57063 20 -3.08541
    endloop
  endfacet
  facet normal -0.587785 0 0.809017
    outer loop
      vertex 9.52308 15 -3.11996
      vertex 9 20 -3.5
      vertex 9 15 -3.5
    endloop
  endfacet
  facet normal 0 0 -1
    outer loop
      vertex 8.41221 15 -1.69098
      vertex 9.58778 20 -1.69098
      vertex 9.58778 15 -1.69098
    endloop
  endfacet
  facet normal -0 0 -1
    outer loop
      vertex 9.58778 20 -1.69098
      vertex 8.41221 15 -1.69098
      vertex 8.41221 20 -1.69098
    endloop
  endfacet
  facet normal 0.951056 0 -0.309017
    outer loop
      vertex 8.41221 15 -1.69098
      vertex 8.04894 20 -2.80902
      vertex 8.41221 20 -1.69098
    endloop
  endfacet
  facet normal 0.951056 0 -0.309017
    outer loop
      vertex 8.04894 20 -2.80902
      vertex 8.41221 15 -1.69098
      vertex 8.04894 15 -2.80902
    endloop
  endfacet
  facet normal 0.587786 0 0.809017
    outer loop
      vertex 8.61958 20 -3.22361
      vertex 9 15 -3.5
      vertex 9 20 -3.5
    endloop
  endfacet
  facet normal 0.587785 -1.63409e-008 0.809017
    outer loop
      vertex 9 15 -3.5
      vertex 8.61958 20 -3.22361
      vertex 8.57202 15 -3.18906
    endloop
  endfacet
  facet normal 0.587786 -2.15983e-008 0.809017
    outer loop
      vertex 8.04894 20 -2.80902
      vertex 8.57202 15 -3.18906
      vertex 8.61958 20 -3.22361
    endloop
  endfacet
  facet normal 0.587786 0 0.809017
    outer loop
      vertex 8.57202 15 -3.18906
      vertex 8.04894 20 -2.80902
      vertex 8.04894 15 -2.80902
    endloop
  endfacet
  facet normal -0.587784 0 0.809018
    outer loop
      vertex 22.5706 20 -3.08541
      vertex 22.9511 15 -2.80902
      vertex 22.9511 20 -2.80902
    endloop
  endfacet
  facet normal -0.587785 -1.08227e-007 0.809017
    outer loop
      vertex 22.9511 15 -2.80902
      vertex 22.5706 20 -3.08541
      vertex 22.5231 15 -3.11996
    endloop
  endfacet
  facet normal -0.951056 0 -0.309019
    outer loop
      vertex 22.9511 15 -2.80902
      vertex 22.5878 20 -1.69098
      vertex 22.9511 20 -2.80902
    endloop
  endfacet
  facet normal -0.951056 -0 -0.309019
    outer loop
      vertex 22.5878 20 -1.69098
      vertex 22.9511 15 -2.80902
      vertex 22.5878 15 -1.69098
    endloop
  endfacet
  facet normal -0.587786 -8.11704e-008 0.809016
    outer loop
      vertex 22 20 -3.5
      vertex 22.5231 15 -3.11996
      vertex 22.5706 20 -3.08541
    endloop
  endfacet
  facet normal -0.587786 0 0.809017
    outer loop
      vertex 22.5231 15 -3.11996
      vertex 22 20 -3.5
      vertex 22 15 -3.5
    endloop
  endfacet
  facet normal 0 0 -1
    outer loop
      vertex 21.4122 15 -1.69098
      vertex 22.5878 20 -1.69098
      vertex 22.5878 15 -1.69098
    endloop
  endfacet
  facet normal -0 0 -1
    outer loop
      vertex 22.5878 20 -1.69098
      vertex 21.4122 15 -1.69098
      vertex 21.4122 20 -1.69098
    endloop
  endfacet
  facet normal 0.951056 0 -0.309017
    outer loop
      vertex 21.4122 15 -1.69098
      vertex 21.0489 20 -2.80902
      vertex 21.4122 20 -1.69098
    endloop
  endfacet
  facet normal 0.951056 0 -0.309017
    outer loop
      vertex 21.0489 20 -2.80902
      vertex 21.4122 15 -1.69098
      vertex 21.0489 15 -2.80902
    endloop
  endfacet
  facet normal 0.587784 0 0.809018
    outer loop
      vertex 21.6196 20 -3.22361
      vertex 22 15 -3.5
      vertex 22 20 -3.5
    endloop
  endfacet
  facet normal 0.587785 1.08227e-007 0.809017
    outer loop
      vertex 22 15 -3.5
      vertex 21.6196 20 -3.22361
      vertex 21.572 15 -3.18906
    endloop
  endfacet
  facet normal 0.587786 8.11704e-008 0.809016
    outer loop
      vertex 21.0489 20 -2.80902
      vertex 21.572 15 -3.18906
      vertex 21.6196 20 -3.22361
    endloop
  endfacet
  facet normal 0.587786 0 0.809017
    outer loop
      vertex 21.572 15 -3.18906
      vertex 21.0489 20 -2.80902
      vertex 21.0489 15 -2.80902
    endloop
  endfacet
  facet normal 0.809018 -0.587783 0
    outer loop
      vertex 24.691 18.4511 5.4825e-015
      vertex 24.3628 17.9993 -5
      vertex 24.691 18.4511 -5
    endloop
  endfacet
  facet normal 0.809017 -0.587785 1.84271e-007
    outer loop
      vertex 24.3628 17.9993 -5
      vertex 24.691 18.4511 5.4825e-015
      vertex 24.3282 17.9518 5.40195e-015
    endloop
  endfacet
  facet normal 0.809017 -0.587785 1.80066e-007
    outer loop
      vertex 24 17.5 5.32907e-015
      vertex 24.3628 17.9993 -5
      vertex 24.3282 17.9518 5.40195e-015
    endloop
  endfacet
  facet normal 0.809016 -0.587786 0
    outer loop
      vertex 24.3628 17.9993 -5
      vertex 24 17.5 5.32907e-015
      vertex 24 17.5 -5
    endloop
  endfacet
  facet normal -1 0 0
    outer loop
      vertex 25.809 16.9122 -5
      vertex 25.809 18.0878 5.73075e-015
      vertex 25.809 18.0878 -5
    endloop
  endfacet
  facet normal -1 -0 0
    outer loop
      vertex 25.809 18.0878 5.73075e-015
      vertex 25.809 16.9122 -5
      vertex 25.809 16.9122 5.73075e-015
    endloop
  endfacet
  facet normal -0.309019 -0.951056 0
    outer loop
      vertex 24.691 18.4511 -5
      vertex 25.809 18.0878 5.73075e-015
      vertex 24.691 18.4511 5.4825e-015
    endloop
  endfacet
  facet normal -0.309019 -0.951056 -0
    outer loop
      vertex 25.809 18.0878 5.73075e-015
      vertex 24.691 18.4511 -5
      vertex 25.809 18.0878 -5
    endloop
  endfacet
  facet normal 0.809017 0.587785 0
    outer loop
      vertex 24.3282 17.0482 5.40195e-015
      vertex 24 17.5 -5
      vertex 24 17.5 5.32907e-015
    endloop
  endfacet
  facet normal 0.809017 0.587785 -3.9951e-008
    outer loop
      vertex 24 17.5 -5
      vertex 24.3282 17.0482 5.40195e-015
      vertex 24.3628 17.0007 -5
    endloop
  endfacet
  facet normal 0.809017 0.587785 -3.9951e-008
    outer loop
      vertex 24.691 16.5489 5.4825e-015
      vertex 24.3628 17.0007 -5
      vertex 24.3282 17.0482 5.40195e-015
    endloop
  endfacet
  facet normal 0.809017 0.587785 0
    outer loop
      vertex 24.3628 17.0007 -5
      vertex 24.691 16.5489 5.4825e-015
      vertex 24.691 16.5489 -5
    endloop
  endfacet
  facet normal -0.309017 0.951056 0
    outer loop
      vertex 25.809 16.9122 -5
      vertex 24.691 16.5489 5.4825e-015
      vertex 25.809 16.9122 5.73075e-015
    endloop
  endfacet
  facet normal -0.309017 0.951056 0
    outer loop
      vertex 24.691 16.5489 5.4825e-015
      vertex 25.809 16.9122 -5
      vertex 24.691 16.5489 -5
    endloop
  endfacet
  facet normal 1 -0 0
    outer loop
      vertex 28 15 6.21725e-015
      vertex 28 20 -5
      vertex 28 20 6.21725e-015
    endloop
  endfacet
  facet normal 1 0 0
    outer loop
      vertex 28 20 -5
      vertex 28 15 6.21725e-015
      vertex 28 15 -5
    endloop
  endfacet
  facet normal 0 0 -1
    outer loop
      vertex 4.20833 13.4845 -5
      vertex 7 15 -5
      vertex 7 10 -5
    endloop
  endfacet
  facet normal -0 0 -1
    outer loop
      vertex 7 15 -5
      vertex 4.20833 13.4845 -5
      vertex 5.08333 15 -5
    endloop
  endfacet
  facet normal 0 0 -1
    outer loop
      vertex 1.11022e-015 10 -5
      vertex 4.20833 13.4845 -5
      vertex 7 10 -5
    endloop
  endfacet
  facet normal -0 0 -1
    outer loop
      vertex 2.45833 13.4845 -5
      vertex 1.11022e-015 10 -5
      vertex 1.58333 15 -5
    endloop
  endfacet
  facet normal -0 0 -1
    outer loop
      vertex 4.20833 13.4845 -5
      vertex 1.11022e-015 10 -5
      vertex 2.45833 13.4845 -5
    endloop
  endfacet
  facet normal 0 0 -1
    outer loop
      vertex 28 15 -5
      vertex 25.809 16.9122 -5
      vertex 28 20 -5
    endloop
  endfacet
  facet normal 0 0 -1
    outer loop
      vertex 28 15 -5
      vertex 24.691 16.5489 -5
      vertex 25.809 16.9122 -5
    endloop
  endfacet
  facet normal -0 0 -1
    outer loop
      vertex 24.3628 17.0007 -5
      vertex 7 15 -5
      vertex 24 17.5 -5
    endloop
  endfacet
  facet normal -0 0 -1
    outer loop
      vertex 24.691 16.5489 -5
      vertex 7 15 -5
      vertex 24.3628 17.0007 -5
    endloop
  endfacet
  facet normal 0 0 -1
    outer loop
      vertex 7 15 -5
      vertex 24.691 16.5489 -5
      vertex 28 15 -5
    endloop
  endfacet
  facet normal 0 0 -1
    outer loop
      vertex 25.809 18.0878 -5
      vertex 28 20 -5
      vertex 25.809 16.9122 -5
    endloop
  endfacet
  facet normal 0 0 -1
    outer loop
      vertex 24.691 18.4511 -5
      vertex 28 20 -5
      vertex 25.809 18.0878 -5
    endloop
  endfacet
  facet normal 0 0 -1
    outer loop
      vertex 7 15 -5
      vertex 24.3628 17.9993 -5
      vertex 24 17.5 -5
    endloop
  endfacet
  facet normal -0 0 -1
    outer loop
      vertex 24.3628 17.9993 -5
      vertex 7 15 -5
      vertex 24.691 18.4511 -5
    endloop
  endfacet
  facet normal 0 0 -1
    outer loop
      vertex 4.20833 16.5155 -5
      vertex 24.691 18.4511 -5
      vertex 7 15 -5
    endloop
  endfacet
  facet normal 0 0 -1
    outer loop
      vertex 4.20833 16.5155 -5
      vertex 7 15 -5
      vertex 5.08333 15 -5
    endloop
  endfacet
  facet normal 0 0 -1
    outer loop
      vertex 1.11022e-015 20 -5
      vertex 24.691 18.4511 -5
      vertex 4.20833 16.5155 -5
    endloop
  endfacet
  facet normal 0 0 -1
    outer loop
      vertex 1.11022e-015 20 -5
      vertex 4.20833 16.5155 -5
      vertex 2.45833 16.5155 -5
    endloop
  endfacet
  facet normal 0 0 -1
    outer loop
      vertex 24.691 18.4511 -5
      vertex 1.11022e-015 20 -5
      vertex 28 20 -5
    endloop
  endfacet
  facet normal 0 0 -1
    outer loop
      vertex 1.58333 15 -5
      vertex 1.11022e-015 20 -5
      vertex 2.45833 16.5155 -5
    endloop
  endfacet
  facet normal 0 0 -1
    outer loop
      vertex 1.11022e-015 20 -5
      vertex 1.58333 15 -5
      vertex 1.11022e-015 10 -5
    endloop
  endfacet
  facet normal 0 1 -0
    outer loop
      vertex 21.0489 20 -2.80902
      vertex 9.58778 20 -1.69098
      vertex 21.4122 20 -1.69098
    endloop
  endfacet
  facet normal 0 1 0
    outer loop
      vertex 21.0489 20 -2.80902
      vertex 9.95106 20 -2.80902
      vertex 9.58778 20 -1.69098
    endloop
  endfacet
  facet normal 0 1 0
    outer loop
      vertex 21.0489 20 -2.80902
      vertex 9.57063 20 -3.08541
      vertex 9.95106 20 -2.80902
    endloop
  endfacet
  facet normal 0 1 0
    outer loop
      vertex 21.6196 20 -3.22361
      vertex 9.57063 20 -3.08541
      vertex 21.0489 20 -2.80902
    endloop
  endfacet
  facet normal 0 1 0
    outer loop
      vertex 9 20 -3.5
      vertex 21.6196 20 -3.22361
      vertex 22 20 -3.5
    endloop
  endfacet
  facet normal 0 1 0
    outer loop
      vertex 21.6196 20 -3.22361
      vertex 9 20 -3.5
      vertex 9.57063 20 -3.08541
    endloop
  endfacet
  facet normal 0 1 0
    outer loop
      vertex 21.4122 20 -1.69098
      vertex 28 20 6.21725e-015
      vertex 22.5878 20 -1.69098
    endloop
  endfacet
  facet normal 0 1 0
    outer loop
      vertex 28 20 6.21725e-015
      vertex 22.9511 20 -2.80902
      vertex 22.5878 20 -1.69098
    endloop
  endfacet
  facet normal 0 1 -0
    outer loop
      vertex 28 20 -5
      vertex 22.9511 20 -2.80902
      vertex 28 20 6.21725e-015
    endloop
  endfacet
  facet normal 0 1 0
    outer loop
      vertex 22.9511 20 -2.80902
      vertex 28 20 -5
      vertex 22.5706 20 -3.08541
    endloop
  endfacet
  facet normal 0 1 0
    outer loop
      vertex 22 20 -3.5
      vertex 28 20 -5
      vertex 9 20 -3.5
    endloop
  endfacet
  facet normal 0 1 0
    outer loop
      vertex 22.5706 20 -3.08541
      vertex 28 20 -5
      vertex 22 20 -3.5
    endloop
  endfacet
  facet normal 0 1 0
    outer loop
      vertex 9.58778 20 -1.69098
      vertex 28 20 6.21725e-015
      vertex 21.4122 20 -1.69098
    endloop
  endfacet
  facet normal 0 1 0
    outer loop
      vertex 28 20 6.21725e-015
      vertex 9.58778 20 -1.69098
      vertex 0 20 0
    endloop
  endfacet
  facet normal 0 1 -0
    outer loop
      vertex 8.41221 20 -1.69098
      vertex 0 20 0
      vertex 9.58778 20 -1.69098
    endloop
  endfacet
  facet normal 0 1 -0
    outer loop
      vertex 8.04894 20 -2.80902
      vertex 0 20 0
      vertex 8.41221 20 -1.69098
    endloop
  endfacet
  facet normal 0 1 0
    outer loop
      vertex 1.11022e-015 20 -5
      vertex 8.04894 20 -2.80902
      vertex 8.61958 20 -3.22361
    endloop
  endfacet
  facet normal 0 1 0
    outer loop
      vertex 1.11022e-015 20 -5
      vertex 8.61958 20 -3.22361
      vertex 9 20 -3.5
    endloop
  endfacet
  facet normal 0 1 0
    outer loop
      vertex 8.04894 20 -2.80902
      vertex 1.11022e-015 20 -5
      vertex 0 20 0
    endloop
  endfacet
  facet normal 0 1 0
    outer loop
      vertex 1.11022e-015 20 -5
      vertex 9 20 -3.5
      vertex 28 20 -5
    endloop
  endfacet
  facet normal -1 0 -2.22045e-016
    outer loop
      vertex 1.11022e-015 10 -5
      vertex 0 20 0
      vertex 1.11022e-015 20 -5
    endloop
  endfacet
  facet normal -1 -0 -2.22045e-016
    outer loop
      vertex 0 20 0
      vertex 1.11022e-015 10 -5
      vertex 0 10 0
    endloop
  endfacet
  facet normal 0 -1 0
    outer loop
      vertex 1.11022e-015 10 -5
      vertex 7 10 1.55431e-015
      vertex 0 10 0
    endloop
  endfacet
  facet normal 0 -1 -0
    outer loop
      vertex 7 10 1.55431e-015
      vertex 1.11022e-015 10 -5
      vertex 7 10 -5
    endloop
  endfacet
endsolid OpenSCAD_Model
