solid OpenSCAD_Model
  facet normal 1 0 0
    outer loop
      vertex -13.5 5 15.5
      vertex -13.5 1.94986 11.7784
      vertex -13.5 5 5.5
    endloop
  endfacet
  facet normal 1 0 0
    outer loop
      vertex -13.5 5 15.5
      vertex -13.5 0.867767 13.1353
      vertex -13.5 1.94986 11.7784
    endloop
  endfacet
  facet normal 1 0 0
    outer loop
      vertex -13.5 5 15.5
      vertex -13.5 -0.867767 13.1353
      vertex -13.5 0.867767 13.1353
    endloop
  endfacet
  facet normal 1 0 0
    outer loop
      vertex -13.5 -0.867767 13.1353
      vertex -13.5 -5 15.5
      vertex -13.5 -1.94986 11.7784
    endloop
  endfacet
  facet normal 1 -0 0
    outer loop
      vertex -13.5 -5 15.5
      vertex -13.5 -0.867767 13.1353
      vertex -13.5 5 15.5
    endloop
  endfacet
  facet normal 1 -0 0
    outer loop
      vertex -13.5 1.56366 10.0864
      vertex -13.5 5 5.5
      vertex -13.5 1.94986 11.7784
    endloop
  endfacet
  facet normal 1 -0 0
    outer loop
      vertex -13.5 1.30625e-015 9.33333
      vertex -13.5 5 5.5
      vertex -13.5 1.56366 10.0864
    endloop
  endfacet
  facet normal 1 0 0
    outer loop
      vertex -13.5 -5 5.5
      vertex -13.5 1.30625e-015 9.33333
      vertex -13.5 -1.56366 10.0864
    endloop
  endfacet
  facet normal 1 0 0
    outer loop
      vertex -13.5 -5 5.5
      vertex -13.5 -1.94986 11.7784
      vertex -13.5 -5 15.5
    endloop
  endfacet
  facet normal 1 0 0
    outer loop
      vertex -13.5 1.30625e-015 9.33333
      vertex -13.5 -5 5.5
      vertex -13.5 5 5.5
    endloop
  endfacet
  facet normal 1 0 0
    outer loop
      vertex -13.5 -1.94986 11.7784
      vertex -13.5 -5 5.5
      vertex -13.5 -1.56366 10.0864
    endloop
  endfacet
  facet normal -1 0 0
    outer loop
      vertex 13.5 5 5.5
      vertex 13.5 1.94986 11.7784
      vertex 13.5 5 15.5
    endloop
  endfacet
  facet normal -1 0 0
    outer loop
      vertex 13.5 5 5.5
      vertex 13.5 1.56366 10.0864
      vertex 13.5 1.94986 11.7784
    endloop
  endfacet
  facet normal -1 0 0
    outer loop
      vertex 13.5 5 5.5
      vertex 13.5 1.30625e-015 9.33333
      vertex 13.5 1.56366 10.0864
    endloop
  endfacet
  facet normal -1 0 0
    outer loop
      vertex 13.5 -5 5.5
      vertex 13.5 1.30625e-015 9.33333
      vertex 13.5 5 5.5
    endloop
  endfacet
  facet normal -1 -0 0
    outer loop
      vertex 13.5 -1.56366 10.0864
      vertex 13.5 -5 5.5
      vertex 13.5 -1.94986 11.7784
    endloop
  endfacet
  facet normal -1 -0 0
    outer loop
      vertex 13.5 1.30625e-015 9.33333
      vertex 13.5 -5 5.5
      vertex 13.5 -1.56366 10.0864
    endloop
  endfacet
  facet normal -1 0 0
    outer loop
      vertex 13.5 0.867767 13.1353
      vertex 13.5 5 15.5
      vertex 13.5 1.94986 11.7784
    endloop
  endfacet
  facet normal -1 0 0
    outer loop
      vertex 13.5 -0.867767 13.1353
      vertex 13.5 5 15.5
      vertex 13.5 0.867767 13.1353
    endloop
  endfacet
  facet normal -1 0 0
    outer loop
      vertex 13.5 -0.867767 13.1353
      vertex 13.5 -5 15.5
      vertex 13.5 5 15.5
    endloop
  endfacet
  facet normal -1 0 0
    outer loop
      vertex 13.5 -1.94986 11.7784
      vertex 13.5 -5 15.5
      vertex 13.5 -0.867767 13.1353
    endloop
  endfacet
  facet normal -1 0 0
    outer loop
      vertex 13.5 -5 15.5
      vertex 13.5 -1.94986 11.7784
      vertex 13.5 -5 5.5
    endloop
  endfacet
  facet normal 0 1 0
    outer loop
      vertex 17.5 5 15.5
      vertex 13.5 5 5.5
      vertex 13.5 5 15.5
    endloop
  endfacet
  facet normal 0 1 0
    outer loop
      vertex 13.5 5 5.5
      vertex 17.5 5 0.5
      vertex -13.5 5 5.5
    endloop
  endfacet
  facet normal 0 1 -0
    outer loop
      vertex 17.5 5 0.5
      vertex 13.5 5 5.5
      vertex 17.5 5 15.5
    endloop
  endfacet
  facet normal 0 1 -0
    outer loop
      vertex -13.5 5 5.5
      vertex -17.5 5 15.5
      vertex -13.5 5 15.5
    endloop
  endfacet
  facet normal 0 1 0
    outer loop
      vertex -13.5 5 5.5
      vertex -17.5 5 0.5
      vertex -17.5 5 15.5
    endloop
  endfacet
  facet normal 0 1 0
    outer loop
      vertex -17.5 5 0.5
      vertex -13.5 5 5.5
      vertex 17.5 5 0.5
    endloop
  endfacet
  facet normal 0 0 1
    outer loop
      vertex 13.5 5 5.5
      vertex 6.75 3.67382e-016 5.5
      vertex 13.5 -5 5.5
    endloop
  endfacet
  facet normal 0 0 1
    outer loop
      vertex 13.5 5 5.5
      vertex 5.875 1.51554 5.5
      vertex 6.75 3.67382e-016 5.5
    endloop
  endfacet
  facet normal 0 0 1
    outer loop
      vertex 13.5 5 5.5
      vertex 4.125 1.51554 5.5
      vertex 5.875 1.51554 5.5
    endloop
  endfacet
  facet normal 0 0 1
    outer loop
      vertex 4.125 1.51554 5.5
      vertex -3.25 3.67382e-016 5.5
      vertex 3.25 3.67382e-016 5.5
    endloop
  endfacet
  facet normal 0 0 1
    outer loop
      vertex -4.125 1.51554 5.5
      vertex 4.125 1.51554 5.5
      vertex 13.5 5 5.5
    endloop
  endfacet
  facet normal 0 0 1
    outer loop
      vertex 4.125 1.51554 5.5
      vertex -4.125 1.51554 5.5
      vertex -3.25 3.67382e-016 5.5
    endloop
  endfacet
  facet normal -0 0 1
    outer loop
      vertex -13.5 5 5.5
      vertex -4.125 1.51554 5.5
      vertex 13.5 5 5.5
    endloop
  endfacet
  facet normal 0 0 1
    outer loop
      vertex -5.875 1.51554 5.5
      vertex -13.5 5 5.5
      vertex -6.75 3.67382e-016 5.5
    endloop
  endfacet
  facet normal 0 0 1
    outer loop
      vertex -4.125 1.51554 5.5
      vertex -13.5 5 5.5
      vertex -5.875 1.51554 5.5
    endloop
  endfacet
  facet normal -0 0 1
    outer loop
      vertex 5.875 -1.51554 5.5
      vertex 13.5 -5 5.5
      vertex 6.75 3.67382e-016 5.5
    endloop
  endfacet
  facet normal -0 0 1
    outer loop
      vertex 4.125 -1.51554 5.5
      vertex 13.5 -5 5.5
      vertex 5.875 -1.51554 5.5
    endloop
  endfacet
  facet normal -0 0 1
    outer loop
      vertex -3.25 3.67382e-016 5.5
      vertex 4.125 -1.51554 5.5
      vertex 3.25 3.67382e-016 5.5
    endloop
  endfacet
  facet normal 0 0 1
    outer loop
      vertex -4.125 -1.51554 5.5
      vertex 4.125 -1.51554 5.5
      vertex -3.25 3.67382e-016 5.5
    endloop
  endfacet
  facet normal 0 0 1
    outer loop
      vertex 4.125 -1.51554 5.5
      vertex -4.125 -1.51554 5.5
      vertex 13.5 -5 5.5
    endloop
  endfacet
  facet normal 0 0 1
    outer loop
      vertex -13.5 -5 5.5
      vertex -4.125 -1.51554 5.5
      vertex -5.875 -1.51554 5.5
    endloop
  endfacet
  facet normal 0 0 1
    outer loop
      vertex -13.5 -5 5.5
      vertex -6.75 3.67382e-016 5.5
      vertex -13.5 5 5.5
    endloop
  endfacet
  facet normal 0 0 1
    outer loop
      vertex -4.125 -1.51554 5.5
      vertex -13.5 -5 5.5
      vertex 13.5 -5 5.5
    endloop
  endfacet
  facet normal 0 0 1
    outer loop
      vertex -6.75 3.67382e-016 5.5
      vertex -13.5 -5 5.5
      vertex -5.875 -1.51554 5.5
    endloop
  endfacet
  facet normal 0 -1 0
    outer loop
      vertex -17.5 -5 15.5
      vertex -13.5 -5 5.5
      vertex -13.5 -5 15.5
    endloop
  endfacet
  facet normal 0 -1 -0
    outer loop
      vertex -13.5 -5 5.5
      vertex -17.5 -5 0.5
      vertex 13.5 -5 5.5
    endloop
  endfacet
  facet normal 0 -1 0
    outer loop
      vertex -17.5 -5 0.5
      vertex -13.5 -5 5.5
      vertex -17.5 -5 15.5
    endloop
  endfacet
  facet normal 0 -1 0
    outer loop
      vertex 13.5 -5 5.5
      vertex 17.5 -5 15.5
      vertex 13.5 -5 15.5
    endloop
  endfacet
  facet normal 0 -1 0
    outer loop
      vertex 13.5 -5 5.5
      vertex 17.5 -5 0.5
      vertex 17.5 -5 15.5
    endloop
  endfacet
  facet normal 0 -1 0
    outer loop
      vertex 17.5 -5 0.5
      vertex 13.5 -5 5.5
      vertex -17.5 -5 0.5
    endloop
  endfacet
  facet normal -0.866025 -0.5 0
    outer loop
      vertex -4.125 1.51554 0.5
      vertex -3.25 3.67382e-016 5.5
      vertex -4.125 1.51554 5.5
    endloop
  endfacet
  facet normal -0.866025 -0.5 1.22461e-016
    outer loop
      vertex -3.25 3.67382e-016 5.5
      vertex -4.125 1.51554 0.5
      vertex -3.25 -8.57224e-016 0.5
    endloop
  endfacet
  facet normal 0.866025 -0.5 0
    outer loop
      vertex -6.75 3.67382e-016 5.5
      vertex -5.875 1.51554 0.5
      vertex -5.875 1.51554 5.5
    endloop
  endfacet
  facet normal 0.866025 -0.5 1.52259e-016
    outer loop
      vertex -5.875 1.51554 0.5
      vertex -6.75 3.67382e-016 5.5
      vertex -6.75 -8.57224e-016 0.5
    endloop
  endfacet
  facet normal 0 -1 0
    outer loop
      vertex -5.875 1.51554 0.5
      vertex -4.125 1.51554 5.5
      vertex -5.875 1.51554 5.5
    endloop
  endfacet
  facet normal 0 -1 -0
    outer loop
      vertex -4.125 1.51554 5.5
      vertex -5.875 1.51554 0.5
      vertex -4.125 1.51554 0.5
    endloop
  endfacet
  facet normal 0.866025 0.5 -1.52259e-016
    outer loop
      vertex -5.875 -1.51554 5.5
      vertex -6.75 -8.57224e-016 0.5
      vertex -6.75 3.67382e-016 5.5
    endloop
  endfacet
  facet normal 0.866025 0.5 0
    outer loop
      vertex -6.75 -8.57224e-016 0.5
      vertex -5.875 -1.51554 5.5
      vertex -5.875 -1.51554 0.5
    endloop
  endfacet
  facet normal -0.866025 0.5 -1.52259e-016
    outer loop
      vertex -4.125 -1.51554 0.5
      vertex -3.25 3.67382e-016 5.5
      vertex -3.25 -8.57224e-016 0.5
    endloop
  endfacet
  facet normal -0.866025 0.5 0
    outer loop
      vertex -3.25 3.67382e-016 5.5
      vertex -4.125 -1.51554 0.5
      vertex -4.125 -1.51554 5.5
    endloop
  endfacet
  facet normal 0 1 -0
    outer loop
      vertex -4.125 -1.51554 0.5
      vertex -5.875 -1.51554 5.5
      vertex -4.125 -1.51554 5.5
    endloop
  endfacet
  facet normal 0 1 0
    outer loop
      vertex -5.875 -1.51554 5.5
      vertex -4.125 -1.51554 0.5
      vertex -5.875 -1.51554 0.5
    endloop
  endfacet
  facet normal -0.866025 -0.5 0
    outer loop
      vertex 5.875 1.51554 0.5
      vertex 6.75 3.67382e-016 5.5
      vertex 5.875 1.51554 5.5
    endloop
  endfacet
  facet normal -0.866025 -0.5 1.22461e-016
    outer loop
      vertex 6.75 3.67382e-016 5.5
      vertex 5.875 1.51554 0.5
      vertex 6.75 -8.57224e-016 0.5
    endloop
  endfacet
  facet normal 0.866026 0.5 -1.26883e-016
    outer loop
      vertex 4.125 -1.51554 5.5
      vertex 3.25 -8.57224e-016 0.5
      vertex 3.25 3.67382e-016 5.5
    endloop
  endfacet
  facet normal 0.866026 0.5 0
    outer loop
      vertex 3.25 -8.57224e-016 0.5
      vertex 4.125 -1.51554 5.5
      vertex 4.125 -1.51554 0.5
    endloop
  endfacet
  facet normal 0 -1 0
    outer loop
      vertex 4.125 1.51554 0.5
      vertex 5.875 1.51554 5.5
      vertex 4.125 1.51554 5.5
    endloop
  endfacet
  facet normal 0 -1 -0
    outer loop
      vertex 5.875 1.51554 5.5
      vertex 4.125 1.51554 0.5
      vertex 5.875 1.51554 0.5
    endloop
  endfacet
  facet normal 0 1 -0
    outer loop
      vertex 5.875 -1.51554 0.5
      vertex 4.125 -1.51554 5.5
      vertex 5.875 -1.51554 5.5
    endloop
  endfacet
  facet normal 0 1 0
    outer loop
      vertex 4.125 -1.51554 5.5
      vertex 5.875 -1.51554 0.5
      vertex 4.125 -1.51554 0.5
    endloop
  endfacet
  facet normal 0.866025 -0.5 0
    outer loop
      vertex 3.25 3.67382e-016 5.5
      vertex 4.125 1.51554 0.5
      vertex 4.125 1.51554 5.5
    endloop
  endfacet
  facet normal 0.866025 -0.5 1.52259e-016
    outer loop
      vertex 4.125 1.51554 0.5
      vertex 3.25 3.67382e-016 5.5
      vertex 3.25 -8.57224e-016 0.5
    endloop
  endfacet
  facet normal -0.866025 0.5 -1.52259e-016
    outer loop
      vertex 5.875 -1.51554 0.5
      vertex 6.75 3.67382e-016 5.5
      vertex 6.75 -8.57224e-016 0.5
    endloop
  endfacet
  facet normal -0.866025 0.5 0
    outer loop
      vertex 6.75 3.67382e-016 5.5
      vertex 5.875 -1.51554 0.5
      vertex 5.875 -1.51554 5.5
    endloop
  endfacet
  facet normal 0 -0.433884 0.900969
    outer loop
      vertex -17.5 1.56366 10.0864
      vertex -13.5 1.30625e-015 9.33333
      vertex -13.5 1.56366 10.0864
    endloop
  endfacet
  facet normal 0 -0.433884 0.900969
    outer loop
      vertex -13.5 1.30625e-015 9.33333
      vertex -17.5 1.56366 10.0864
      vertex -17.5 1.30625e-015 9.33333
    endloop
  endfacet
  facet normal 0 -0.433884 0.900969
    outer loop
      vertex 13.5 1.56366 10.0864
      vertex 17.5 1.30625e-015 9.33333
      vertex 17.5 1.56366 10.0864
    endloop
  endfacet
  facet normal 0 -0.433884 0.900969
    outer loop
      vertex 17.5 1.30625e-015 9.33333
      vertex 13.5 1.56366 10.0864
      vertex 13.5 1.30625e-015 9.33333
    endloop
  endfacet
  facet normal 0 0 -1
    outer loop
      vertex -17.5 -0.867767 13.1353
      vertex -13.5 0.867767 13.1353
      vertex -13.5 -0.867767 13.1353
    endloop
  endfacet
  facet normal -0 0 -1
    outer loop
      vertex -13.5 0.867767 13.1353
      vertex -17.5 -0.867767 13.1353
      vertex -17.5 0.867767 13.1353
    endloop
  endfacet
  facet normal 0 0 -1
    outer loop
      vertex 13.5 -0.867767 13.1353
      vertex 17.5 0.867767 13.1353
      vertex 17.5 -0.867767 13.1353
    endloop
  endfacet
  facet normal -0 0 -1
    outer loop
      vertex 17.5 0.867767 13.1353
      vertex 13.5 -0.867767 13.1353
      vertex 13.5 0.867767 13.1353
    endloop
  endfacet
  facet normal 0 -0.974928 0.222521
    outer loop
      vertex -17.5 1.56366 10.0864
      vertex -13.5 1.94986 11.7784
      vertex -17.5 1.94986 11.7784
    endloop
  endfacet
  facet normal 0 -0.974928 0.222521
    outer loop
      vertex -13.5 1.94986 11.7784
      vertex -17.5 1.56366 10.0864
      vertex -13.5 1.56366 10.0864
    endloop
  endfacet
  facet normal 0 -0.974928 0.222521
    outer loop
      vertex 13.5 1.56366 10.0864
      vertex 17.5 1.94986 11.7784
      vertex 13.5 1.94986 11.7784
    endloop
  endfacet
  facet normal 0 -0.974928 0.222521
    outer loop
      vertex 17.5 1.94986 11.7784
      vertex 13.5 1.56366 10.0864
      vertex 17.5 1.56366 10.0864
    endloop
  endfacet
  facet normal 0 -0.781831 -0.62349
    outer loop
      vertex -17.5 1.94986 11.7784
      vertex -13.5 0.867767 13.1353
      vertex -17.5 0.867767 13.1353
    endloop
  endfacet
  facet normal 0 -0.781831 -0.62349
    outer loop
      vertex -13.5 0.867767 13.1353
      vertex -17.5 1.94986 11.7784
      vertex -13.5 1.94986 11.7784
    endloop
  endfacet
  facet normal 0 -0.781831 -0.62349
    outer loop
      vertex 13.5 1.94986 11.7784
      vertex 17.5 0.867767 13.1353
      vertex 13.5 0.867767 13.1353
    endloop
  endfacet
  facet normal 0 -0.781831 -0.62349
    outer loop
      vertex 17.5 0.867767 13.1353
      vertex 13.5 1.94986 11.7784
      vertex 17.5 1.94986 11.7784
    endloop
  endfacet
  facet normal -0 0.433884 0.900969
    outer loop
      vertex -17.5 1.30625e-015 9.33333
      vertex -13.5 -1.56366 10.0864
      vertex -13.5 1.30625e-015 9.33333
    endloop
  endfacet
  facet normal 0 0.433884 0.900969
    outer loop
      vertex -13.5 -1.56366 10.0864
      vertex -17.5 1.30625e-015 9.33333
      vertex -17.5 -1.56366 10.0864
    endloop
  endfacet
  facet normal -0 0.433884 0.900969
    outer loop
      vertex 13.5 1.30625e-015 9.33333
      vertex 17.5 -1.56366 10.0864
      vertex 17.5 1.30625e-015 9.33333
    endloop
  endfacet
  facet normal 0 0.433884 0.900969
    outer loop
      vertex 17.5 -1.56366 10.0864
      vertex 13.5 1.30625e-015 9.33333
      vertex 13.5 -1.56366 10.0864
    endloop
  endfacet
  facet normal 0 0.974928 0.222521
    outer loop
      vertex -13.5 -1.56366 10.0864
      vertex -17.5 -1.94986 11.7784
      vertex -13.5 -1.94986 11.7784
    endloop
  endfacet
  facet normal 0 0.974928 0.222521
    outer loop
      vertex -17.5 -1.94986 11.7784
      vertex -13.5 -1.56366 10.0864
      vertex -17.5 -1.56366 10.0864
    endloop
  endfacet
  facet normal 0 0.974928 0.222521
    outer loop
      vertex 17.5 -1.56366 10.0864
      vertex 13.5 -1.94986 11.7784
      vertex 17.5 -1.94986 11.7784
    endloop
  endfacet
  facet normal 0 0.974928 0.222521
    outer loop
      vertex 13.5 -1.94986 11.7784
      vertex 17.5 -1.56366 10.0864
      vertex 13.5 -1.56366 10.0864
    endloop
  endfacet
  facet normal 0 0.781831 -0.62349
    outer loop
      vertex -13.5 -1.94986 11.7784
      vertex -17.5 -0.867767 13.1353
      vertex -13.5 -0.867767 13.1353
    endloop
  endfacet
  facet normal 0 0.781831 -0.62349
    outer loop
      vertex -17.5 -0.867767 13.1353
      vertex -13.5 -1.94986 11.7784
      vertex -17.5 -1.94986 11.7784
    endloop
  endfacet
  facet normal 0 0.781831 -0.62349
    outer loop
      vertex 17.5 -1.94986 11.7784
      vertex 13.5 -0.867767 13.1353
      vertex 17.5 -0.867767 13.1353
    endloop
  endfacet
  facet normal 0 0.781831 -0.62349
    outer loop
      vertex 13.5 -0.867767 13.1353
      vertex 17.5 -1.94986 11.7784
      vertex 13.5 -1.94986 11.7784
    endloop
  endfacet
  facet normal -1 0 0
    outer loop
      vertex -17.5 1.56366 10.0864
      vertex -17.5 5 15.5
      vertex -17.5 5 0.5
    endloop
  endfacet
  facet normal -1 0 0
    outer loop
      vertex -17.5 5 15.5
      vertex -17.5 1.56366 10.0864
      vertex -17.5 1.94986 11.7784
    endloop
  endfacet
  facet normal -1 0 0
    outer loop
      vertex -17.5 5 0.5
      vertex -17.5 1.30625e-015 9.33333
      vertex -17.5 1.56366 10.0864
    endloop
  endfacet
  facet normal -1 0 0
    outer loop
      vertex -17.5 -5 0.5
      vertex -17.5 1.30625e-015 9.33333
      vertex -17.5 5 0.5
    endloop
  endfacet
  facet normal -1 0 0
    outer loop
      vertex -17.5 -5 15.5
      vertex -17.5 -1.56366 10.0864
      vertex -17.5 -5 0.5
    endloop
  endfacet
  facet normal -1 -0 0
    outer loop
      vertex -17.5 1.30625e-015 9.33333
      vertex -17.5 -5 0.5
      vertex -17.5 -1.56366 10.0864
    endloop
  endfacet
  facet normal -1 0 0
    outer loop
      vertex -17.5 0.867767 13.1353
      vertex -17.5 5 15.5
      vertex -17.5 1.94986 11.7784
    endloop
  endfacet
  facet normal -1 0 0
    outer loop
      vertex -17.5 -0.867767 13.1353
      vertex -17.5 5 15.5
      vertex -17.5 0.867767 13.1353
    endloop
  endfacet
  facet normal -1 0 0
    outer loop
      vertex -17.5 -0.867767 13.1353
      vertex -17.5 -5 15.5
      vertex -17.5 5 15.5
    endloop
  endfacet
  facet normal -1 0 0
    outer loop
      vertex -17.5 -1.94986 11.7784
      vertex -17.5 -5 15.5
      vertex -17.5 -0.867767 13.1353
    endloop
  endfacet
  facet normal -1 0 0
    outer loop
      vertex -17.5 -1.56366 10.0864
      vertex -17.5 -5 15.5
      vertex -17.5 -1.94986 11.7784
    endloop
  endfacet
  facet normal -0 0 1
    outer loop
      vertex -17.5 5 15.5
      vertex -13.5 -5 15.5
      vertex -13.5 5 15.5
    endloop
  endfacet
  facet normal 0 0 1
    outer loop
      vertex -13.5 -5 15.5
      vertex -17.5 5 15.5
      vertex -17.5 -5 15.5
    endloop
  endfacet
  facet normal -0 0 1
    outer loop
      vertex 13.5 5 15.5
      vertex 17.5 -5 15.5
      vertex 17.5 5 15.5
    endloop
  endfacet
  facet normal 0 0 1
    outer loop
      vertex 17.5 -5 15.5
      vertex 13.5 5 15.5
      vertex 13.5 -5 15.5
    endloop
  endfacet
  facet normal 1 0 0
    outer loop
      vertex 17.5 1.56366 10.0864
      vertex 17.5 5 15.5
      vertex 17.5 1.94986 11.7784
    endloop
  endfacet
  facet normal 1 0 0
    outer loop
      vertex 17.5 5 15.5
      vertex 17.5 0.867767 13.1353
      vertex 17.5 1.94986 11.7784
    endloop
  endfacet
  facet normal 1 0 0
    outer loop
      vertex 17.5 5 15.5
      vertex 17.5 -0.867767 13.1353
      vertex 17.5 0.867767 13.1353
    endloop
  endfacet
  facet normal 1 0 0
    outer loop
      vertex 17.5 -0.867767 13.1353
      vertex 17.5 -5 15.5
      vertex 17.5 -1.94986 11.7784
    endloop
  endfacet
  facet normal 1 -0 0
    outer loop
      vertex 17.5 -5 15.5
      vertex 17.5 -0.867767 13.1353
      vertex 17.5 5 15.5
    endloop
  endfacet
  facet normal 1 0 0
    outer loop
      vertex 17.5 5 15.5
      vertex 17.5 1.56366 10.0864
      vertex 17.5 5 0.5
    endloop
  endfacet
  facet normal 1 -0 0
    outer loop
      vertex 17.5 1.30625e-015 9.33333
      vertex 17.5 5 0.5
      vertex 17.5 1.56366 10.0864
    endloop
  endfacet
  facet normal 1 0 0
    outer loop
      vertex 17.5 -5 0.5
      vertex 17.5 1.30625e-015 9.33333
      vertex 17.5 -1.56366 10.0864
    endloop
  endfacet
  facet normal 1 0 0
    outer loop
      vertex 17.5 -5 15.5
      vertex 17.5 -1.56366 10.0864
      vertex 17.5 -1.94986 11.7784
    endloop
  endfacet
  facet normal 1 0 0
    outer loop
      vertex 17.5 1.30625e-015 9.33333
      vertex 17.5 -5 0.5
      vertex 17.5 5 0.5
    endloop
  endfacet
  facet normal 1 0 0
    outer loop
      vertex 17.5 -5 0.5
      vertex 17.5 -1.56366 10.0864
      vertex 17.5 -5 15.5
    endloop
  endfacet
  facet normal 0 0 -1
    outer loop
      vertex 17.5 -5 0.5
      vertex 6.75 -8.57224e-016 0.5
      vertex 17.5 5 0.5
    endloop
  endfacet
  facet normal 0 0 -1
    outer loop
      vertex 17.5 -5 0.5
      vertex 5.875 -1.51554 0.5
      vertex 6.75 -8.57224e-016 0.5
    endloop
  endfacet
  facet normal 0 0 -1
    outer loop
      vertex 17.5 -5 0.5
      vertex 4.125 -1.51554 0.5
      vertex 5.875 -1.51554 0.5
    endloop
  endfacet
  facet normal 0 0 -1
    outer loop
      vertex 4.125 -1.51554 0.5
      vertex -3.25 -8.57224e-016 0.5
      vertex 3.25 -8.57224e-016 0.5
    endloop
  endfacet
  facet normal 0 0 -1
    outer loop
      vertex -4.125 -1.51554 0.5
      vertex 4.125 -1.51554 0.5
      vertex 17.5 -5 0.5
    endloop
  endfacet
  facet normal 0 0 -1
    outer loop
      vertex 4.125 -1.51554 0.5
      vertex -4.125 -1.51554 0.5
      vertex -3.25 -8.57224e-016 0.5
    endloop
  endfacet
  facet normal 0 0 -1
    outer loop
      vertex -17.5 -5 0.5
      vertex -4.125 -1.51554 0.5
      vertex 17.5 -5 0.5
    endloop
  endfacet
  facet normal -0 0 -1
    outer loop
      vertex -5.875 -1.51554 0.5
      vertex -17.5 -5 0.5
      vertex -6.75 -8.57224e-016 0.5
    endloop
  endfacet
  facet normal -0 0 -1
    outer loop
      vertex -4.125 -1.51554 0.5
      vertex -17.5 -5 0.5
      vertex -5.875 -1.51554 0.5
    endloop
  endfacet
  facet normal 0 0 -1
    outer loop
      vertex 5.875 1.51554 0.5
      vertex 17.5 5 0.5
      vertex 6.75 -8.57224e-016 0.5
    endloop
  endfacet
  facet normal 0 0 -1
    outer loop
      vertex 4.125 1.51554 0.5
      vertex 17.5 5 0.5
      vertex 5.875 1.51554 0.5
    endloop
  endfacet
  facet normal 0 0 -1
    outer loop
      vertex -3.25 -8.57224e-016 0.5
      vertex 4.125 1.51554 0.5
      vertex 3.25 -8.57224e-016 0.5
    endloop
  endfacet
  facet normal 0 0 -1
    outer loop
      vertex -4.125 1.51554 0.5
      vertex 4.125 1.51554 0.5
      vertex -3.25 -8.57224e-016 0.5
    endloop
  endfacet
  facet normal 0 0 -1
    outer loop
      vertex 4.125 1.51554 0.5
      vertex -4.125 1.51554 0.5
      vertex 17.5 5 0.5
    endloop
  endfacet
  facet normal 0 0 -1
    outer loop
      vertex -17.5 5 0.5
      vertex -4.125 1.51554 0.5
      vertex -5.875 1.51554 0.5
    endloop
  endfacet
  facet normal 0 0 -1
    outer loop
      vertex -17.5 5 0.5
      vertex -6.75 -8.57224e-016 0.5
      vertex -17.5 -5 0.5
    endloop
  endfacet
  facet normal 0 0 -1
    outer loop
      vertex -4.125 1.51554 0.5
      vertex -17.5 5 0.5
      vertex 17.5 5 0.5
    endloop
  endfacet
  facet normal 0 0 -1
    outer loop
      vertex -6.75 -8.57224e-016 0.5
      vertex -17.5 5 0.5
      vertex -5.875 1.51554 0.5
    endloop
  endfacet
endsolid OpenSCAD_Model
