solid OpenSCAD_Model
  facet normal 1 -0 0
    outer loop
      vertex 25 -24.2548 1.5
      vertex 25 24.2548 -1.5
      vertex 25 24.2548 1.5
    endloop
  endfacet
  facet normal 1 0 0
    outer loop
      vertex 25 24.2548 -1.5
      vertex 25 -24.2548 1.5
      vertex 25 -24.2548 -1.5
    endloop
  endfacet
  facet normal 0 0 1
    outer loop
      vertex -3.6585 34.8083 1.5
      vertex -6.51593 29.7571 1.5
      vertex -6 28 1.5
    endloop
  endfacet
  facet normal 0 0 1
    outer loop
      vertex -3.6585 34.8083 1.5
      vertex -7.8999 30.9563 1.5
      vertex -6.51593 29.7571 1.5
    endloop
  endfacet
  facet normal -0 0 1
    outer loop
      vertex -10.8156 33.287 1.5
      vertex -7.8999 30.9563 1.5
      vertex -3.6585 34.8083 1.5
    endloop
  endfacet
  facet normal 0 0 1
    outer loop
      vertex -7.8999 30.9563 1.5
      vertex -10.8156 33.287 1.5
      vertex -9.71252 31.2169 1.5
    endloop
  endfacet
  facet normal 0 0 1
    outer loop
      vertex -10.8156 33.287 1.5
      vertex -11.3783 30.4562 1.5
      vertex -9.71252 31.2169 1.5
    endloop
  endfacet
  facet normal 0 0 1
    outer loop
      vertex -17.5 30.3109 1.5
      vertex -11.3783 30.4562 1.5
      vertex -10.8156 33.287 1.5
    endloop
  endfacet
  facet normal 0 0 1
    outer loop
      vertex -12.3684 28.9156 1.5
      vertex -17.5 30.3109 1.5
      vertex -12.3684 27.0844 1.5
    endloop
  endfacet
  facet normal 0 0 1
    outer loop
      vertex -11.3783 30.4562 1.5
      vertex -17.5 30.3109 1.5
      vertex -12.3684 28.9156 1.5
    endloop
  endfacet
  facet normal -0 0 1
    outer loop
      vertex -6.51593 -29.7571 1.5
      vertex -3.6585 -34.8083 1.5
      vertex -6 -28 1.5
    endloop
  endfacet
  facet normal -0 0 1
    outer loop
      vertex -7.8999 -30.9563 1.5
      vertex -3.6585 -34.8083 1.5
      vertex -6.51593 -29.7571 1.5
    endloop
  endfacet
  facet normal 0 0 1
    outer loop
      vertex -10.8156 -33.287 1.5
      vertex -7.8999 -30.9563 1.5
      vertex -9.71252 -31.2169 1.5
    endloop
  endfacet
  facet normal 0 0 1
    outer loop
      vertex -7.8999 -30.9563 1.5
      vertex -10.8156 -33.287 1.5
      vertex -3.6585 -34.8083 1.5
    endloop
  endfacet
  facet normal 0 0 1
    outer loop
      vertex -11.3783 -30.4562 1.5
      vertex -10.8156 -33.287 1.5
      vertex -9.71252 -31.2169 1.5
    endloop
  endfacet
  facet normal -0 0 1
    outer loop
      vertex -17.5 -30.3109 1.5
      vertex -11.3783 -30.4562 1.5
      vertex -12.3684 -28.9156 1.5
    endloop
  endfacet
  facet normal 0 0 1
    outer loop
      vertex -11.3783 -30.4562 1.5
      vertex -17.5 -30.3109 1.5
      vertex -10.8156 -33.287 1.5
    endloop
  endfacet
  facet normal 0 0 1
    outer loop
      vertex 8.78748 -24.7831 1.5
      vertex 6.5 -6.5 1.5
      vertex 7.1217 -25.5438 1.5
    endloop
  endfacet
  facet normal -0 0 1
    outer loop
      vertex -7.8999 -25.0437 1.5
      vertex 7.1217 -25.5438 1.5
      vertex 6.5 -6.5 1.5
    endloop
  endfacet
  facet normal -0 0 1
    outer loop
      vertex -6 -28 1.5
      vertex 6.13165 -28.9156 1.5
      vertex 6.13165 -27.0844 1.5
    endloop
  endfacet
  facet normal 0 0 1
    outer loop
      vertex 7.1217 -25.5438 1.5
      vertex -6.51593 -26.2429 1.5
      vertex 6.13165 -27.0844 1.5
    endloop
  endfacet
  facet normal 0 -0 1
    outer loop
      vertex -6 -28 1.5
      vertex 6.13165 -27.0844 1.5
      vertex -6.51593 -26.2429 1.5
    endloop
  endfacet
  facet normal 0 0 1
    outer loop
      vertex 3.6585 -34.8083 1.5
      vertex -6 -28 1.5
      vertex -3.6585 -34.8083 1.5
    endloop
  endfacet
  facet normal 0 0 1
    outer loop
      vertex 6.13165 -28.9156 1.5
      vertex -6 -28 1.5
      vertex 3.6585 -34.8083 1.5
    endloop
  endfacet
  facet normal 0 0 1
    outer loop
      vertex 7.1217 -25.5438 1.5
      vertex -7.8999 -25.0437 1.5
      vertex -6.51593 -26.2429 1.5
    endloop
  endfacet
  facet normal -0 0 1
    outer loop
      vertex -18.5 -6.5 1.5
      vertex -7.8999 -25.0437 1.5
      vertex 6.5 -6.5 1.5
    endloop
  endfacet
  facet normal 0 0 1
    outer loop
      vertex -7.8999 -25.0437 1.5
      vertex -18.5 -6.5 1.5
      vertex -9.71252 -24.7831 1.5
    endloop
  endfacet
  facet normal 0 0 1
    outer loop
      vertex -12.3684 -27.0844 1.5
      vertex -17.5 -30.3109 1.5
      vertex -12.3684 -28.9156 1.5
    endloop
  endfacet
  facet normal -0 0 1
    outer loop
      vertex -23.4196 -26.0101 1.5
      vertex -12.3684 -27.0844 1.5
      vertex -11.3783 -25.5438 1.5
    endloop
  endfacet
  facet normal 0 0 1
    outer loop
      vertex -9.71252 -24.7831 1.5
      vertex -18.5 -6.5 1.5
      vertex -11.3783 -25.5438 1.5
    endloop
  endfacet
  facet normal -0 0 1
    outer loop
      vertex -25 -24.2548 1.5
      vertex -11.3783 -25.5438 1.5
      vertex -18.5 -6.5 1.5
    endloop
  endfacet
  facet normal -0 0 1
    outer loop
      vertex -19.691 -0.951056 1.5
      vertex -18.5 -6.5 1.5
      vertex -19 0 1.5
    endloop
  endfacet
  facet normal 0 0 1
    outer loop
      vertex -20.809 -0.587785 1.5
      vertex -18.5 -6.5 1.5
      vertex -19.691 -0.951056 1.5
    endloop
  endfacet
  facet normal 0 0 1
    outer loop
      vertex -18.5 -6.5 1.5
      vertex -20.809 -0.587785 1.5
      vertex -25 -24.2548 1.5
    endloop
  endfacet
  facet normal 0 0 1
    outer loop
      vertex -12.3684 -27.0844 1.5
      vertex -23.4196 -26.0101 1.5
      vertex -17.5 -30.3109 1.5
    endloop
  endfacet
  facet normal 0 0 1
    outer loop
      vertex -20.809 0.587785 1.5
      vertex -25 24.2548 1.5
      vertex -20.809 -0.587785 1.5
    endloop
  endfacet
  facet normal 0 0 1
    outer loop
      vertex -25 -24.2548 1.5
      vertex -20.809 -0.587785 1.5
      vertex -25 24.2548 1.5
    endloop
  endfacet
  facet normal 0 0 1
    outer loop
      vertex -11.3783 -25.5438 1.5
      vertex -25 -24.2548 1.5
      vertex -23.4196 -26.0101 1.5
    endloop
  endfacet
  facet normal 0 0 1
    outer loop
      vertex 25 24.2548 1.5
      vertex 9 0 1.5
      vertex 25 -24.2548 1.5
    endloop
  endfacet
  facet normal 0 0 1
    outer loop
      vertex 6.5 -6.5 1.5
      vertex 9 0 1.5
      vertex 8.30902 -0.951056 1.5
    endloop
  endfacet
  facet normal 0 0 1
    outer loop
      vertex 6.5 6.5 1.5
      vertex 11.9841 26.2429 1.5
      vertex 10.6001 25.0437 1.5
    endloop
  endfacet
  facet normal 0 0 1
    outer loop
      vertex 25 -24.2548 1.5
      vertex 11.9841 -26.2429 1.5
      vertex 12.5 -28 1.5
    endloop
  endfacet
  facet normal 0 0 1
    outer loop
      vertex 9 0 1.5
      vertex 6.5 -6.5 1.5
      vertex 25 -24.2548 1.5
    endloop
  endfacet
  facet normal 0 0 1
    outer loop
      vertex 6.5 6.5 1.5
      vertex 10.6001 25.0437 1.5
      vertex 8.78748 24.7831 1.5
    endloop
  endfacet
  facet normal 0 0 1
    outer loop
      vertex 11.9841 26.2429 1.5
      vertex 6.5 6.5 1.5
      vertex 9 0 1.5
    endloop
  endfacet
  facet normal 0 0 1
    outer loop
      vertex 9 0 1.5
      vertex 6.5 6.5 1.5
      vertex 8.30902 0.951056 1.5
    endloop
  endfacet
  facet normal 0 0 1
    outer loop
      vertex 8.30902 0.951056 1.5
      vertex 6.5 6.5 1.5
      vertex 7.19098 0.587785 1.5
    endloop
  endfacet
  facet normal 0 0 1
    outer loop
      vertex 6.5 6.5 1.5
      vertex 8.78748 24.7831 1.5
      vertex 7.1217 25.5438 1.5
    endloop
  endfacet
  facet normal 0 0 1
    outer loop
      vertex 17.5 30.3109 1.5
      vertex 11.9841 26.2429 1.5
      vertex 23.4196 26.0101 1.5
    endloop
  endfacet
  facet normal 0 0 1
    outer loop
      vertex 23.4196 26.0101 1.5
      vertex 11.9841 26.2429 1.5
      vertex 25 24.2548 1.5
    endloop
  endfacet
  facet normal 0 0 1
    outer loop
      vertex 11.9841 26.2429 1.5
      vertex 17.5 30.3109 1.5
      vertex 12.5 28 1.5
    endloop
  endfacet
  facet normal 0 0 1
    outer loop
      vertex 9 0 1.5
      vertex 25 24.2548 1.5
      vertex 11.9841 26.2429 1.5
    endloop
  endfacet
  facet normal 0 0 1
    outer loop
      vertex 25 -24.2548 1.5
      vertex 12.5 -28 1.5
      vertex 23.4196 -26.0101 1.5
    endloop
  endfacet
  facet normal 0 0 1
    outer loop
      vertex 17.5 30.3109 1.5
      vertex 11.9841 29.7571 1.5
      vertex 12.5 28 1.5
    endloop
  endfacet
  facet normal 0 0 1
    outer loop
      vertex 10.8156 33.287 1.5
      vertex 11.9841 29.7571 1.5
      vertex 17.5 30.3109 1.5
    endloop
  endfacet
  facet normal 0 0 1
    outer loop
      vertex 10.8156 33.287 1.5
      vertex 10.6001 30.9563 1.5
      vertex 11.9841 29.7571 1.5
    endloop
  endfacet
  facet normal 0 0 1
    outer loop
      vertex 10.8156 33.287 1.5
      vertex 8.78748 31.2169 1.5
      vertex 10.6001 30.9563 1.5
    endloop
  endfacet
  facet normal 0 0 1
    outer loop
      vertex 3.6585 34.8083 1.5
      vertex 8.78748 31.2169 1.5
      vertex 10.8156 33.287 1.5
    endloop
  endfacet
  facet normal 0 0 1
    outer loop
      vertex -6 28 1.5
      vertex 6.13165 28.9156 1.5
      vertex 3.6585 34.8083 1.5
    endloop
  endfacet
  facet normal 0 0 1
    outer loop
      vertex 7.1217 30.4562 1.5
      vertex 3.6585 34.8083 1.5
      vertex 6.13165 28.9156 1.5
    endloop
  endfacet
  facet normal 0 0 1
    outer loop
      vertex 8.78748 31.2169 1.5
      vertex 3.6585 34.8083 1.5
      vertex 7.1217 30.4562 1.5
    endloop
  endfacet
  facet normal 0 0 1
    outer loop
      vertex 23.4196 -26.0101 1.5
      vertex 12.5 -28 1.5
      vertex 17.5 -30.3109 1.5
    endloop
  endfacet
  facet normal -0 0 1
    outer loop
      vertex 11.9841 -29.7571 1.5
      vertex 17.5 -30.3109 1.5
      vertex 12.5 -28 1.5
    endloop
  endfacet
  facet normal 0 0 1
    outer loop
      vertex 11.9841 -29.7571 1.5
      vertex 10.8156 -33.287 1.5
      vertex 17.5 -30.3109 1.5
    endloop
  endfacet
  facet normal -0 0 1
    outer loop
      vertex 10.6001 -30.9563 1.5
      vertex 10.8156 -33.287 1.5
      vertex 11.9841 -29.7571 1.5
    endloop
  endfacet
  facet normal -0 0 1
    outer loop
      vertex 8.78748 -31.2169 1.5
      vertex 10.8156 -33.287 1.5
      vertex 10.6001 -30.9563 1.5
    endloop
  endfacet
  facet normal 0 0 1
    outer loop
      vertex 3.6585 -34.8083 1.5
      vertex 8.78748 -31.2169 1.5
      vertex 7.1217 -30.4562 1.5
    endloop
  endfacet
  facet normal 0 0 1
    outer loop
      vertex 8.78748 -31.2169 1.5
      vertex 3.6585 -34.8083 1.5
      vertex 10.8156 -33.287 1.5
    endloop
  endfacet
  facet normal 0 0 1
    outer loop
      vertex 3.6585 -34.8083 1.5
      vertex 7.1217 -30.4562 1.5
      vertex 6.13165 -28.9156 1.5
    endloop
  endfacet
  facet normal 0 0 1
    outer loop
      vertex 25 -24.2548 1.5
      vertex 10.6001 -25.0437 1.5
      vertex 11.9841 -26.2429 1.5
    endloop
  endfacet
  facet normal 0 0 1
    outer loop
      vertex 25 -24.2548 1.5
      vertex 6.5 -6.5 1.5
      vertex 10.6001 -25.0437 1.5
    endloop
  endfacet
  facet normal 0 0 1
    outer loop
      vertex 6.5 -6.5 1.5
      vertex 8.30902 -0.951056 1.5
      vertex 7.19098 -0.587785 1.5
    endloop
  endfacet
  facet normal 0 0 1
    outer loop
      vertex 10.6001 -25.0437 1.5
      vertex 6.5 -6.5 1.5
      vertex 8.78748 -24.7831 1.5
    endloop
  endfacet
  facet normal 0 0 1
    outer loop
      vertex 7.19098 0.587785 1.5
      vertex 6.5 6.5 1.5
      vertex 7.19098 -0.587785 1.5
    endloop
  endfacet
  facet normal 0 0 1
    outer loop
      vertex 6.5 -6.5 1.5
      vertex 7.19098 -0.587785 1.5
      vertex 6.5 6.5 1.5
    endloop
  endfacet
  facet normal -0 0 1
    outer loop
      vertex -6.51593 26.2429 1.5
      vertex 7.1217 25.5438 1.5
      vertex 6.13165 27.0844 1.5
    endloop
  endfacet
  facet normal 0 0 1
    outer loop
      vertex 6.13165 28.9156 1.5
      vertex -6 28 1.5
      vertex 6.13165 27.0844 1.5
    endloop
  endfacet
  facet normal 0 0 1
    outer loop
      vertex -6 28 1.5
      vertex 3.6585 34.8083 1.5
      vertex -3.6585 34.8083 1.5
    endloop
  endfacet
  facet normal 0 0 1
    outer loop
      vertex 6.13165 27.0844 1.5
      vertex -6 28 1.5
      vertex -6.51593 26.2429 1.5
    endloop
  endfacet
  facet normal 0 0 1
    outer loop
      vertex -7.8999 25.0437 1.5
      vertex 7.1217 25.5438 1.5
      vertex -6.51593 26.2429 1.5
    endloop
  endfacet
  facet normal 0 0 1
    outer loop
      vertex 7.1217 25.5438 1.5
      vertex -7.8999 25.0437 1.5
      vertex 6.5 6.5 1.5
    endloop
  endfacet
  facet normal 0 0 1
    outer loop
      vertex -18.5 6.5 1.5
      vertex -7.8999 25.0437 1.5
      vertex -9.71252 24.7831 1.5
    endloop
  endfacet
  facet normal 0 0 1
    outer loop
      vertex -18.5 6.5 1.5
      vertex -9.71252 24.7831 1.5
      vertex -11.3783 25.5438 1.5
    endloop
  endfacet
  facet normal 0 0 1
    outer loop
      vertex -23.4196 26.0101 1.5
      vertex -12.3684 27.0844 1.5
      vertex -17.5 30.3109 1.5
    endloop
  endfacet
  facet normal 0 0 1
    outer loop
      vertex -12.3684 27.0844 1.5
      vertex -23.4196 26.0101 1.5
      vertex -11.3783 25.5438 1.5
    endloop
  endfacet
  facet normal 0 0 1
    outer loop
      vertex -7.8999 25.0437 1.5
      vertex -18.5 6.5 1.5
      vertex 6.5 6.5 1.5
    endloop
  endfacet
  facet normal 0 0 1
    outer loop
      vertex -18.5 6.5 1.5
      vertex -19 0 1.5
      vertex -18.5 -6.5 1.5
    endloop
  endfacet
  facet normal 0 0 1
    outer loop
      vertex -25 24.2548 1.5
      vertex -11.3783 25.5438 1.5
      vertex -23.4196 26.0101 1.5
    endloop
  endfacet
  facet normal 0 0 1
    outer loop
      vertex -18.5 6.5 1.5
      vertex -19.691 0.951056 1.5
      vertex -19 0 1.5
    endloop
  endfacet
  facet normal 0 0 1
    outer loop
      vertex -11.3783 25.5438 1.5
      vertex -25 24.2548 1.5
      vertex -18.5 6.5 1.5
    endloop
  endfacet
  facet normal 0 0 1
    outer loop
      vertex -18.5 6.5 1.5
      vertex -25 24.2548 1.5
      vertex -20.809 0.587785 1.5
    endloop
  endfacet
  facet normal 0 0 1
    outer loop
      vertex -18.5 6.5 1.5
      vertex -20.809 0.587785 1.5
      vertex -19.691 0.951056 1.5
    endloop
  endfacet
  facet normal 0 0 -1
    outer loop
      vertex -3.6585 -34.8083 -1.5
      vertex -6.51593 -29.7571 -1.5
      vertex -6 -28 -1.5
    endloop
  endfacet
  facet normal 0 0 -1
    outer loop
      vertex -3.6585 -34.8083 -1.5
      vertex -7.8999 -30.9563 -1.5
      vertex -6.51593 -29.7571 -1.5
    endloop
  endfacet
  facet normal 0 0 -1
    outer loop
      vertex -10.8156 -33.287 -1.5
      vertex -7.8999 -30.9563 -1.5
      vertex -3.6585 -34.8083 -1.5
    endloop
  endfacet
  facet normal 0 0 -1
    outer loop
      vertex -7.8999 -30.9563 -1.5
      vertex -10.8156 -33.287 -1.5
      vertex -9.71252 -31.2169 -1.5
    endloop
  endfacet
  facet normal 0 0 -1
    outer loop
      vertex -10.8156 -33.287 -1.5
      vertex -11.3783 -30.4562 -1.5
      vertex -9.71252 -31.2169 -1.5
    endloop
  endfacet
  facet normal 0 0 -1
    outer loop
      vertex -17.5 -30.3109 -1.5
      vertex -11.3783 -30.4562 -1.5
      vertex -10.8156 -33.287 -1.5
    endloop
  endfacet
  facet normal -0 0 -1
    outer loop
      vertex -12.3684 -28.9156 -1.5
      vertex -17.5 -30.3109 -1.5
      vertex -12.3684 -27.0844 -1.5
    endloop
  endfacet
  facet normal 0 0 -1
    outer loop
      vertex -11.3783 -30.4562 -1.5
      vertex -17.5 -30.3109 -1.5
      vertex -12.3684 -28.9156 -1.5
    endloop
  endfacet
  facet normal 0 0 -1
    outer loop
      vertex -6.51593 29.7571 -1.5
      vertex -3.6585 34.8083 -1.5
      vertex -6 28 -1.5
    endloop
  endfacet
  facet normal 0 0 -1
    outer loop
      vertex -7.8999 30.9563 -1.5
      vertex -3.6585 34.8083 -1.5
      vertex -6.51593 29.7571 -1.5
    endloop
  endfacet
  facet normal 0 0 -1
    outer loop
      vertex -10.8156 33.287 -1.5
      vertex -7.8999 30.9563 -1.5
      vertex -9.71252 31.2169 -1.5
    endloop
  endfacet
  facet normal 0 0 -1
    outer loop
      vertex -7.8999 30.9563 -1.5
      vertex -10.8156 33.287 -1.5
      vertex -3.6585 34.8083 -1.5
    endloop
  endfacet
  facet normal 0 0 -1
    outer loop
      vertex -11.3783 30.4562 -1.5
      vertex -10.8156 33.287 -1.5
      vertex -9.71252 31.2169 -1.5
    endloop
  endfacet
  facet normal 0 0 -1
    outer loop
      vertex -17.5 30.3109 -1.5
      vertex -11.3783 30.4562 -1.5
      vertex -12.3684 28.9156 -1.5
    endloop
  endfacet
  facet normal -0 0 -1
    outer loop
      vertex -11.3783 30.4562 -1.5
      vertex -17.5 30.3109 -1.5
      vertex -10.8156 33.287 -1.5
    endloop
  endfacet
  facet normal -0 0 -1
    outer loop
      vertex 8.78748 24.7831 -1.5
      vertex 6.5 6.5 -1.5
      vertex 7.1217 25.5438 -1.5
    endloop
  endfacet
  facet normal 0 0 -1
    outer loop
      vertex -7.8999 25.0437 -1.5
      vertex 7.1217 25.5438 -1.5
      vertex 6.5 6.5 -1.5
    endloop
  endfacet
  facet normal 0 0 -1
    outer loop
      vertex -6 28 -1.5
      vertex 6.13165 28.9156 -1.5
      vertex 6.13165 27.0844 -1.5
    endloop
  endfacet
  facet normal 0 0 -1
    outer loop
      vertex 7.1217 25.5438 -1.5
      vertex -6.51593 26.2429 -1.5
      vertex 6.13165 27.0844 -1.5
    endloop
  endfacet
  facet normal 0 -0 -1
    outer loop
      vertex -6 28 -1.5
      vertex 6.13165 27.0844 -1.5
      vertex -6.51593 26.2429 -1.5
    endloop
  endfacet
  facet normal -0 0 -1
    outer loop
      vertex 3.6585 34.8083 -1.5
      vertex -6 28 -1.5
      vertex -3.6585 34.8083 -1.5
    endloop
  endfacet
  facet normal -0 0 -1
    outer loop
      vertex 6.13165 28.9156 -1.5
      vertex -6 28 -1.5
      vertex 3.6585 34.8083 -1.5
    endloop
  endfacet
  facet normal -0 0 -1
    outer loop
      vertex 7.1217 25.5438 -1.5
      vertex -7.8999 25.0437 -1.5
      vertex -6.51593 26.2429 -1.5
    endloop
  endfacet
  facet normal 0 0 -1
    outer loop
      vertex -18.5 6.5 -1.5
      vertex -7.8999 25.0437 -1.5
      vertex 6.5 6.5 -1.5
    endloop
  endfacet
  facet normal 0 0 -1
    outer loop
      vertex -7.8999 25.0437 -1.5
      vertex -18.5 6.5 -1.5
      vertex -9.71252 24.7831 -1.5
    endloop
  endfacet
  facet normal 0 0 -1
    outer loop
      vertex -12.3684 27.0844 -1.5
      vertex -17.5 30.3109 -1.5
      vertex -12.3684 28.9156 -1.5
    endloop
  endfacet
  facet normal 0 0 -1
    outer loop
      vertex -23.4196 26.0101 -1.5
      vertex -12.3684 27.0844 -1.5
      vertex -11.3783 25.5438 -1.5
    endloop
  endfacet
  facet normal -0 0 -1
    outer loop
      vertex -9.71252 24.7831 -1.5
      vertex -18.5 6.5 -1.5
      vertex -11.3783 25.5438 -1.5
    endloop
  endfacet
  facet normal 0 0 -1
    outer loop
      vertex -25 24.2548 -1.5
      vertex -11.3783 25.5438 -1.5
      vertex -18.5 6.5 -1.5
    endloop
  endfacet
  facet normal 0 0 -1
    outer loop
      vertex -19.691 0.951056 -1.5
      vertex -18.5 6.5 -1.5
      vertex -19 0 -1.5
    endloop
  endfacet
  facet normal 0 0 -1
    outer loop
      vertex -20.809 0.587785 -1.5
      vertex -18.5 6.5 -1.5
      vertex -19.691 0.951056 -1.5
    endloop
  endfacet
  facet normal -0 0 -1
    outer loop
      vertex -18.5 6.5 -1.5
      vertex -20.809 0.587785 -1.5
      vertex -25 24.2548 -1.5
    endloop
  endfacet
  facet normal -0 0 -1
    outer loop
      vertex -12.3684 27.0844 -1.5
      vertex -23.4196 26.0101 -1.5
      vertex -17.5 30.3109 -1.5
    endloop
  endfacet
  facet normal -0 0 -1
    outer loop
      vertex -20.809 -0.587785 -1.5
      vertex -25 -24.2548 -1.5
      vertex -20.809 0.587785 -1.5
    endloop
  endfacet
  facet normal 0 0 -1
    outer loop
      vertex -25 24.2548 -1.5
      vertex -20.809 0.587785 -1.5
      vertex -25 -24.2548 -1.5
    endloop
  endfacet
  facet normal -0 0 -1
    outer loop
      vertex -11.3783 25.5438 -1.5
      vertex -25 24.2548 -1.5
      vertex -23.4196 26.0101 -1.5
    endloop
  endfacet
  facet normal 0 0 -1
    outer loop
      vertex 25 -24.2548 -1.5
      vertex 9 0 -1.5
      vertex 25 24.2548 -1.5
    endloop
  endfacet
  facet normal 0 0 -1
    outer loop
      vertex 6.5 6.5 -1.5
      vertex 9 0 -1.5
      vertex 8.30902 0.951056 -1.5
    endloop
  endfacet
  facet normal 0 0 -1
    outer loop
      vertex 6.5 -6.5 -1.5
      vertex 11.9841 -26.2429 -1.5
      vertex 10.6001 -25.0437 -1.5
    endloop
  endfacet
  facet normal 0 0 -1
    outer loop
      vertex 25 24.2548 -1.5
      vertex 11.9841 26.2429 -1.5
      vertex 12.5 28 -1.5
    endloop
  endfacet
  facet normal 0 0 -1
    outer loop
      vertex 9 0 -1.5
      vertex 6.5 6.5 -1.5
      vertex 25 24.2548 -1.5
    endloop
  endfacet
  facet normal 0 0 -1
    outer loop
      vertex 6.5 -6.5 -1.5
      vertex 10.6001 -25.0437 -1.5
      vertex 8.78748 -24.7831 -1.5
    endloop
  endfacet
  facet normal 0 0 -1
    outer loop
      vertex 11.9841 -26.2429 -1.5
      vertex 6.5 -6.5 -1.5
      vertex 9 0 -1.5
    endloop
  endfacet
  facet normal 0 0 -1
    outer loop
      vertex 9 0 -1.5
      vertex 6.5 -6.5 -1.5
      vertex 8.30902 -0.951056 -1.5
    endloop
  endfacet
  facet normal -0 0 -1
    outer loop
      vertex 8.30902 -0.951056 -1.5
      vertex 6.5 -6.5 -1.5
      vertex 7.19098 -0.587785 -1.5
    endloop
  endfacet
  facet normal 0 0 -1
    outer loop
      vertex 6.5 -6.5 -1.5
      vertex 8.78748 -24.7831 -1.5
      vertex 7.1217 -25.5438 -1.5
    endloop
  endfacet
  facet normal 0 0 -1
    outer loop
      vertex 17.5 -30.3109 -1.5
      vertex 11.9841 -26.2429 -1.5
      vertex 23.4196 -26.0101 -1.5
    endloop
  endfacet
  facet normal -0 0 -1
    outer loop
      vertex 23.4196 -26.0101 -1.5
      vertex 11.9841 -26.2429 -1.5
      vertex 25 -24.2548 -1.5
    endloop
  endfacet
  facet normal 0 0 -1
    outer loop
      vertex 11.9841 -26.2429 -1.5
      vertex 17.5 -30.3109 -1.5
      vertex 12.5 -28 -1.5
    endloop
  endfacet
  facet normal 0 0 -1
    outer loop
      vertex 9 0 -1.5
      vertex 25 -24.2548 -1.5
      vertex 11.9841 -26.2429 -1.5
    endloop
  endfacet
  facet normal 0 0 -1
    outer loop
      vertex 25 24.2548 -1.5
      vertex 12.5 28 -1.5
      vertex 23.4196 26.0101 -1.5
    endloop
  endfacet
  facet normal 0 0 -1
    outer loop
      vertex 17.5 -30.3109 -1.5
      vertex 11.9841 -29.7571 -1.5
      vertex 12.5 -28 -1.5
    endloop
  endfacet
  facet normal 0 0 -1
    outer loop
      vertex 10.8156 -33.287 -1.5
      vertex 11.9841 -29.7571 -1.5
      vertex 17.5 -30.3109 -1.5
    endloop
  endfacet
  facet normal 0 0 -1
    outer loop
      vertex 10.8156 -33.287 -1.5
      vertex 10.6001 -30.9563 -1.5
      vertex 11.9841 -29.7571 -1.5
    endloop
  endfacet
  facet normal 0 0 -1
    outer loop
      vertex 10.8156 -33.287 -1.5
      vertex 8.78748 -31.2169 -1.5
      vertex 10.6001 -30.9563 -1.5
    endloop
  endfacet
  facet normal 0 0 -1
    outer loop
      vertex 3.6585 -34.8083 -1.5
      vertex 8.78748 -31.2169 -1.5
      vertex 10.8156 -33.287 -1.5
    endloop
  endfacet
  facet normal 0 0 -1
    outer loop
      vertex -6 -28 -1.5
      vertex 6.13165 -28.9156 -1.5
      vertex 3.6585 -34.8083 -1.5
    endloop
  endfacet
  facet normal -0 0 -1
    outer loop
      vertex 7.1217 -30.4562 -1.5
      vertex 3.6585 -34.8083 -1.5
      vertex 6.13165 -28.9156 -1.5
    endloop
  endfacet
  facet normal -0 0 -1
    outer loop
      vertex 8.78748 -31.2169 -1.5
      vertex 3.6585 -34.8083 -1.5
      vertex 7.1217 -30.4562 -1.5
    endloop
  endfacet
  facet normal 0 0 -1
    outer loop
      vertex 23.4196 26.0101 -1.5
      vertex 12.5 28 -1.5
      vertex 17.5 30.3109 -1.5
    endloop
  endfacet
  facet normal 0 0 -1
    outer loop
      vertex 11.9841 29.7571 -1.5
      vertex 17.5 30.3109 -1.5
      vertex 12.5 28 -1.5
    endloop
  endfacet
  facet normal 0 0 -1
    outer loop
      vertex 11.9841 29.7571 -1.5
      vertex 10.8156 33.287 -1.5
      vertex 17.5 30.3109 -1.5
    endloop
  endfacet
  facet normal 0 0 -1
    outer loop
      vertex 10.6001 30.9563 -1.5
      vertex 10.8156 33.287 -1.5
      vertex 11.9841 29.7571 -1.5
    endloop
  endfacet
  facet normal 0 0 -1
    outer loop
      vertex 8.78748 31.2169 -1.5
      vertex 10.8156 33.287 -1.5
      vertex 10.6001 30.9563 -1.5
    endloop
  endfacet
  facet normal 0 0 -1
    outer loop
      vertex 3.6585 34.8083 -1.5
      vertex 8.78748 31.2169 -1.5
      vertex 7.1217 30.4562 -1.5
    endloop
  endfacet
  facet normal 0 0 -1
    outer loop
      vertex 8.78748 31.2169 -1.5
      vertex 3.6585 34.8083 -1.5
      vertex 10.8156 33.287 -1.5
    endloop
  endfacet
  facet normal 0 0 -1
    outer loop
      vertex 3.6585 34.8083 -1.5
      vertex 7.1217 30.4562 -1.5
      vertex 6.13165 28.9156 -1.5
    endloop
  endfacet
  facet normal 0 0 -1
    outer loop
      vertex 25 24.2548 -1.5
      vertex 10.6001 25.0437 -1.5
      vertex 11.9841 26.2429 -1.5
    endloop
  endfacet
  facet normal -0 0 -1
    outer loop
      vertex 25 24.2548 -1.5
      vertex 6.5 6.5 -1.5
      vertex 10.6001 25.0437 -1.5
    endloop
  endfacet
  facet normal 0 0 -1
    outer loop
      vertex 6.5 6.5 -1.5
      vertex 8.30902 0.951056 -1.5
      vertex 7.19098 0.587785 -1.5
    endloop
  endfacet
  facet normal 0 0 -1
    outer loop
      vertex 10.6001 25.0437 -1.5
      vertex 6.5 6.5 -1.5
      vertex 8.78748 24.7831 -1.5
    endloop
  endfacet
  facet normal -0 0 -1
    outer loop
      vertex 7.19098 -0.587785 -1.5
      vertex 6.5 -6.5 -1.5
      vertex 7.19098 0.587785 -1.5
    endloop
  endfacet
  facet normal 0 0 -1
    outer loop
      vertex 6.5 6.5 -1.5
      vertex 7.19098 0.587785 -1.5
      vertex 6.5 -6.5 -1.5
    endloop
  endfacet
  facet normal 0 0 -1
    outer loop
      vertex -6.51593 -26.2429 -1.5
      vertex 7.1217 -25.5438 -1.5
      vertex 6.13165 -27.0844 -1.5
    endloop
  endfacet
  facet normal 0 0 -1
    outer loop
      vertex 6.13165 -28.9156 -1.5
      vertex -6 -28 -1.5
      vertex 6.13165 -27.0844 -1.5
    endloop
  endfacet
  facet normal 0 0 -1
    outer loop
      vertex -6 -28 -1.5
      vertex 3.6585 -34.8083 -1.5
      vertex -3.6585 -34.8083 -1.5
    endloop
  endfacet
  facet normal -0 0 -1
    outer loop
      vertex 6.13165 -27.0844 -1.5
      vertex -6 -28 -1.5
      vertex -6.51593 -26.2429 -1.5
    endloop
  endfacet
  facet normal 0 0 -1
    outer loop
      vertex -7.8999 -25.0437 -1.5
      vertex 7.1217 -25.5438 -1.5
      vertex -6.51593 -26.2429 -1.5
    endloop
  endfacet
  facet normal 0 0 -1
    outer loop
      vertex 7.1217 -25.5438 -1.5
      vertex -7.8999 -25.0437 -1.5
      vertex 6.5 -6.5 -1.5
    endloop
  endfacet
  facet normal 0 0 -1
    outer loop
      vertex -18.5 -6.5 -1.5
      vertex -7.8999 -25.0437 -1.5
      vertex -9.71252 -24.7831 -1.5
    endloop
  endfacet
  facet normal 0 0 -1
    outer loop
      vertex -18.5 -6.5 -1.5
      vertex -9.71252 -24.7831 -1.5
      vertex -11.3783 -25.5438 -1.5
    endloop
  endfacet
  facet normal 0 0 -1
    outer loop
      vertex -23.4196 -26.0101 -1.5
      vertex -12.3684 -27.0844 -1.5
      vertex -17.5 -30.3109 -1.5
    endloop
  endfacet
  facet normal 0 0 -1
    outer loop
      vertex -12.3684 -27.0844 -1.5
      vertex -23.4196 -26.0101 -1.5
      vertex -11.3783 -25.5438 -1.5
    endloop
  endfacet
  facet normal 0 0 -1
    outer loop
      vertex -7.8999 -25.0437 -1.5
      vertex -18.5 -6.5 -1.5
      vertex 6.5 -6.5 -1.5
    endloop
  endfacet
  facet normal 0 0 -1
    outer loop
      vertex -18.5 -6.5 -1.5
      vertex -19 0 -1.5
      vertex -18.5 6.5 -1.5
    endloop
  endfacet
  facet normal 0 0 -1
    outer loop
      vertex -25 -24.2548 -1.5
      vertex -11.3783 -25.5438 -1.5
      vertex -23.4196 -26.0101 -1.5
    endloop
  endfacet
  facet normal 0 0 -1
    outer loop
      vertex -18.5 -6.5 -1.5
      vertex -19.691 -0.951056 -1.5
      vertex -19 0 -1.5
    endloop
  endfacet
  facet normal 0 0 -1
    outer loop
      vertex -11.3783 -25.5438 -1.5
      vertex -25 -24.2548 -1.5
      vertex -18.5 -6.5 -1.5
    endloop
  endfacet
  facet normal -0 0 -1
    outer loop
      vertex -18.5 -6.5 -1.5
      vertex -25 -24.2548 -1.5
      vertex -20.809 -0.587785 -1.5
    endloop
  endfacet
  facet normal 0 0 -1
    outer loop
      vertex -18.5 -6.5 -1.5
      vertex -20.809 -0.587785 -1.5
      vertex -19.691 -0.951056 -1.5
    endloop
  endfacet
  facet normal -1 0 0
    outer loop
      vertex -25 -24.2548 -1.5
      vertex -25 24.2548 1.5
      vertex -25 24.2548 -1.5
    endloop
  endfacet
  facet normal -1 -0 0
    outer loop
      vertex -25 24.2548 1.5
      vertex -25 -24.2548 -1.5
      vertex -25 -24.2548 1.5
    endloop
  endfacet
  facet normal -0.959493 -0.281733 0
    outer loop
      vertex 12.5 28 -1.5
      vertex 11.9841 29.7571 1.5
      vertex 11.9841 29.7571 -1.5
    endloop
  endfacet
  facet normal -0.959493 -0.281733 0
    outer loop
      vertex 11.9841 29.7571 1.5
      vertex 12.5 28 -1.5
      vertex 12.5 28 1.5
    endloop
  endfacet
  facet normal 1 -0 0
    outer loop
      vertex 6.13165 27.0844 1.5
      vertex 6.13165 28.9156 -1.5
      vertex 6.13165 28.9156 1.5
    endloop
  endfacet
  facet normal 1 0 0
    outer loop
      vertex 6.13165 28.9156 -1.5
      vertex 6.13165 27.0844 1.5
      vertex 6.13165 27.0844 -1.5
    endloop
  endfacet
  facet normal -0.142315 -0.989821 0
    outer loop
      vertex 8.78748 31.2169 -1.5
      vertex 10.6001 30.9563 1.5
      vertex 8.78748 31.2169 1.5
    endloop
  endfacet
  facet normal -0.142315 -0.989821 -0
    outer loop
      vertex 10.6001 30.9563 1.5
      vertex 8.78748 31.2169 -1.5
      vertex 10.6001 30.9563 -1.5
    endloop
  endfacet
  facet normal -0.654861 -0.75575 0
    outer loop
      vertex 10.6001 30.9563 -1.5
      vertex 11.9841 29.7571 1.5
      vertex 10.6001 30.9563 1.5
    endloop
  endfacet
  facet normal -0.654861 -0.75575 -0
    outer loop
      vertex 11.9841 29.7571 1.5
      vertex 10.6001 30.9563 -1.5
      vertex 11.9841 29.7571 -1.5
    endloop
  endfacet
  facet normal -0.959493 0.281733 0
    outer loop
      vertex 11.9841 26.2429 -1.5
      vertex 12.5 28 1.5
      vertex 12.5 28 -1.5
    endloop
  endfacet
  facet normal -0.959493 0.281733 0
    outer loop
      vertex 12.5 28 1.5
      vertex 11.9841 26.2429 -1.5
      vertex 11.9841 26.2429 1.5
    endloop
  endfacet
  facet normal -0.654861 0.75575 0
    outer loop
      vertex 11.9841 26.2429 -1.5
      vertex 10.6001 25.0437 1.5
      vertex 11.9841 26.2429 1.5
    endloop
  endfacet
  facet normal -0.654861 0.75575 0
    outer loop
      vertex 10.6001 25.0437 1.5
      vertex 11.9841 26.2429 -1.5
      vertex 10.6001 25.0437 -1.5
    endloop
  endfacet
  facet normal 0.841254 0.540641 0
    outer loop
      vertex 7.1217 25.5438 1.5
      vertex 6.13165 27.0844 -1.5
      vertex 6.13165 27.0844 1.5
    endloop
  endfacet
  facet normal 0.841254 0.540641 0
    outer loop
      vertex 6.13165 27.0844 -1.5
      vertex 7.1217 25.5438 1.5
      vertex 7.1217 25.5438 -1.5
    endloop
  endfacet
  facet normal 0.415415 -0.909632 0
    outer loop
      vertex 7.1217 30.4562 -1.5
      vertex 8.78748 31.2169 1.5
      vertex 7.1217 30.4562 1.5
    endloop
  endfacet
  facet normal 0.415415 -0.909632 0
    outer loop
      vertex 8.78748 31.2169 1.5
      vertex 7.1217 30.4562 -1.5
      vertex 8.78748 31.2169 -1.5
    endloop
  endfacet
  facet normal 0.841253 -0.540641 0
    outer loop
      vertex 6.13165 28.9156 1.5
      vertex 7.1217 30.4562 -1.5
      vertex 7.1217 30.4562 1.5
    endloop
  endfacet
  facet normal 0.841253 -0.540641 0
    outer loop
      vertex 7.1217 30.4562 -1.5
      vertex 6.13165 28.9156 1.5
      vertex 6.13165 28.9156 -1.5
    endloop
  endfacet
  facet normal -0.142314 0.989822 0
    outer loop
      vertex 10.6001 25.0437 -1.5
      vertex 8.78748 24.7831 1.5
      vertex 10.6001 25.0437 1.5
    endloop
  endfacet
  facet normal -0.142314 0.989822 0
    outer loop
      vertex 8.78748 24.7831 1.5
      vertex 10.6001 25.0437 -1.5
      vertex 8.78748 24.7831 -1.5
    endloop
  endfacet
  facet normal 0.415415 0.909632 -0
    outer loop
      vertex 8.78748 24.7831 -1.5
      vertex 7.1217 25.5438 1.5
      vertex 8.78748 24.7831 1.5
    endloop
  endfacet
  facet normal 0.415415 0.909632 0
    outer loop
      vertex 7.1217 25.5438 1.5
      vertex 8.78748 24.7831 -1.5
      vertex 7.1217 25.5438 -1.5
    endloop
  endfacet
  facet normal -0.959493 -0.281732 0
    outer loop
      vertex -6 28 -1.5
      vertex -6.51593 29.7571 1.5
      vertex -6.51593 29.7571 -1.5
    endloop
  endfacet
  facet normal -0.959493 -0.281732 0
    outer loop
      vertex -6.51593 29.7571 1.5
      vertex -6 28 -1.5
      vertex -6 28 1.5
    endloop
  endfacet
  facet normal 1 -0 0
    outer loop
      vertex -12.3684 27.0844 1.5
      vertex -12.3684 28.9156 -1.5
      vertex -12.3684 28.9156 1.5
    endloop
  endfacet
  facet normal 1 0 0
    outer loop
      vertex -12.3684 28.9156 -1.5
      vertex -12.3684 27.0844 1.5
      vertex -12.3684 27.0844 -1.5
    endloop
  endfacet
  facet normal -0.142315 -0.989821 0
    outer loop
      vertex -9.71252 31.2169 -1.5
      vertex -7.8999 30.9563 1.5
      vertex -9.71252 31.2169 1.5
    endloop
  endfacet
  facet normal -0.142315 -0.989821 -0
    outer loop
      vertex -7.8999 30.9563 1.5
      vertex -9.71252 31.2169 -1.5
      vertex -7.8999 30.9563 -1.5
    endloop
  endfacet
  facet normal -0.654861 -0.75575 0
    outer loop
      vertex -7.8999 30.9563 -1.5
      vertex -6.51593 29.7571 1.5
      vertex -7.8999 30.9563 1.5
    endloop
  endfacet
  facet normal -0.654861 -0.75575 -0
    outer loop
      vertex -6.51593 29.7571 1.5
      vertex -7.8999 30.9563 -1.5
      vertex -6.51593 29.7571 -1.5
    endloop
  endfacet
  facet normal -0.654861 0.75575 0
    outer loop
      vertex -6.51593 26.2429 -1.5
      vertex -7.8999 25.0437 1.5
      vertex -6.51593 26.2429 1.5
    endloop
  endfacet
  facet normal -0.654861 0.75575 0
    outer loop
      vertex -7.8999 25.0437 1.5
      vertex -6.51593 26.2429 -1.5
      vertex -7.8999 25.0437 -1.5
    endloop
  endfacet
  facet normal 0.841254 0.540641 0
    outer loop
      vertex -11.3783 25.5438 1.5
      vertex -12.3684 27.0844 -1.5
      vertex -12.3684 27.0844 1.5
    endloop
  endfacet
  facet normal 0.841254 0.540641 0
    outer loop
      vertex -12.3684 27.0844 -1.5
      vertex -11.3783 25.5438 1.5
      vertex -11.3783 25.5438 -1.5
    endloop
  endfacet
  facet normal 0.415415 -0.909632 0
    outer loop
      vertex -11.3783 30.4562 -1.5
      vertex -9.71252 31.2169 1.5
      vertex -11.3783 30.4562 1.5
    endloop
  endfacet
  facet normal 0.415415 -0.909632 0
    outer loop
      vertex -9.71252 31.2169 1.5
      vertex -11.3783 30.4562 -1.5
      vertex -9.71252 31.2169 -1.5
    endloop
  endfacet
  facet normal 0.841253 -0.540641 0
    outer loop
      vertex -12.3684 28.9156 1.5
      vertex -11.3783 30.4562 -1.5
      vertex -11.3783 30.4562 1.5
    endloop
  endfacet
  facet normal 0.841253 -0.540641 0
    outer loop
      vertex -11.3783 30.4562 -1.5
      vertex -12.3684 28.9156 1.5
      vertex -12.3684 28.9156 -1.5
    endloop
  endfacet
  facet normal -0.959493 0.281732 0
    outer loop
      vertex -6.51593 26.2429 -1.5
      vertex -6 28 1.5
      vertex -6 28 -1.5
    endloop
  endfacet
  facet normal -0.959493 0.281732 0
    outer loop
      vertex -6 28 1.5
      vertex -6.51593 26.2429 -1.5
      vertex -6.51593 26.2429 1.5
    endloop
  endfacet
  facet normal -0.142314 0.989822 0
    outer loop
      vertex -7.8999 25.0437 -1.5
      vertex -9.71252 24.7831 1.5
      vertex -7.8999 25.0437 1.5
    endloop
  endfacet
  facet normal -0.142314 0.989822 0
    outer loop
      vertex -9.71252 24.7831 1.5
      vertex -7.8999 25.0437 -1.5
      vertex -9.71252 24.7831 -1.5
    endloop
  endfacet
  facet normal 0.415415 0.909632 -0
    outer loop
      vertex -9.71252 24.7831 -1.5
      vertex -11.3783 25.5438 1.5
      vertex -9.71252 24.7831 1.5
    endloop
  endfacet
  facet normal 0.415415 0.909632 0
    outer loop
      vertex -11.3783 25.5438 1.5
      vertex -9.71252 24.7831 -1.5
      vertex -11.3783 25.5438 -1.5
    endloop
  endfacet
  facet normal -0.959493 -0.281733 0
    outer loop
      vertex 12.5 -28 -1.5
      vertex 11.9841 -26.2429 1.5
      vertex 11.9841 -26.2429 -1.5
    endloop
  endfacet
  facet normal -0.959493 -0.281733 0
    outer loop
      vertex 11.9841 -26.2429 1.5
      vertex 12.5 -28 -1.5
      vertex 12.5 -28 1.5
    endloop
  endfacet
  facet normal 1 -0 0
    outer loop
      vertex 6.13165 -28.9156 1.5
      vertex 6.13165 -27.0844 -1.5
      vertex 6.13165 -27.0844 1.5
    endloop
  endfacet
  facet normal 1 0 0
    outer loop
      vertex 6.13165 -27.0844 -1.5
      vertex 6.13165 -28.9156 1.5
      vertex 6.13165 -28.9156 -1.5
    endloop
  endfacet
  facet normal -0.142314 -0.989822 0
    outer loop
      vertex 8.78748 -24.7831 -1.5
      vertex 10.6001 -25.0437 1.5
      vertex 8.78748 -24.7831 1.5
    endloop
  endfacet
  facet normal -0.142314 -0.989822 -0
    outer loop
      vertex 10.6001 -25.0437 1.5
      vertex 8.78748 -24.7831 -1.5
      vertex 10.6001 -25.0437 -1.5
    endloop
  endfacet
  facet normal -0.654861 -0.75575 0
    outer loop
      vertex 10.6001 -25.0437 -1.5
      vertex 11.9841 -26.2429 1.5
      vertex 10.6001 -25.0437 1.5
    endloop
  endfacet
  facet normal -0.654861 -0.75575 -0
    outer loop
      vertex 11.9841 -26.2429 1.5
      vertex 10.6001 -25.0437 -1.5
      vertex 11.9841 -26.2429 -1.5
    endloop
  endfacet
  facet normal -0.654861 0.75575 0
    outer loop
      vertex 11.9841 -29.7571 -1.5
      vertex 10.6001 -30.9563 1.5
      vertex 11.9841 -29.7571 1.5
    endloop
  endfacet
  facet normal -0.654861 0.75575 0
    outer loop
      vertex 10.6001 -30.9563 1.5
      vertex 11.9841 -29.7571 -1.5
      vertex 10.6001 -30.9563 -1.5
    endloop
  endfacet
  facet normal 0.841254 -0.540641 0
    outer loop
      vertex 6.13165 -27.0844 1.5
      vertex 7.1217 -25.5438 -1.5
      vertex 7.1217 -25.5438 1.5
    endloop
  endfacet
  facet normal 0.841254 -0.540641 0
    outer loop
      vertex 7.1217 -25.5438 -1.5
      vertex 6.13165 -27.0844 1.5
      vertex 6.13165 -27.0844 -1.5
    endloop
  endfacet
  facet normal 0.415415 -0.909632 0
    outer loop
      vertex 7.1217 -25.5438 -1.5
      vertex 8.78748 -24.7831 1.5
      vertex 7.1217 -25.5438 1.5
    endloop
  endfacet
  facet normal 0.415415 -0.909632 0
    outer loop
      vertex 8.78748 -24.7831 1.5
      vertex 7.1217 -25.5438 -1.5
      vertex 8.78748 -24.7831 -1.5
    endloop
  endfacet
  facet normal -0.959493 0.281733 0
    outer loop
      vertex 11.9841 -29.7571 -1.5
      vertex 12.5 -28 1.5
      vertex 12.5 -28 -1.5
    endloop
  endfacet
  facet normal -0.959493 0.281733 0
    outer loop
      vertex 12.5 -28 1.5
      vertex 11.9841 -29.7571 -1.5
      vertex 11.9841 -29.7571 1.5
    endloop
  endfacet
  facet normal -0.142315 0.989821 0
    outer loop
      vertex 10.6001 -30.9563 -1.5
      vertex 8.78748 -31.2169 1.5
      vertex 10.6001 -30.9563 1.5
    endloop
  endfacet
  facet normal -0.142315 0.989821 0
    outer loop
      vertex 8.78748 -31.2169 1.5
      vertex 10.6001 -30.9563 -1.5
      vertex 8.78748 -31.2169 -1.5
    endloop
  endfacet
  facet normal 0.841253 0.540641 0
    outer loop
      vertex 7.1217 -30.4562 1.5
      vertex 6.13165 -28.9156 -1.5
      vertex 6.13165 -28.9156 1.5
    endloop
  endfacet
  facet normal 0.841253 0.540641 0
    outer loop
      vertex 6.13165 -28.9156 -1.5
      vertex 7.1217 -30.4562 1.5
      vertex 7.1217 -30.4562 -1.5
    endloop
  endfacet
  facet normal 0.415415 0.909632 -0
    outer loop
      vertex 8.78748 -31.2169 -1.5
      vertex 7.1217 -30.4562 1.5
      vertex 8.78748 -31.2169 1.5
    endloop
  endfacet
  facet normal 0.415415 0.909632 0
    outer loop
      vertex 7.1217 -30.4562 1.5
      vertex 8.78748 -31.2169 -1.5
      vertex 7.1217 -30.4562 -1.5
    endloop
  endfacet
  facet normal -0.959493 -0.281732 0
    outer loop
      vertex -6 -28 -1.5
      vertex -6.51593 -26.2429 1.5
      vertex -6.51593 -26.2429 -1.5
    endloop
  endfacet
  facet normal -0.959493 -0.281732 0
    outer loop
      vertex -6.51593 -26.2429 1.5
      vertex -6 -28 -1.5
      vertex -6 -28 1.5
    endloop
  endfacet
  facet normal 1 -0 0
    outer loop
      vertex -12.3684 -28.9156 1.5
      vertex -12.3684 -27.0844 -1.5
      vertex -12.3684 -27.0844 1.5
    endloop
  endfacet
  facet normal 1 0 0
    outer loop
      vertex -12.3684 -27.0844 -1.5
      vertex -12.3684 -28.9156 1.5
      vertex -12.3684 -28.9156 -1.5
    endloop
  endfacet
  facet normal -0.142314 -0.989822 0
    outer loop
      vertex -9.71252 -24.7831 -1.5
      vertex -7.8999 -25.0437 1.5
      vertex -9.71252 -24.7831 1.5
    endloop
  endfacet
  facet normal -0.142314 -0.989822 -0
    outer loop
      vertex -7.8999 -25.0437 1.5
      vertex -9.71252 -24.7831 -1.5
      vertex -7.8999 -25.0437 -1.5
    endloop
  endfacet
  facet normal -0.654861 -0.75575 0
    outer loop
      vertex -7.8999 -25.0437 -1.5
      vertex -6.51593 -26.2429 1.5
      vertex -7.8999 -25.0437 1.5
    endloop
  endfacet
  facet normal -0.654861 -0.75575 -0
    outer loop
      vertex -6.51593 -26.2429 1.5
      vertex -7.8999 -25.0437 -1.5
      vertex -6.51593 -26.2429 -1.5
    endloop
  endfacet
  facet normal -0.654861 0.75575 0
    outer loop
      vertex -6.51593 -29.7571 -1.5
      vertex -7.8999 -30.9563 1.5
      vertex -6.51593 -29.7571 1.5
    endloop
  endfacet
  facet normal -0.654861 0.75575 0
    outer loop
      vertex -7.8999 -30.9563 1.5
      vertex -6.51593 -29.7571 -1.5
      vertex -7.8999 -30.9563 -1.5
    endloop
  endfacet
  facet normal 0.841254 -0.540641 0
    outer loop
      vertex -12.3684 -27.0844 1.5
      vertex -11.3783 -25.5438 -1.5
      vertex -11.3783 -25.5438 1.5
    endloop
  endfacet
  facet normal 0.841254 -0.540641 0
    outer loop
      vertex -11.3783 -25.5438 -1.5
      vertex -12.3684 -27.0844 1.5
      vertex -12.3684 -27.0844 -1.5
    endloop
  endfacet
  facet normal 0.415415 -0.909632 0
    outer loop
      vertex -11.3783 -25.5438 -1.5
      vertex -9.71252 -24.7831 1.5
      vertex -11.3783 -25.5438 1.5
    endloop
  endfacet
  facet normal 0.415415 -0.909632 0
    outer loop
      vertex -9.71252 -24.7831 1.5
      vertex -11.3783 -25.5438 -1.5
      vertex -9.71252 -24.7831 -1.5
    endloop
  endfacet
  facet normal -0.959493 0.281732 0
    outer loop
      vertex -6.51593 -29.7571 -1.5
      vertex -6 -28 1.5
      vertex -6 -28 -1.5
    endloop
  endfacet
  facet normal -0.959493 0.281732 0
    outer loop
      vertex -6 -28 1.5
      vertex -6.51593 -29.7571 -1.5
      vertex -6.51593 -29.7571 1.5
    endloop
  endfacet
  facet normal -0.142315 0.989821 0
    outer loop
      vertex -7.8999 -30.9563 -1.5
      vertex -9.71252 -31.2169 1.5
      vertex -7.8999 -30.9563 1.5
    endloop
  endfacet
  facet normal -0.142315 0.989821 0
    outer loop
      vertex -9.71252 -31.2169 1.5
      vertex -7.8999 -30.9563 -1.5
      vertex -9.71252 -31.2169 -1.5
    endloop
  endfacet
  facet normal 0.841253 0.540641 0
    outer loop
      vertex -11.3783 -30.4562 1.5
      vertex -12.3684 -28.9156 -1.5
      vertex -12.3684 -28.9156 1.5
    endloop
  endfacet
  facet normal 0.841253 0.540641 0
    outer loop
      vertex -12.3684 -28.9156 -1.5
      vertex -11.3783 -30.4562 1.5
      vertex -11.3783 -30.4562 -1.5
    endloop
  endfacet
  facet normal 0.415415 0.909632 -0
    outer loop
      vertex -9.71252 -31.2169 -1.5
      vertex -11.3783 -30.4562 1.5
      vertex -9.71252 -31.2169 1.5
    endloop
  endfacet
  facet normal 0.415415 0.909632 0
    outer loop
      vertex -11.3783 -30.4562 1.5
      vertex -9.71252 -31.2169 -1.5
      vertex -11.3783 -30.4562 -1.5
    endloop
  endfacet
  facet normal 1 -0 0
    outer loop
      vertex -18.5 -6.5 1.5
      vertex -18.5 6.5 -1.5
      vertex -18.5 6.5 1.5
    endloop
  endfacet
  facet normal 1 0 0
    outer loop
      vertex -18.5 6.5 -1.5
      vertex -18.5 -6.5 1.5
      vertex -18.5 -6.5 -1.5
    endloop
  endfacet
  facet normal -1 0 0
    outer loop
      vertex 6.5 -6.5 -1.5
      vertex 6.5 6.5 1.5
      vertex 6.5 6.5 -1.5
    endloop
  endfacet
  facet normal -1 -0 0
    outer loop
      vertex 6.5 6.5 1.5
      vertex 6.5 -6.5 -1.5
      vertex 6.5 -6.5 1.5
    endloop
  endfacet
  facet normal 0 -1 0
    outer loop
      vertex -18.5 6.5 -1.5
      vertex 6.5 6.5 1.5
      vertex -18.5 6.5 1.5
    endloop
  endfacet
  facet normal 0 -1 -0
    outer loop
      vertex 6.5 6.5 1.5
      vertex -18.5 6.5 -1.5
      vertex 6.5 6.5 -1.5
    endloop
  endfacet
  facet normal 0 1 -0
    outer loop
      vertex 6.5 -6.5 -1.5
      vertex -18.5 -6.5 1.5
      vertex 6.5 -6.5 1.5
    endloop
  endfacet
  facet normal 0 1 0
    outer loop
      vertex -18.5 -6.5 1.5
      vertex 6.5 -6.5 -1.5
      vertex -18.5 -6.5 -1.5
    endloop
  endfacet
  facet normal -0.809017 -0.587786 0
    outer loop
      vertex 9 0 -1.5
      vertex 8.30902 0.951056 1.5
      vertex 8.30902 0.951056 -1.5
    endloop
  endfacet
  facet normal -0.809017 -0.587786 0
    outer loop
      vertex 8.30902 0.951056 1.5
      vertex 9 0 -1.5
      vertex 9 0 1.5
    endloop
  endfacet
  facet normal 1 -0 0
    outer loop
      vertex 7.19098 -0.587785 1.5
      vertex 7.19098 0.587785 -1.5
      vertex 7.19098 0.587785 1.5
    endloop
  endfacet
  facet normal 1 0 0
    outer loop
      vertex 7.19098 0.587785 -1.5
      vertex 7.19098 -0.587785 1.5
      vertex 7.19098 -0.587785 -1.5
    endloop
  endfacet
  facet normal 0.309017 -0.951056 0
    outer loop
      vertex 7.19098 0.587785 -1.5
      vertex 8.30902 0.951056 1.5
      vertex 7.19098 0.587785 1.5
    endloop
  endfacet
  facet normal 0.309017 -0.951056 0
    outer loop
      vertex 8.30902 0.951056 1.5
      vertex 7.19098 0.587785 -1.5
      vertex 8.30902 0.951056 -1.5
    endloop
  endfacet
  facet normal -0.809017 0.587786 0
    outer loop
      vertex 8.30902 -0.951056 -1.5
      vertex 9 0 1.5
      vertex 9 0 -1.5
    endloop
  endfacet
  facet normal -0.809017 0.587786 0
    outer loop
      vertex 9 0 1.5
      vertex 8.30902 -0.951056 -1.5
      vertex 8.30902 -0.951056 1.5
    endloop
  endfacet
  facet normal 0.309017 0.951056 -0
    outer loop
      vertex 8.30902 -0.951056 -1.5
      vertex 7.19098 -0.587785 1.5
      vertex 8.30902 -0.951056 1.5
    endloop
  endfacet
  facet normal 0.309017 0.951056 0
    outer loop
      vertex 7.19098 -0.587785 1.5
      vertex 8.30902 -0.951056 -1.5
      vertex 7.19098 -0.587785 -1.5
    endloop
  endfacet
  facet normal -0.809017 -0.587785 0
    outer loop
      vertex -19 0 -1.5
      vertex -19.691 0.951056 1.5
      vertex -19.691 0.951056 -1.5
    endloop
  endfacet
  facet normal -0.809017 -0.587785 0
    outer loop
      vertex -19.691 0.951056 1.5
      vertex -19 0 -1.5
      vertex -19 0 1.5
    endloop
  endfacet
  facet normal 1 -0 0
    outer loop
      vertex -20.809 -0.587785 1.5
      vertex -20.809 0.587785 -1.5
      vertex -20.809 0.587785 1.5
    endloop
  endfacet
  facet normal 1 0 0
    outer loop
      vertex -20.809 0.587785 -1.5
      vertex -20.809 -0.587785 1.5
      vertex -20.809 -0.587785 -1.5
    endloop
  endfacet
  facet normal 0.309017 -0.951056 0
    outer loop
      vertex -20.809 0.587785 -1.5
      vertex -19.691 0.951056 1.5
      vertex -20.809 0.587785 1.5
    endloop
  endfacet
  facet normal 0.309017 -0.951056 0
    outer loop
      vertex -19.691 0.951056 1.5
      vertex -20.809 0.587785 -1.5
      vertex -19.691 0.951056 -1.5
    endloop
  endfacet
  facet normal 0.309017 0.951056 -0
    outer loop
      vertex -19.691 -0.951056 -1.5
      vertex -20.809 -0.587785 1.5
      vertex -19.691 -0.951056 1.5
    endloop
  endfacet
  facet normal 0.309017 0.951056 0
    outer loop
      vertex -20.809 -0.587785 1.5
      vertex -19.691 -0.951056 -1.5
      vertex -20.809 -0.587785 -1.5
    endloop
  endfacet
  facet normal -0.809017 0.587785 0
    outer loop
      vertex -19.691 -0.951056 -1.5
      vertex -19 0 1.5
      vertex -19 0 -1.5
    endloop
  endfacet
  facet normal -0.809017 0.587785 0
    outer loop
      vertex -19 0 1.5
      vertex -19.691 -0.951056 -1.5
      vertex -19.691 -0.951056 1.5
    endloop
  endfacet
  facet normal 0.743145 0.669131 0
    outer loop
      vertex 25 24.2548 1.5
      vertex 23.4196 26.0101 -1.5
      vertex 23.4196 26.0101 1.5
    endloop
  endfacet
  facet normal 0.743145 0.669131 0
    outer loop
      vertex 23.4196 26.0101 -1.5
      vertex 25 24.2548 1.5
      vertex 25 24.2548 -1.5
    endloop
  endfacet
  facet normal -0.406737 0.913545 0
    outer loop
      vertex -10.8156 33.287 -1.5
      vertex -17.5 30.3109 1.5
      vertex -10.8156 33.287 1.5
    endloop
  endfacet
  facet normal -0.406737 0.913545 0
    outer loop
      vertex -17.5 30.3109 1.5
      vertex -10.8156 33.287 -1.5
      vertex -17.5 30.3109 -1.5
    endloop
  endfacet
  facet normal 0.587785 0.809017 -0
    outer loop
      vertex 23.4196 26.0101 -1.5
      vertex 17.5 30.3109 1.5
      vertex 23.4196 26.0101 1.5
    endloop
  endfacet
  facet normal 0.587785 0.809017 0
    outer loop
      vertex 17.5 30.3109 1.5
      vertex 23.4196 26.0101 -1.5
      vertex 17.5 30.3109 -1.5
    endloop
  endfacet
  facet normal 0 1 -0
    outer loop
      vertex 3.6585 34.8083 -1.5
      vertex -3.6585 34.8083 1.5
      vertex 3.6585 34.8083 1.5
    endloop
  endfacet
  facet normal 0 1 0
    outer loop
      vertex -3.6585 34.8083 1.5
      vertex 3.6585 34.8083 -1.5
      vertex -3.6585 34.8083 -1.5
    endloop
  endfacet
  facet normal 0.406737 0.913545 -0
    outer loop
      vertex 17.5 30.3109 -1.5
      vertex 10.8156 33.287 1.5
      vertex 17.5 30.3109 1.5
    endloop
  endfacet
  facet normal 0.406737 0.913545 0
    outer loop
      vertex 10.8156 33.287 1.5
      vertex 17.5 30.3109 -1.5
      vertex 10.8156 33.287 -1.5
    endloop
  endfacet
  facet normal -0.587785 0.809017 0
    outer loop
      vertex -17.5 30.3109 -1.5
      vertex -23.4196 26.0101 1.5
      vertex -17.5 30.3109 1.5
    endloop
  endfacet
  facet normal -0.587785 0.809017 0
    outer loop
      vertex -23.4196 26.0101 1.5
      vertex -17.5 30.3109 -1.5
      vertex -23.4196 26.0101 -1.5
    endloop
  endfacet
  facet normal -0.207911 0.978148 0
    outer loop
      vertex -3.6585 34.8083 -1.5
      vertex -10.8156 33.287 1.5
      vertex -3.6585 34.8083 1.5
    endloop
  endfacet
  facet normal -0.207911 0.978148 0
    outer loop
      vertex -10.8156 33.287 1.5
      vertex -3.6585 34.8083 -1.5
      vertex -10.8156 33.287 -1.5
    endloop
  endfacet
  facet normal -0.743145 0.669131 0
    outer loop
      vertex -25 24.2548 -1.5
      vertex -23.4196 26.0101 1.5
      vertex -23.4196 26.0101 -1.5
    endloop
  endfacet
  facet normal -0.743145 0.669131 0
    outer loop
      vertex -23.4196 26.0101 1.5
      vertex -25 24.2548 -1.5
      vertex -25 24.2548 1.5
    endloop
  endfacet
  facet normal 0.587785 -0.809017 0
    outer loop
      vertex 17.5 -30.3109 -1.5
      vertex 23.4196 -26.0101 1.5
      vertex 17.5 -30.3109 1.5
    endloop
  endfacet
  facet normal 0.587785 -0.809017 0
    outer loop
      vertex 23.4196 -26.0101 1.5
      vertex 17.5 -30.3109 -1.5
      vertex 23.4196 -26.0101 -1.5
    endloop
  endfacet
  facet normal 0.207911 0.978148 -0
    outer loop
      vertex 10.8156 33.287 -1.5
      vertex 3.6585 34.8083 1.5
      vertex 10.8156 33.287 1.5
    endloop
  endfacet
  facet normal 0.207911 0.978148 0
    outer loop
      vertex 3.6585 34.8083 1.5
      vertex 10.8156 33.287 -1.5
      vertex 3.6585 34.8083 -1.5
    endloop
  endfacet
  facet normal 0 -1 0
    outer loop
      vertex -3.6585 -34.8083 -1.5
      vertex 3.6585 -34.8083 1.5
      vertex -3.6585 -34.8083 1.5
    endloop
  endfacet
  facet normal 0 -1 -0
    outer loop
      vertex 3.6585 -34.8083 1.5
      vertex -3.6585 -34.8083 -1.5
      vertex 3.6585 -34.8083 -1.5
    endloop
  endfacet
  facet normal 0.207911 -0.978148 0
    outer loop
      vertex 3.6585 -34.8083 -1.5
      vertex 10.8156 -33.287 1.5
      vertex 3.6585 -34.8083 1.5
    endloop
  endfacet
  facet normal 0.207911 -0.978148 0
    outer loop
      vertex 10.8156 -33.287 1.5
      vertex 3.6585 -34.8083 -1.5
      vertex 10.8156 -33.287 -1.5
    endloop
  endfacet
  facet normal 0.406737 -0.913545 0
    outer loop
      vertex 10.8156 -33.287 -1.5
      vertex 17.5 -30.3109 1.5
      vertex 10.8156 -33.287 1.5
    endloop
  endfacet
  facet normal 0.406737 -0.913545 0
    outer loop
      vertex 17.5 -30.3109 1.5
      vertex 10.8156 -33.287 -1.5
      vertex 17.5 -30.3109 -1.5
    endloop
  endfacet
  facet normal -0.743145 -0.669131 0
    outer loop
      vertex -23.4196 -26.0101 -1.5
      vertex -25 -24.2548 1.5
      vertex -25 -24.2548 -1.5
    endloop
  endfacet
  facet normal -0.743145 -0.669131 0
    outer loop
      vertex -25 -24.2548 1.5
      vertex -23.4196 -26.0101 -1.5
      vertex -23.4196 -26.0101 1.5
    endloop
  endfacet
  facet normal -0.207911 -0.978148 0
    outer loop
      vertex -10.8156 -33.287 -1.5
      vertex -3.6585 -34.8083 1.5
      vertex -10.8156 -33.287 1.5
    endloop
  endfacet
  facet normal -0.207911 -0.978148 -0
    outer loop
      vertex -3.6585 -34.8083 1.5
      vertex -10.8156 -33.287 -1.5
      vertex -3.6585 -34.8083 -1.5
    endloop
  endfacet
  facet normal 0.743145 -0.669131 0
    outer loop
      vertex 23.4196 -26.0101 1.5
      vertex 25 -24.2548 -1.5
      vertex 25 -24.2548 1.5
    endloop
  endfacet
  facet normal 0.743145 -0.669131 0
    outer loop
      vertex 25 -24.2548 -1.5
      vertex 23.4196 -26.0101 1.5
      vertex 23.4196 -26.0101 -1.5
    endloop
  endfacet
  facet normal -0.406737 -0.913545 0
    outer loop
      vertex -17.5 -30.3109 -1.5
      vertex -10.8156 -33.287 1.5
      vertex -17.5 -30.3109 1.5
    endloop
  endfacet
  facet normal -0.406737 -0.913545 -0
    outer loop
      vertex -10.8156 -33.287 1.5
      vertex -17.5 -30.3109 -1.5
      vertex -10.8156 -33.287 -1.5
    endloop
  endfacet
  facet normal -0.587785 -0.809017 0
    outer loop
      vertex -23.4196 -26.0101 -1.5
      vertex -17.5 -30.3109 1.5
      vertex -23.4196 -26.0101 1.5
    endloop
  endfacet
  facet normal -0.587785 -0.809017 -0
    outer loop
      vertex -17.5 -30.3109 1.5
      vertex -23.4196 -26.0101 -1.5
      vertex -17.5 -30.3109 -1.5
    endloop
  endfacet
endsolid OpenSCAD_Model
