solid OpenSCAD_Model
  facet normal -0.900969 -0.433884 0
    outer loop
      vertex 15 4 -0.5
      vertex 14.247 5.56366 2
      vertex 14.247 5.56366 -0.5
    endloop
  endfacet
  facet normal -0.900969 -0.433884 0
    outer loop
      vertex 14.247 5.56366 2
      vertex 15 4 -0.5
      vertex 15 4 2
    endloop
  endfacet
  facet normal 1 -0 0
    outer loop
      vertex 11.1981 3.13223 2
      vertex 11.1981 4.86777 -0.5
      vertex 11.1981 4.86777 2
    endloop
  endfacet
  facet normal 1 0 0
    outer loop
      vertex 11.1981 4.86777 -0.5
      vertex 11.1981 3.13223 2
      vertex 11.1981 3.13223 -0.5
    endloop
  endfacet
  facet normal -0.222521 -0.974928 0
    outer loop
      vertex 12.555 5.94986 -0.5
      vertex 14.247 5.56366 2
      vertex 12.555 5.94986 2
    endloop
  endfacet
  facet normal -0.222521 -0.974928 -0
    outer loop
      vertex 14.247 5.56366 2
      vertex 12.555 5.94986 -0.5
      vertex 14.247 5.56366 -0.5
    endloop
  endfacet
  facet normal 0.62349 -0.781831 0
    outer loop
      vertex 11.1981 4.86777 -0.5
      vertex 12.555 5.94986 2
      vertex 11.1981 4.86777 2
    endloop
  endfacet
  facet normal 0.62349 -0.781831 0
    outer loop
      vertex 12.555 5.94986 2
      vertex 11.1981 4.86777 -0.5
      vertex 12.555 5.94986 -0.5
    endloop
  endfacet
  facet normal -0.900969 0.433884 0
    outer loop
      vertex 14.247 2.43634 -0.5
      vertex 15 4 2
      vertex 15 4 -0.5
    endloop
  endfacet
  facet normal -0.900969 0.433884 0
    outer loop
      vertex 15 4 2
      vertex 14.247 2.43634 -0.5
      vertex 14.247 2.43634 2
    endloop
  endfacet
  facet normal -0.222521 0.974928 0
    outer loop
      vertex 14.247 2.43634 -0.5
      vertex 12.555 2.05014 2
      vertex 14.247 2.43634 2
    endloop
  endfacet
  facet normal -0.222521 0.974928 0
    outer loop
      vertex 12.555 2.05014 2
      vertex 14.247 2.43634 -0.5
      vertex 12.555 2.05014 -0.5
    endloop
  endfacet
  facet normal 0.62349 0.781831 -0
    outer loop
      vertex 12.555 2.05014 -0.5
      vertex 11.1981 3.13223 2
      vertex 12.555 2.05014 2
    endloop
  endfacet
  facet normal 0.62349 0.781831 0
    outer loop
      vertex 11.1981 3.13223 2
      vertex 12.555 2.05014 -0.5
      vertex 11.1981 3.13223 -0.5
    endloop
  endfacet
  facet normal 1 -0 0
    outer loop
      vertex 9 0 4
      vertex 9 8 2
      vertex 9 8 4
    endloop
  endfacet
  facet normal 1 0 0
    outer loop
      vertex 9 8 2
      vertex 9 0 4
      vertex 9 0 2
    endloop
  endfacet
  facet normal -1 0 0
    outer loop
      vertex 17 0 2
      vertex 17 8 4
      vertex 17 8 2
    endloop
  endfacet
  facet normal -1 -0 0
    outer loop
      vertex 17 8 4
      vertex 17 0 2
      vertex 17 0 4
    endloop
  endfacet
  facet normal 0 0 1
    outer loop
      vertex 17 8 2
      vertex 15 4 2
      vertex 17 0 2
    endloop
  endfacet
  facet normal 0 0 1
    outer loop
      vertex 17 8 2
      vertex 14.247 5.56366 2
      vertex 15 4 2
    endloop
  endfacet
  facet normal 0 0 1
    outer loop
      vertex 17 8 2
      vertex 12.555 5.94986 2
      vertex 14.247 5.56366 2
    endloop
  endfacet
  facet normal 0 0 1
    outer loop
      vertex 11.1981 4.86777 2
      vertex 9 8 2
      vertex 11.1981 3.13223 2
    endloop
  endfacet
  facet normal 0 0 1
    outer loop
      vertex 12.555 5.94986 2
      vertex 9 8 2
      vertex 11.1981 4.86777 2
    endloop
  endfacet
  facet normal -0 0 1
    outer loop
      vertex 9 8 2
      vertex 12.555 5.94986 2
      vertex 17 8 2
    endloop
  endfacet
  facet normal -0 0 1
    outer loop
      vertex 14.247 2.43634 2
      vertex 17 0 2
      vertex 15 4 2
    endloop
  endfacet
  facet normal -0 0 1
    outer loop
      vertex 12.555 2.05014 2
      vertex 17 0 2
      vertex 14.247 2.43634 2
    endloop
  endfacet
  facet normal 0 0 1
    outer loop
      vertex 12.555 2.05014 2
      vertex 9 0 2
      vertex 17 0 2
    endloop
  endfacet
  facet normal 0 0 1
    outer loop
      vertex 11.1981 3.13223 2
      vertex 9 0 2
      vertex 12.555 2.05014 2
    endloop
  endfacet
  facet normal 0 0 1
    outer loop
      vertex 9 0 2
      vertex 11.1981 3.13223 2
      vertex 9 8 2
    endloop
  endfacet
  facet normal 0 -1 -0
    outer loop
      vertex 9 0 2
      vertex 7.17508 0 -0.5
      vertex 17 0 2
    endloop
  endfacet
  facet normal 0 -1 0
    outer loop
      vertex 17 0 2
      vertex 19.0729 0 0.263355
      vertex 20.5729 0 1.35317
    endloop
  endfacet
  facet normal 0 -1 0
    outer loop
      vertex 18.8249 0 -0.5
      vertex 17 0 2
      vertex 7.17508 0 -0.5
    endloop
  endfacet
  facet normal 0 -1 0
    outer loop
      vertex 17 0 2
      vertex 18.8249 0 -0.5
      vertex 19.0729 0 0.263355
    endloop
  endfacet
  facet normal 0 -1 0
    outer loop
      vertex 5.42705 0 1.35317
      vertex 9 0 4
      vertex 0 0 4
    endloop
  endfacet
  facet normal 0 -1 -0
    outer loop
      vertex 9 0 4
      vertex 5.42705 0 1.35317
      vertex 9 0 2
    endloop
  endfacet
  facet normal 0 -1 0
    outer loop
      vertex 5.42705 0 1.35317
      vertex 0 0 4
      vertex 3.57295 0 1.35317
    endloop
  endfacet
  facet normal 0 -1 0
    outer loop
      vertex 0 0 4
      vertex 2.07295 0 0.263355
      vertex 3.57295 0 1.35317
    endloop
  endfacet
  facet normal 0 -1 0
    outer loop
      vertex 0 0 -0.5
      vertex 2.07295 0 0.263355
      vertex 0 0 4
    endloop
  endfacet
  facet normal 0 -1 0
    outer loop
      vertex 2.07295 0 0.263355
      vertex 0 0 -0.5
      vertex 1.82492 0 -0.5
    endloop
  endfacet
  facet normal 0 -1 0
    outer loop
      vertex 20.5729 0 1.35317
      vertex 17 0 4
      vertex 17 0 2
    endloop
  endfacet
  facet normal 0 -1 0
    outer loop
      vertex 6.92705 0 0.263355
      vertex 9 0 2
      vertex 5.42705 0 1.35317
    endloop
  endfacet
  facet normal 0 -1 0
    outer loop
      vertex 7.17508 0 -0.5
      vertex 9 0 2
      vertex 6.92705 0 0.263355
    endloop
  endfacet
  facet normal 0 -1 0
    outer loop
      vertex 17 0 4
      vertex 20.5729 0 1.35317
      vertex 26 0 4
    endloop
  endfacet
  facet normal 0 -1 0
    outer loop
      vertex 22.4271 0 1.35317
      vertex 26 0 4
      vertex 20.5729 0 1.35317
    endloop
  endfacet
  facet normal 0 -1 0
    outer loop
      vertex 23.9271 0 0.263355
      vertex 26 0 4
      vertex 22.4271 0 1.35317
    endloop
  endfacet
  facet normal 0 -1 0
    outer loop
      vertex 26 0 -0.5
      vertex 23.9271 0 0.263355
      vertex 24.1751 0 -0.5
    endloop
  endfacet
  facet normal 0 -1 0
    outer loop
      vertex 23.9271 0 0.263355
      vertex 26 0 -0.5
      vertex 26 0 4
    endloop
  endfacet
  facet normal 0 1 0
    outer loop
      vertex 17 8 2
      vertex 18.8249 8 -0.5
      vertex 9 8 2
    endloop
  endfacet
  facet normal 0 1 0
    outer loop
      vertex 9 8 2
      vertex 6.92705 8 0.263355
      vertex 5.42705 8 1.35317
    endloop
  endfacet
  facet normal 0 1 0
    outer loop
      vertex 7.17508 8 -0.5
      vertex 9 8 2
      vertex 18.8249 8 -0.5
    endloop
  endfacet
  facet normal 0 1 0
    outer loop
      vertex 9 8 2
      vertex 7.17508 8 -0.5
      vertex 6.92705 8 0.263355
    endloop
  endfacet
  facet normal 0 1 -0
    outer loop
      vertex 20.5729 8 1.35317
      vertex 17 8 4
      vertex 26 8 4
    endloop
  endfacet
  facet normal 0 1 0
    outer loop
      vertex 17 8 4
      vertex 20.5729 8 1.35317
      vertex 17 8 2
    endloop
  endfacet
  facet normal 0 1 0
    outer loop
      vertex 20.5729 8 1.35317
      vertex 26 8 4
      vertex 22.4271 8 1.35317
    endloop
  endfacet
  facet normal 0 1 0
    outer loop
      vertex 26 8 4
      vertex 23.9271 8 0.263355
      vertex 22.4271 8 1.35317
    endloop
  endfacet
  facet normal 0 1 -0
    outer loop
      vertex 26 8 -0.5
      vertex 23.9271 8 0.263355
      vertex 26 8 4
    endloop
  endfacet
  facet normal 0 1 0
    outer loop
      vertex 23.9271 8 0.263355
      vertex 26 8 -0.5
      vertex 24.1751 8 -0.5
    endloop
  endfacet
  facet normal 0 1 0
    outer loop
      vertex 5.42705 8 1.35317
      vertex 9 8 4
      vertex 9 8 2
    endloop
  endfacet
  facet normal 0 1 -0
    outer loop
      vertex 19.0729 8 0.263355
      vertex 17 8 2
      vertex 20.5729 8 1.35317
    endloop
  endfacet
  facet normal 0 1 -0
    outer loop
      vertex 18.8249 8 -0.5
      vertex 17 8 2
      vertex 19.0729 8 0.263355
    endloop
  endfacet
  facet normal 0 1 0
    outer loop
      vertex 9 8 4
      vertex 5.42705 8 1.35317
      vertex 0 8 4
    endloop
  endfacet
  facet normal 0 1 -0
    outer loop
      vertex 3.57295 8 1.35317
      vertex 0 8 4
      vertex 5.42705 8 1.35317
    endloop
  endfacet
  facet normal 0 1 -0
    outer loop
      vertex 2.07295 8 0.263355
      vertex 0 8 4
      vertex 3.57295 8 1.35317
    endloop
  endfacet
  facet normal 0 1 0
    outer loop
      vertex 0 8 -0.5
      vertex 2.07295 8 0.263355
      vertex 1.82492 8 -0.5
    endloop
  endfacet
  facet normal 0 1 0
    outer loop
      vertex 2.07295 8 0.263355
      vertex 0 8 -0.5
      vertex 0 8 4
    endloop
  endfacet
  facet normal -1 0 0
    outer loop
      vertex 0 0 -0.5
      vertex 0 8 4
      vertex 0 8 -0.5
    endloop
  endfacet
  facet normal -1 -0 0
    outer loop
      vertex 0 8 4
      vertex 0 0 -0.5
      vertex 0 0 4
    endloop
  endfacet
  facet normal -0 0 1
    outer loop
      vertex 0 8 4
      vertex 9 0 4
      vertex 9 8 4
    endloop
  endfacet
  facet normal 0 0 1
    outer loop
      vertex 9 0 4
      vertex 0 8 4
      vertex 0 0 4
    endloop
  endfacet
  facet normal 1 -0 0
    outer loop
      vertex 26 0 4
      vertex 26 8 -0.5
      vertex 26 8 4
    endloop
  endfacet
  facet normal 1 0 0
    outer loop
      vertex 26 8 -0.5
      vertex 26 0 4
      vertex 26 0 -0.5
    endloop
  endfacet
  facet normal -0 0 1
    outer loop
      vertex 17 8 4
      vertex 26 0 4
      vertex 26 8 4
    endloop
  endfacet
  facet normal 0 0 1
    outer loop
      vertex 26 0 4
      vertex 17 8 4
      vertex 17 0 4
    endloop
  endfacet
  facet normal -0.951056 0 -0.309018
    outer loop
      vertex 6.92705 0 0.263355
      vertex 7.17508 3.671 -0.5
      vertex 7.17508 0 -0.5
    endloop
  endfacet
  facet normal -0.951056 0 -0.309018
    outer loop
      vertex 7.17508 3.671 -0.5
      vertex 6.92705 0 0.263355
      vertex 6.92705 8 0.263355
    endloop
  endfacet
  facet normal -0.587785 0 -0.809017
    outer loop
      vertex 5.42705 0 1.35317
      vertex 6.92705 8 0.263355
      vertex 6.92705 0 0.263355
    endloop
  endfacet
  facet normal -0.587785 0 -0.809017
    outer loop
      vertex 6.92705 8 0.263355
      vertex 5.42705 0 1.35317
      vertex 5.42705 8 1.35317
    endloop
  endfacet
  facet normal -0.951056 -1.04759e-007 -0.309017
    outer loop
      vertex 7.17508 8 -0.5
      vertex 7.17508 3.671 -0.5
      vertex 6.92705 8 0.263355
    endloop
  endfacet
  facet normal 0 0 -1
    outer loop
      vertex 3.57295 0 1.35317
      vertex 5.42705 8 1.35317
      vertex 5.42705 0 1.35317
    endloop
  endfacet
  facet normal -0 0 -1
    outer loop
      vertex 5.42705 8 1.35317
      vertex 3.57295 0 1.35317
      vertex 3.57295 8 1.35317
    endloop
  endfacet
  facet normal 0.587785 0 -0.809017
    outer loop
      vertex 2.07295 0 0.263355
      vertex 3.57295 8 1.35317
      vertex 3.57295 0 1.35317
    endloop
  endfacet
  facet normal 0.587785 0 -0.809017
    outer loop
      vertex 3.57295 8 1.35317
      vertex 2.07295 0 0.263355
      vertex 2.07295 8 0.263355
    endloop
  endfacet
  facet normal 0.951057 0 -0.309017
    outer loop
      vertex 2.07295 0 0.263355
      vertex 1.82492 8 -0.5
      vertex 2.07295 8 0.263355
    endloop
  endfacet
  facet normal 0.951057 0 -0.309017
    outer loop
      vertex 1.82492 8 -0.5
      vertex 2.07295 0 0.263355
      vertex 1.82492 0 -0.5
    endloop
  endfacet
  facet normal -0.951057 0 -0.309015
    outer loop
      vertex 23.9271 0 0.263355
      vertex 24.1751 3.671 -0.5
      vertex 24.1751 0 -0.5
    endloop
  endfacet
  facet normal -0.951057 0 -0.309015
    outer loop
      vertex 24.1751 3.671 -0.5
      vertex 23.9271 0 0.263355
      vertex 23.9271 8 0.263355
    endloop
  endfacet
  facet normal -0.587785 0 -0.809017
    outer loop
      vertex 22.4271 0 1.35317
      vertex 23.9271 8 0.263355
      vertex 23.9271 0 0.263355
    endloop
  endfacet
  facet normal -0.587785 0 -0.809017
    outer loop
      vertex 23.9271 8 0.263355
      vertex 22.4271 0 1.35317
      vertex 22.4271 8 1.35317
    endloop
  endfacet
  facet normal -0.951057 -0 -0.309015
    outer loop
      vertex 24.1751 8 -0.5
      vertex 24.1751 3.671 -0.5
      vertex 23.9271 8 0.263355
    endloop
  endfacet
  facet normal 0 0 -1
    outer loop
      vertex 20.5729 0 1.35317
      vertex 22.4271 8 1.35317
      vertex 22.4271 0 1.35317
    endloop
  endfacet
  facet normal -0 0 -1
    outer loop
      vertex 22.4271 8 1.35317
      vertex 20.5729 0 1.35317
      vertex 20.5729 8 1.35317
    endloop
  endfacet
  facet normal 0.587785 0 -0.809017
    outer loop
      vertex 19.0729 0 0.263355
      vertex 20.5729 8 1.35317
      vertex 20.5729 0 1.35317
    endloop
  endfacet
  facet normal 0.587785 0 -0.809017
    outer loop
      vertex 20.5729 8 1.35317
      vertex 19.0729 0 0.263355
      vertex 19.0729 8 0.263355
    endloop
  endfacet
  facet normal 0.951056 0 -0.309018
    outer loop
      vertex 19.0729 0 0.263355
      vertex 18.8249 8 -0.5
      vertex 19.0729 8 0.263355
    endloop
  endfacet
  facet normal 0.951056 0 -0.309018
    outer loop
      vertex 18.8249 8 -0.5
      vertex 19.0729 0 0.263355
      vertex 18.8249 0 -0.5
    endloop
  endfacet
  facet normal 0 0 -1
    outer loop
      vertex 0 0 -0.5
      vertex 1.82492 8 -0.5
      vertex 1.82492 0 -0.5
    endloop
  endfacet
  facet normal -0 0 -1
    outer loop
      vertex 1.82492 8 -0.5
      vertex 0 0 -0.5
      vertex 0 8 -0.5
    endloop
  endfacet
  facet normal 0 0 -1
    outer loop
      vertex 24.1751 3.671 -0.5
      vertex 26 0 -0.5
      vertex 24.1751 0 -0.5
    endloop
  endfacet
  facet normal 0 0 -1
    outer loop
      vertex 26 0 -0.5
      vertex 24.1751 3.671 -0.5
      vertex 26 8 -0.5
    endloop
  endfacet
  facet normal -0 0 -1
    outer loop
      vertex 26 8 -0.5
      vertex 24.1751 3.671 -0.5
      vertex 24.1751 8 -0.5
    endloop
  endfacet
  facet normal 0 0 -1
    outer loop
      vertex 18.8249 0 -0.5
      vertex 15 4 -0.5
      vertex 18.8249 8 -0.5
    endloop
  endfacet
  facet normal 0 0 -1
    outer loop
      vertex 18.8249 0 -0.5
      vertex 14.247 2.43634 -0.5
      vertex 15 4 -0.5
    endloop
  endfacet
  facet normal 0 0 -1
    outer loop
      vertex 18.8249 0 -0.5
      vertex 12.555 2.05014 -0.5
      vertex 14.247 2.43634 -0.5
    endloop
  endfacet
  facet normal 0 0 -1
    outer loop
      vertex 7.17508 3.671 -0.5
      vertex 11.1981 3.13223 -0.5
      vertex 7.17508 0 -0.5
    endloop
  endfacet
  facet normal -0 0 -1
    outer loop
      vertex 12.555 2.05014 -0.5
      vertex 7.17508 0 -0.5
      vertex 11.1981 3.13223 -0.5
    endloop
  endfacet
  facet normal 0 0 -1
    outer loop
      vertex 7.17508 0 -0.5
      vertex 12.555 2.05014 -0.5
      vertex 18.8249 0 -0.5
    endloop
  endfacet
  facet normal 0 0 -1
    outer loop
      vertex 14.247 5.56366 -0.5
      vertex 18.8249 8 -0.5
      vertex 15 4 -0.5
    endloop
  endfacet
  facet normal 0 0 -1
    outer loop
      vertex 12.555 5.94986 -0.5
      vertex 18.8249 8 -0.5
      vertex 14.247 5.56366 -0.5
    endloop
  endfacet
  facet normal 0 0 -1
    outer loop
      vertex 11.1981 3.13223 -0.5
      vertex 7.17508 3.671 -0.5
      vertex 11.1981 4.86777 -0.5
    endloop
  endfacet
  facet normal 0 0 -1
    outer loop
      vertex 7.17508 8 -0.5
      vertex 11.1981 4.86777 -0.5
      vertex 7.17508 3.671 -0.5
    endloop
  endfacet
  facet normal 0 0 -1
    outer loop
      vertex 12.555 5.94986 -0.5
      vertex 7.17508 8 -0.5
      vertex 18.8249 8 -0.5
    endloop
  endfacet
  facet normal 0 0 -1
    outer loop
      vertex 11.1981 4.86777 -0.5
      vertex 7.17508 8 -0.5
      vertex 12.555 5.94986 -0.5
    endloop
  endfacet
  facet normal 1 -0 0
    outer loop
      vertex 7 17 9.5
      vertex 7 25 4.5
      vertex 7 25 9.5
    endloop
  endfacet
  facet normal 1 0 0
    outer loop
      vertex 7 25 4.5
      vertex 7 17 9.5
      vertex 7 17 4.5
    endloop
  endfacet
  facet normal -1 0 0
    outer loop
      vertex 49 17 4.5
      vertex 49 25 9.5
      vertex 49 25 4.5
    endloop
  endfacet
  facet normal -1 -0 0
    outer loop
      vertex 49 25 9.5
      vertex 49 17 4.5
      vertex 49 17 9.5
    endloop
  endfacet
  facet normal 0 1 -0
    outer loop
      vertex 34.0729 25 1.26336
      vertex 20.4271 25 2.35317
      vertex 35.5729 25 2.35317
    endloop
  endfacet
  facet normal 0 1 0
    outer loop
      vertex 34.0729 25 1.26336
      vertex 21.9271 25 1.26336
      vertex 20.4271 25 2.35317
    endloop
  endfacet
  facet normal 0 1 -0
    outer loop
      vertex 33.6625 25 0
      vertex 21.9271 25 1.26336
      vertex 34.0729 25 1.26336
    endloop
  endfacet
  facet normal 0 1 0
    outer loop
      vertex 21.9271 25 1.26336
      vertex 33.6625 25 0
      vertex 22.3375 25 0
    endloop
  endfacet
  facet normal 0 1 0
    outer loop
      vertex 56 25 9.5
      vertex 49 25 4.5
      vertex 49 25 9.5
    endloop
  endfacet
  facet normal 0 1 0
    outer loop
      vertex 35.5729 25 2.35317
      vertex 49 25 4.5
      vertex 37.4271 25 2.35317
    endloop
  endfacet
  facet normal 0 1 0
    outer loop
      vertex 49 25 4.5
      vertex 38.9271 25 1.26336
      vertex 37.4271 25 2.35317
    endloop
  endfacet
  facet normal 0 1 -0
    outer loop
      vertex 56 25 0
      vertex 49 25 4.5
      vertex 56 25 9.5
    endloop
  endfacet
  facet normal 0 1 0
    outer loop
      vertex 39.3375 25 0
      vertex 49 25 4.5
      vertex 56 25 0
    endloop
  endfacet
  facet normal 0 1 0
    outer loop
      vertex 49 25 4.5
      vertex 39.3375 25 0
      vertex 38.9271 25 1.26336
    endloop
  endfacet
  facet normal 0 1 -0
    outer loop
      vertex 7 25 4.5
      vertex 0 25 9.5
      vertex 7 25 9.5
    endloop
  endfacet
  facet normal 0 1 0
    outer loop
      vertex 49 25 4.5
      vertex 35.5729 25 2.35317
      vertex 7 25 4.5
    endloop
  endfacet
  facet normal 0 1 -0
    outer loop
      vertex 20.4271 25 2.35317
      vertex 7 25 4.5
      vertex 35.5729 25 2.35317
    endloop
  endfacet
  facet normal 0 1 -0
    outer loop
      vertex 18.5729 25 2.35317
      vertex 7 25 4.5
      vertex 20.4271 25 2.35317
    endloop
  endfacet
  facet normal 0 1 -0
    outer loop
      vertex 17.0729 25 1.26336
      vertex 7 25 4.5
      vertex 18.5729 25 2.35317
    endloop
  endfacet
  facet normal 0 1 -0
    outer loop
      vertex 16.6625 25 0
      vertex 7 25 4.5
      vertex 17.0729 25 1.26336
    endloop
  endfacet
  facet normal 0 1 0
    outer loop
      vertex 7 25 4.5
      vertex 0 25 0
      vertex 0 25 9.5
    endloop
  endfacet
  facet normal 0 1 0
    outer loop
      vertex 0 25 0
      vertex 7 25 4.5
      vertex 16.6625 25 0
    endloop
  endfacet
  facet normal 0 0 1
    outer loop
      vertex 49 25 4.5
      vertex 31.5 21 4.5
      vertex 49 17 4.5
    endloop
  endfacet
  facet normal 0 0 1
    outer loop
      vertex 49 25 4.5
      vertex 29.75 24.0311 4.5
      vertex 31.5 21 4.5
    endloop
  endfacet
  facet normal 0 0 1
    outer loop
      vertex 49 25 4.5
      vertex 26.25 24.0311 4.5
      vertex 29.75 24.0311 4.5
    endloop
  endfacet
  facet normal 0 0 1
    outer loop
      vertex 26.25 24.0311 4.5
      vertex 7 25 4.5
      vertex 24.5 21 4.5
    endloop
  endfacet
  facet normal -0 0 1
    outer loop
      vertex 7 25 4.5
      vertex 26.25 24.0311 4.5
      vertex 49 25 4.5
    endloop
  endfacet
  facet normal -0 0 1
    outer loop
      vertex 29.75 17.9689 4.5
      vertex 49 17 4.5
      vertex 31.5 21 4.5
    endloop
  endfacet
  facet normal -0 0 1
    outer loop
      vertex 26.25 17.9689 4.5
      vertex 49 17 4.5
      vertex 29.75 17.9689 4.5
    endloop
  endfacet
  facet normal 0 0 1
    outer loop
      vertex 7 17 4.5
      vertex 24.5 21 4.5
      vertex 7 25 4.5
    endloop
  endfacet
  facet normal 0 0 1
    outer loop
      vertex 26.25 17.9689 4.5
      vertex 7 17 4.5
      vertex 49 17 4.5
    endloop
  endfacet
  facet normal 0 0 1
    outer loop
      vertex 24.5 21 4.5
      vertex 7 17 4.5
      vertex 26.25 17.9689 4.5
    endloop
  endfacet
  facet normal -0.951057 -6.86154e-017 -0.309016
    outer loop
      vertex 22.3375 17 1.77636e-015
      vertex 21.9271 25 1.26336
      vertex 22.3375 25 0
    endloop
  endfacet
  facet normal -0.951057 -0 -0.309016
    outer loop
      vertex 21.9271 25 1.26336
      vertex 22.3375 17 1.77636e-015
      vertex 21.9271 17 1.26336
    endloop
  endfacet
  facet normal 0 0 -1
    outer loop
      vertex 18.5729 17 2.35317
      vertex 20.4271 25 2.35317
      vertex 20.4271 17 2.35317
    endloop
  endfacet
  facet normal -0 0 -1
    outer loop
      vertex 20.4271 25 2.35317
      vertex 18.5729 17 2.35317
      vertex 18.5729 25 2.35317
    endloop
  endfacet
  facet normal -0.587785 0 -0.809017
    outer loop
      vertex 20.4271 17 2.35317
      vertex 21.9271 25 1.26336
      vertex 21.9271 17 1.26336
    endloop
  endfacet
  facet normal -0.587785 0 -0.809017
    outer loop
      vertex 21.9271 25 1.26336
      vertex 20.4271 17 2.35317
      vertex 20.4271 25 2.35317
    endloop
  endfacet
  facet normal 0.587785 0 -0.809017
    outer loop
      vertex 17.0729 17 1.26336
      vertex 18.5729 25 2.35317
      vertex 18.5729 17 2.35317
    endloop
  endfacet
  facet normal 0.587785 0 -0.809017
    outer loop
      vertex 18.5729 25 2.35317
      vertex 17.0729 17 1.26336
      vertex 17.0729 25 1.26336
    endloop
  endfacet
  facet normal 0.951057 0 -0.309016
    outer loop
      vertex 17.0729 17 1.26336
      vertex 16.6625 25 0
      vertex 17.0729 25 1.26336
    endloop
  endfacet
  facet normal 0.951057 -6.86154e-017 -0.309016
    outer loop
      vertex 16.6625 25 0
      vertex 17.0729 17 1.26336
      vertex 16.6625 17 1.77636e-015
    endloop
  endfacet
  facet normal -0.951057 -6.86154e-017 -0.309016
    outer loop
      vertex 39.3375 17 1.77636e-015
      vertex 38.9271 25 1.26336
      vertex 39.3375 25 0
    endloop
  endfacet
  facet normal -0.951057 -0 -0.309016
    outer loop
      vertex 38.9271 25 1.26336
      vertex 39.3375 17 1.77636e-015
      vertex 38.9271 17 1.26336
    endloop
  endfacet
  facet normal 0 0 -1
    outer loop
      vertex 35.5729 17 2.35317
      vertex 37.4271 25 2.35317
      vertex 37.4271 17 2.35317
    endloop
  endfacet
  facet normal -0 0 -1
    outer loop
      vertex 37.4271 25 2.35317
      vertex 35.5729 17 2.35317
      vertex 35.5729 25 2.35317
    endloop
  endfacet
  facet normal -0.587785 0 -0.809017
    outer loop
      vertex 37.4271 17 2.35317
      vertex 38.9271 25 1.26336
      vertex 38.9271 17 1.26336
    endloop
  endfacet
  facet normal -0.587785 0 -0.809017
    outer loop
      vertex 38.9271 25 1.26336
      vertex 37.4271 17 2.35317
      vertex 37.4271 25 2.35317
    endloop
  endfacet
  facet normal 0.587785 0 -0.809017
    outer loop
      vertex 34.0729 17 1.26336
      vertex 35.5729 25 2.35317
      vertex 35.5729 17 2.35317
    endloop
  endfacet
  facet normal 0.587785 0 -0.809017
    outer loop
      vertex 35.5729 25 2.35317
      vertex 34.0729 17 1.26336
      vertex 34.0729 25 1.26336
    endloop
  endfacet
  facet normal 0.951057 0 -0.309016
    outer loop
      vertex 34.0729 17 1.26336
      vertex 33.6625 25 0
      vertex 34.0729 25 1.26336
    endloop
  endfacet
  facet normal 0.951057 -6.86154e-017 -0.309016
    outer loop
      vertex 33.6625 25 0
      vertex 34.0729 17 1.26336
      vertex 33.6625 17 1.77636e-015
    endloop
  endfacet
  facet normal -0.900969 0.433884 0
    outer loop
      vertex 29.247 19.4363 1.23538e-015
      vertex 30 21 2.51
      vertex 30 21 8.88178e-016
    endloop
  endfacet
  facet normal -0.900969 0.433884 0
    outer loop
      vertex 30 21 2.51
      vertex 29.247 19.4363 1.23538e-015
      vertex 29.247 19.4363 2.51
    endloop
  endfacet
  facet normal -0.222521 0.974928 0
    outer loop
      vertex 29.247 19.4363 2.51
      vertex 27.555 19.0501 1.32113e-015
      vertex 27.555 19.0501 2.51
    endloop
  endfacet
  facet normal -0.222521 0.974928 0
    outer loop
      vertex 27.555 19.0501 1.32113e-015
      vertex 29.247 19.4363 2.51
      vertex 29.247 19.4363 1.23538e-015
    endloop
  endfacet
  facet normal 0.62349 -0.781831 0
    outer loop
      vertex 26.1981 21.8678 6.95495e-016
      vertex 27.555 22.9499 2.51
      vertex 26.1981 21.8678 2.51
    endloop
  endfacet
  facet normal 0.62349 -0.781831 0
    outer loop
      vertex 27.555 22.9499 2.51
      vertex 26.1981 21.8678 6.95495e-016
      vertex 27.555 22.9499 4.55223e-016
    endloop
  endfacet
  facet normal 4.53931e-024 -2.22045e-016 -1
    outer loop
      vertex 16.6625 17 1.77636e-015
      vertex 5 21.5 7.77156e-016
      vertex 16.6625 25 0
    endloop
  endfacet
  facet normal -1.43439e-022 -2.22045e-016 -1
    outer loop
      vertex 16.6625 17 1.77636e-015
      vertex 4.84228 21.2829 8.2536e-016
      vertex 5 21.5 7.77156e-016
    endloop
  endfacet
  facet normal 9.00912e-024 -2.22045e-016 -1
    outer loop
      vertex 16.6625 17 1.77636e-015
      vertex 3.96352 20.0734 1.09392e-015
      vertex 4.84228 21.2829 8.2536e-016
    endloop
  endfacet
  facet normal 0 -2.22045e-016 -1
    outer loop
      vertex 0 25 0
      vertex 2.28647 20.6183 9.72928e-016
      vertex 0 17 1.77636e-015
    endloop
  endfacet
  facet normal 0 -2.22045e-016 -1
    outer loop
      vertex 3.96352 20.0734 1.09392e-015
      vertex 0 17 1.77636e-015
      vertex 2.28647 20.6183 9.72928e-016
    endloop
  endfacet
  facet normal 0 -2.22045e-016 -1
    outer loop
      vertex 0 17 1.77636e-015
      vertex 3.96352 20.0734 1.09392e-015
      vertex 16.6625 17 1.77636e-015
    endloop
  endfacet
  facet normal 2.52953e-023 -2.22045e-016 -1
    outer loop
      vertex 4.12125 22.7095 5.08594e-016
      vertex 16.6625 25 0
      vertex 5 21.5 7.77156e-016
    endloop
  endfacet
  facet normal -2.64063e-022 -2.22043e-016 -1
    outer loop
      vertex 3.96352 22.9266 4.60391e-016
      vertex 16.6625 25 0
      vertex 4.12125 22.7095 5.08594e-016
    endloop
  endfacet
  facet normal 0 -2.22045e-016 -1
    outer loop
      vertex 3.96352 22.9266 4.60391e-016
      vertex 0 25 0
      vertex 16.6625 25 0
    endloop
  endfacet
  facet normal 2.04699e-023 -2.22045e-016 -1
    outer loop
      vertex 2.28647 22.3817 5.81384e-016
      vertex 0 25 0
      vertex 3.96352 22.9266 4.60391e-016
    endloop
  endfacet
  facet normal 2.3013e-022 -2.22044e-016 -1
    outer loop
      vertex 2.28647 20.6183 9.72928e-016
      vertex 0 25 0
      vertex 2.28647 22.3817 5.81384e-016
    endloop
  endfacet
  facet normal 2.64698e-023 -2.22045e-016 -1
    outer loop
      vertex 56 17 1.77636e-015
      vertex 54 21.5 7.77156e-016
      vertex 56 25 0
    endloop
  endfacet
  facet normal -4.06456e-022 -2.22045e-016 -1
    outer loop
      vertex 56 17 1.77636e-015
      vertex 53.8423 21.2829 8.2536e-016
      vertex 54 21.5 7.77156e-016
    endloop
  endfacet
  facet normal 2.55289e-023 -2.22045e-016 -1
    outer loop
      vertex 56 17 1.77636e-015
      vertex 52.9635 20.0734 1.09392e-015
      vertex 53.8423 21.2829 8.2536e-016
    endloop
  endfacet
  facet normal 0 -2.22045e-016 -1
    outer loop
      vertex 56 17 1.77636e-015
      vertex 51.2865 20.6183 9.72928e-016
      vertex 52.9635 20.0734 1.09392e-015
    endloop
  endfacet
  facet normal 0 -2.22045e-016 -1
    outer loop
      vertex 39.3375 25 0
      vertex 51.2865 20.6183 9.72928e-016
      vertex 39.3375 17 1.77636e-015
    endloop
  endfacet
  facet normal 0 -2.22045e-016 -1
    outer loop
      vertex 39.3375 17 1.77636e-015
      vertex 51.2865 20.6183 9.72928e-016
      vertex 56 17 1.77636e-015
    endloop
  endfacet
  facet normal 7.90969e-023 -2.22045e-016 -1
    outer loop
      vertex 53.1213 22.7095 5.08594e-016
      vertex 56 25 0
      vertex 54 21.5 7.77156e-016
    endloop
  endfacet
  facet normal -8.25706e-022 -2.22043e-016 -1
    outer loop
      vertex 52.9635 22.9266 4.60391e-016
      vertex 56 25 0
      vertex 53.1213 22.7095 5.08594e-016
    endloop
  endfacet
  facet normal 6.33092e-023 -2.22045e-016 -1
    outer loop
      vertex 51.2865 22.3817 5.81384e-016
      vertex 56 25 0
      vertex 52.9635 22.9266 4.60391e-016
    endloop
  endfacet
  facet normal 4.40363e-023 -2.22044e-016 -1
    outer loop
      vertex 51.2865 20.6183 9.72928e-016
      vertex 39.3375 25 0
      vertex 51.2865 22.3817 5.81384e-016
    endloop
  endfacet
  facet normal 0 -2.22045e-016 -1
    outer loop
      vertex 51.2865 22.3817 5.81384e-016
      vertex 39.3375 25 0
      vertex 56 25 0
    endloop
  endfacet
  facet normal 0 -2.22045e-016 -1
    outer loop
      vertex 33.6625 17 1.77636e-015
      vertex 30 21 8.88178e-016
      vertex 33.6625 25 0
    endloop
  endfacet
  facet normal 9.69263e-023 -2.22045e-016 -1
    outer loop
      vertex 33.6625 17 1.77636e-015
      vertex 29.247 19.4363 1.23538e-015
      vertex 30 21 8.88178e-016
    endloop
  endfacet
  facet normal -7.44969e-023 -2.22045e-016 -1
    outer loop
      vertex 33.6625 17 1.77636e-015
      vertex 27.555 19.0501 1.32113e-015
      vertex 29.247 19.4363 1.23538e-015
    endloop
  endfacet
  facet normal 9.89954e-023 -2.22045e-016 -1
    outer loop
      vertex 26.1981 20.1322 1.08086e-015
      vertex 22.3375 17 1.77636e-015
      vertex 26.1981 21.8678 6.95495e-016
    endloop
  endfacet
  facet normal 0 -2.22045e-016 -1
    outer loop
      vertex 27.555 19.0501 1.32113e-015
      vertex 22.3375 17 1.77636e-015
      vertex 26.1981 20.1322 1.08086e-015
    endloop
  endfacet
  facet normal 0 -2.22045e-016 -1
    outer loop
      vertex 22.3375 17 1.77636e-015
      vertex 27.555 19.0501 1.32113e-015
      vertex 33.6625 17 1.77636e-015
    endloop
  endfacet
  facet normal 0 -2.22045e-016 -1
    outer loop
      vertex 29.247 22.5637 5.40975e-016
      vertex 33.6625 25 0
      vertex 30 21 8.88178e-016
    endloop
  endfacet
  facet normal 8.85301e-023 -2.22045e-016 -1
    outer loop
      vertex 27.555 22.9499 4.55223e-016
      vertex 33.6625 25 0
      vertex 29.247 22.5637 5.40975e-016
    endloop
  endfacet
  facet normal 0 -2.22045e-016 -1
    outer loop
      vertex 27.555 22.9499 4.55223e-016
      vertex 22.3375 25 0
      vertex 33.6625 25 0
    endloop
  endfacet
  facet normal -2.71896e-023 -2.22045e-016 -1
    outer loop
      vertex 26.1981 21.8678 6.95495e-016
      vertex 22.3375 25 0
      vertex 27.555 22.9499 4.55223e-016
    endloop
  endfacet
  facet normal -5.48522e-023 -2.22045e-016 -1
    outer loop
      vertex 22.3375 25 0
      vertex 26.1981 21.8678 6.95495e-016
      vertex 22.3375 17 1.77636e-015
    endloop
  endfacet
  facet normal 0.62349 0.781831 -0
    outer loop
      vertex 27.555 19.0501 1.32113e-015
      vertex 26.1981 20.1322 2.51
      vertex 27.555 19.0501 2.51
    endloop
  endfacet
  facet normal 0.62349 0.781831 0
    outer loop
      vertex 26.1981 20.1322 2.51
      vertex 27.555 19.0501 1.32113e-015
      vertex 26.1981 20.1322 1.08086e-015
    endloop
  endfacet
  facet normal 1 -0 0
    outer loop
      vertex 26.1981 20.1322 2.51
      vertex 26.1981 21.8678 6.95495e-016
      vertex 26.1981 21.8678 2.51
    endloop
  endfacet
  facet normal 1 0 0
    outer loop
      vertex 26.1981 21.8678 6.95495e-016
      vertex 26.1981 20.1322 2.51
      vertex 26.1981 20.1322 1.08086e-015
    endloop
  endfacet
  facet normal -0.222521 -0.974928 0
    outer loop
      vertex 27.555 22.9499 2.51
      vertex 29.247 22.5637 5.40975e-016
      vertex 29.247 22.5637 2.51
    endloop
  endfacet
  facet normal -0.222521 -0.974928 0
    outer loop
      vertex 29.247 22.5637 5.40975e-016
      vertex 27.555 22.9499 2.51
      vertex 27.555 22.9499 4.55223e-016
    endloop
  endfacet
  facet normal -0.900969 -0.433884 0
    outer loop
      vertex 30 21 8.88178e-016
      vertex 29.247 22.5637 2.51
      vertex 29.247 22.5637 5.40975e-016
    endloop
  endfacet
  facet normal -0.900969 -0.433884 0
    outer loop
      vertex 29.247 22.5637 2.51
      vertex 30 21 8.88178e-016
      vertex 30 21 2.51
    endloop
  endfacet
  facet normal -0.866025 0.5 0
    outer loop
      vertex 29.75 17.9689 2.51
      vertex 31.5 21 4.5
      vertex 31.5 21 2.51
    endloop
  endfacet
  facet normal -0.866025 0.5 0
    outer loop
      vertex 31.5 21 4.5
      vertex 29.75 17.9689 2.51
      vertex 29.75 17.9689 4.5
    endloop
  endfacet
  facet normal 0 1 -0
    outer loop
      vertex 29.75 17.9689 2.51
      vertex 26.25 17.9689 4.5
      vertex 29.75 17.9689 4.5
    endloop
  endfacet
  facet normal 0 1 0
    outer loop
      vertex 26.25 17.9689 4.5
      vertex 29.75 17.9689 2.51
      vertex 26.25 17.9689 2.51
    endloop
  endfacet
  facet normal 0.866025 0.5 0
    outer loop
      vertex 26.25 17.9689 4.5
      vertex 24.5 21 2.51
      vertex 24.5 21 4.5
    endloop
  endfacet
  facet normal 0.866025 0.5 0
    outer loop
      vertex 24.5 21 2.51
      vertex 26.25 17.9689 4.5
      vertex 26.25 17.9689 2.51
    endloop
  endfacet
  facet normal 0.866025 -0.5 0
    outer loop
      vertex 24.5 21 4.5
      vertex 26.25 24.0311 2.51
      vertex 26.25 24.0311 4.5
    endloop
  endfacet
  facet normal 0.866025 -0.5 0
    outer loop
      vertex 26.25 24.0311 2.51
      vertex 24.5 21 4.5
      vertex 24.5 21 2.51
    endloop
  endfacet
  facet normal -0 0 1
    outer loop
      vertex 29.247 22.5637 2.51
      vertex 31.5 21 2.51
      vertex 29.75 24.0311 2.51
    endloop
  endfacet
  facet normal 0 0 1
    outer loop
      vertex 31.5 21 2.51
      vertex 29.247 22.5637 2.51
      vertex 30 21 2.51
    endloop
  endfacet
  facet normal 0 0 1
    outer loop
      vertex 29.75 24.0311 2.51
      vertex 27.555 22.9499 2.51
      vertex 29.247 22.5637 2.51
    endloop
  endfacet
  facet normal -0 0 1
    outer loop
      vertex 26.25 24.0311 2.51
      vertex 27.555 22.9499 2.51
      vertex 29.75 24.0311 2.51
    endloop
  endfacet
  facet normal 0 0 1
    outer loop
      vertex 26.25 24.0311 2.51
      vertex 26.1981 21.8678 2.51
      vertex 27.555 22.9499 2.51
    endloop
  endfacet
  facet normal 0 0 1
    outer loop
      vertex 26.1981 21.8678 2.51
      vertex 24.5 21 2.51
      vertex 26.1981 20.1322 2.51
    endloop
  endfacet
  facet normal 0 0 1
    outer loop
      vertex 24.5 21 2.51
      vertex 26.1981 21.8678 2.51
      vertex 26.25 24.0311 2.51
    endloop
  endfacet
  facet normal 0 0 1
    outer loop
      vertex 29.247 19.4363 2.51
      vertex 31.5 21 2.51
      vertex 30 21 2.51
    endloop
  endfacet
  facet normal 0 0 1
    outer loop
      vertex 31.5 21 2.51
      vertex 29.247 19.4363 2.51
      vertex 29.75 17.9689 2.51
    endloop
  endfacet
  facet normal -0 0 1
    outer loop
      vertex 27.555 19.0501 2.51
      vertex 29.75 17.9689 2.51
      vertex 29.247 19.4363 2.51
    endloop
  endfacet
  facet normal 0 0 1
    outer loop
      vertex 27.555 19.0501 2.51
      vertex 26.25 17.9689 2.51
      vertex 29.75 17.9689 2.51
    endloop
  endfacet
  facet normal 0 0 1
    outer loop
      vertex 26.1981 20.1322 2.51
      vertex 26.25 17.9689 2.51
      vertex 27.555 19.0501 2.51
    endloop
  endfacet
  facet normal 0 0 1
    outer loop
      vertex 26.25 17.9689 2.51
      vertex 26.1981 20.1322 2.51
      vertex 24.5 21 2.51
    endloop
  endfacet
  facet normal 0 -1 0
    outer loop
      vertex 26.25 24.0311 2.51
      vertex 29.75 24.0311 4.5
      vertex 26.25 24.0311 4.5
    endloop
  endfacet
  facet normal 0 -1 -0
    outer loop
      vertex 29.75 24.0311 4.5
      vertex 26.25 24.0311 2.51
      vertex 29.75 24.0311 2.51
    endloop
  endfacet
  facet normal -0.866025 -0.5 0
    outer loop
      vertex 31.5 21 2.51
      vertex 29.75 24.0311 4.5
      vertex 29.75 24.0311 2.51
    endloop
  endfacet
  facet normal -0.866025 -0.5 0
    outer loop
      vertex 29.75 24.0311 4.5
      vertex 31.5 21 2.51
      vertex 31.5 21 4.5
    endloop
  endfacet
  facet normal -1 0 0
    outer loop
      vertex 0 17 1.77636e-015
      vertex 0 25 9.5
      vertex 0 25 0
    endloop
  endfacet
  facet normal -1 -0 0
    outer loop
      vertex 0 25 9.5
      vertex 0 17 1.77636e-015
      vertex 0 17 9.5
    endloop
  endfacet
  facet normal 0 -1 0
    outer loop
      vertex 21.9271 17 1.26336
      vertex 35.5729 17 2.35317
      vertex 20.4271 17 2.35317
    endloop
  endfacet
  facet normal 0 -1 0
    outer loop
      vertex 21.9271 17 1.26336
      vertex 34.0729 17 1.26336
      vertex 35.5729 17 2.35317
    endloop
  endfacet
  facet normal 0 -1 0
    outer loop
      vertex 22.3375 17 1.77636e-015
      vertex 34.0729 17 1.26336
      vertex 21.9271 17 1.26336
    endloop
  endfacet
  facet normal 0 -1 0
    outer loop
      vertex 34.0729 17 1.26336
      vertex 22.3375 17 1.77636e-015
      vertex 33.6625 17 1.77636e-015
    endloop
  endfacet
  facet normal 0 -1 0
    outer loop
      vertex 0 17 9.5
      vertex 7 17 4.5
      vertex 7 17 9.5
    endloop
  endfacet
  facet normal 0 -1 0
    outer loop
      vertex 20.4271 17 2.35317
      vertex 7 17 4.5
      vertex 18.5729 17 2.35317
    endloop
  endfacet
  facet normal 0 -1 0
    outer loop
      vertex 7 17 4.5
      vertex 17.0729 17 1.26336
      vertex 18.5729 17 2.35317
    endloop
  endfacet
  facet normal 0 -1 0
    outer loop
      vertex 0 17 1.77636e-015
      vertex 7 17 4.5
      vertex 0 17 9.5
    endloop
  endfacet
  facet normal 0 -1 0
    outer loop
      vertex 16.6625 17 1.77636e-015
      vertex 7 17 4.5
      vertex 0 17 1.77636e-015
    endloop
  endfacet
  facet normal 0 -1 0
    outer loop
      vertex 7 17 4.5
      vertex 16.6625 17 1.77636e-015
      vertex 17.0729 17 1.26336
    endloop
  endfacet
  facet normal 0 -1 0
    outer loop
      vertex 49 17 4.5
      vertex 56 17 9.5
      vertex 49 17 9.5
    endloop
  endfacet
  facet normal 0 -1 0
    outer loop
      vertex 7 17 4.5
      vertex 20.4271 17 2.35317
      vertex 49 17 4.5
    endloop
  endfacet
  facet normal 0 -1 0
    outer loop
      vertex 35.5729 17 2.35317
      vertex 49 17 4.5
      vertex 20.4271 17 2.35317
    endloop
  endfacet
  facet normal 0 -1 0
    outer loop
      vertex 37.4271 17 2.35317
      vertex 49 17 4.5
      vertex 35.5729 17 2.35317
    endloop
  endfacet
  facet normal 0 -1 0
    outer loop
      vertex 38.9271 17 1.26336
      vertex 49 17 4.5
      vertex 37.4271 17 2.35317
    endloop
  endfacet
  facet normal 0 -1 0
    outer loop
      vertex 39.3375 17 1.77636e-015
      vertex 49 17 4.5
      vertex 38.9271 17 1.26336
    endloop
  endfacet
  facet normal 0 -1 0
    outer loop
      vertex 49 17 4.5
      vertex 56 17 1.77636e-015
      vertex 56 17 9.5
    endloop
  endfacet
  facet normal 0 -1 0
    outer loop
      vertex 56 17 1.77636e-015
      vertex 49 17 4.5
      vertex 39.3375 17 1.77636e-015
    endloop
  endfacet
  facet normal 1 -0 0
    outer loop
      vertex 56 17 9.5
      vertex 56 25 0
      vertex 56 25 9.5
    endloop
  endfacet
  facet normal 1 0 0
    outer loop
      vertex 56 25 0
      vertex 56 17 9.5
      vertex 56 17 1.77636e-015
    endloop
  endfacet
  facet normal 0 0 1
    outer loop
      vertex 56 25 9.5
      vertex 54 21.5 9.5
      vertex 56 17 9.5
    endloop
  endfacet
  facet normal 0 0 1
    outer loop
      vertex 56 25 9.5
      vertex 53.9775 21.531 9.5
      vertex 54 21.5 9.5
    endloop
  endfacet
  facet normal 0 0 1
    outer loop
      vertex 56 25 9.5
      vertex 52.9635 22.9266 9.5
      vertex 53.9775 21.531 9.5
    endloop
  endfacet
  facet normal -0 0 1
    outer loop
      vertex 49 25 9.5
      vertex 52.9635 22.9266 9.5
      vertex 56 25 9.5
    endloop
  endfacet
  facet normal 0 0 1
    outer loop
      vertex 51.2865 22.3817 9.5
      vertex 49 25 9.5
      vertex 51.2865 20.6183 9.5
    endloop
  endfacet
  facet normal 0 0 1
    outer loop
      vertex 52.9635 22.9266 9.5
      vertex 49 25 9.5
      vertex 51.2865 22.3817 9.5
    endloop
  endfacet
  facet normal -0 0 1
    outer loop
      vertex 52.9861 20.1044 9.5
      vertex 56 17 9.5
      vertex 54 21.5 9.5
    endloop
  endfacet
  facet normal -0 0 1
    outer loop
      vertex 52.9635 20.0734 9.5
      vertex 56 17 9.5
      vertex 52.9861 20.1044 9.5
    endloop
  endfacet
  facet normal 0 0 1
    outer loop
      vertex 49 17 9.5
      vertex 52.9635 20.0734 9.5
      vertex 51.2865 20.6183 9.5
    endloop
  endfacet
  facet normal 0 0 1
    outer loop
      vertex 52.9635 20.0734 9.5
      vertex 49 17 9.5
      vertex 56 17 9.5
    endloop
  endfacet
  facet normal 0 0 1
    outer loop
      vertex 49 17 9.5
      vertex 51.2865 20.6183 9.5
      vertex 49 25 9.5
    endloop
  endfacet
  facet normal 0 0 1
    outer loop
      vertex 7 25 9.5
      vertex 5 21.5 9.5
      vertex 7 17 9.5
    endloop
  endfacet
  facet normal 0 0 1
    outer loop
      vertex 7 25 9.5
      vertex 4.97747 21.531 9.5
      vertex 5 21.5 9.5
    endloop
  endfacet
  facet normal 0 0 1
    outer loop
      vertex 7 25 9.5
      vertex 3.96352 22.9266 9.5
      vertex 4.97747 21.531 9.5
    endloop
  endfacet
  facet normal -0 0 1
    outer loop
      vertex 0 25 9.5
      vertex 3.96352 22.9266 9.5
      vertex 7 25 9.5
    endloop
  endfacet
  facet normal 0 0 1
    outer loop
      vertex 2.28647 22.3817 9.5
      vertex 0 25 9.5
      vertex 2.28647 20.6183 9.5
    endloop
  endfacet
  facet normal 0 0 1
    outer loop
      vertex 3.96352 22.9266 9.5
      vertex 0 25 9.5
      vertex 2.28647 22.3817 9.5
    endloop
  endfacet
  facet normal -0 0 1
    outer loop
      vertex 3.98606 20.1044 9.5
      vertex 7 17 9.5
      vertex 5 21.5 9.5
    endloop
  endfacet
  facet normal -0 0 1
    outer loop
      vertex 3.96352 20.0734 9.5
      vertex 7 17 9.5
      vertex 3.98606 20.1044 9.5
    endloop
  endfacet
  facet normal 0 0 1
    outer loop
      vertex 0 17 9.5
      vertex 3.96352 20.0734 9.5
      vertex 2.28647 20.6183 9.5
    endloop
  endfacet
  facet normal 0 0 1
    outer loop
      vertex 3.96352 20.0734 9.5
      vertex 0 17 9.5
      vertex 7 17 9.5
    endloop
  endfacet
  facet normal 0 0 1
    outer loop
      vertex 0 17 9.5
      vertex 2.28647 20.6183 9.5
      vertex 0 25 9.5
    endloop
  endfacet
  facet normal -0.809017 0.587786 -5.57036e-008
    outer loop
      vertex 3.96352 20.0734 1.09392e-015
      vertex 3.98606 20.1044 9.5
      vertex 4.84228 21.2829 8.2536e-016
    endloop
  endfacet
  facet normal -0.809025 0.587774 0
    outer loop
      vertex 3.98606 20.1044 9.5
      vertex 3.96352 20.0734 1.09392e-015
      vertex 3.96352 20.0734 9.5
    endloop
  endfacet
  facet normal 0.309017 0.951057 -0
    outer loop
      vertex 3.96352 20.0734 1.09392e-015
      vertex 2.28647 20.6183 9.5
      vertex 3.96352 20.0734 9.5
    endloop
  endfacet
  facet normal 0.309017 0.951057 0
    outer loop
      vertex 2.28647 20.6183 9.5
      vertex 3.96352 20.0734 1.09392e-015
      vertex 2.28647 20.6183 9.72928e-016
    endloop
  endfacet
  facet normal -0.809017 0.587786 0
    outer loop
      vertex 4.84228 21.2829 8.2536e-016
      vertex 5 21.5 9.5
      vertex 5 21.5 7.77156e-016
    endloop
  endfacet
  facet normal -0.809017 0.587786 -4.68125e-009
    outer loop
      vertex 5 21.5 9.5
      vertex 4.84228 21.2829 8.2536e-016
      vertex 3.98606 20.1044 9.5
    endloop
  endfacet
  facet normal 1 -0 0
    outer loop
      vertex 2.28647 20.6183 9.5
      vertex 2.28647 22.3817 5.81384e-016
      vertex 2.28647 22.3817 9.5
    endloop
  endfacet
  facet normal 1 0 0
    outer loop
      vertex 2.28647 22.3817 5.81384e-016
      vertex 2.28647 20.6183 9.5
      vertex 2.28647 20.6183 9.72928e-016
    endloop
  endfacet
  facet normal 0.309017 -0.951057 0
    outer loop
      vertex 2.28647 22.3817 5.81384e-016
      vertex 3.96352 22.9266 9.5
      vertex 2.28647 22.3817 9.5
    endloop
  endfacet
  facet normal 0.309017 -0.951057 0
    outer loop
      vertex 3.96352 22.9266 9.5
      vertex 2.28647 22.3817 5.81384e-016
      vertex 3.96352 22.9266 4.60391e-016
    endloop
  endfacet
  facet normal -0.809017 -0.587786 5.57036e-008
    outer loop
      vertex 5 21.5 7.77156e-016
      vertex 4.97747 21.531 9.5
      vertex 4.12125 22.7095 5.08594e-016
    endloop
  endfacet
  facet normal -0.809025 -0.587774 0
    outer loop
      vertex 4.97747 21.531 9.5
      vertex 5 21.5 7.77156e-016
      vertex 5 21.5 9.5
    endloop
  endfacet
  facet normal -0.809019 -0.587782 0
    outer loop
      vertex 4.12125 22.7095 5.08594e-016
      vertex 3.96352 22.9266 9.5
      vertex 3.96352 22.9266 4.60391e-016
    endloop
  endfacet
  facet normal -0.809017 -0.587785 1.04336e-007
    outer loop
      vertex 3.96352 22.9266 9.5
      vertex 4.12125 22.7095 5.08594e-016
      vertex 4.97747 21.531 9.5
    endloop
  endfacet
  facet normal -0.809017 0.587785 6.82008e-008
    outer loop
      vertex 52.9635 20.0734 1.09392e-015
      vertex 52.9861 20.1044 9.5
      vertex 53.8423 21.2829 8.2536e-016
    endloop
  endfacet
  facet normal -0.809007 0.587799 0
    outer loop
      vertex 52.9861 20.1044 9.5
      vertex 52.9635 20.0734 1.09392e-015
      vertex 52.9635 20.0734 9.5
    endloop
  endfacet
  facet normal 0.309017 0.951056 -0
    outer loop
      vertex 52.9635 20.0734 1.09392e-015
      vertex 51.2865 20.6183 9.5
      vertex 52.9635 20.0734 9.5
    endloop
  endfacet
  facet normal 0.309017 0.951056 0
    outer loop
      vertex 51.2865 20.6183 9.5
      vertex 52.9635 20.0734 1.09392e-015
      vertex 51.2865 20.6183 9.72928e-016
    endloop
  endfacet
  facet normal -0.809013 0.58779 0
    outer loop
      vertex 53.8423 21.2829 8.2536e-016
      vertex 54 21.5 9.5
      vertex 54 21.5 7.77156e-016
    endloop
  endfacet
  facet normal -0.809017 0.587786 1.64065e-007
    outer loop
      vertex 54 21.5 9.5
      vertex 53.8423 21.2829 8.2536e-016
      vertex 52.9861 20.1044 9.5
    endloop
  endfacet
  facet normal 1 -0 0
    outer loop
      vertex 51.2865 20.6183 9.5
      vertex 51.2865 22.3817 5.81384e-016
      vertex 51.2865 22.3817 9.5
    endloop
  endfacet
  facet normal 1 0 0
    outer loop
      vertex 51.2865 22.3817 5.81384e-016
      vertex 51.2865 20.6183 9.5
      vertex 51.2865 20.6183 9.72928e-016
    endloop
  endfacet
  facet normal 0.309017 -0.951056 0
    outer loop
      vertex 51.2865 22.3817 5.81384e-016
      vertex 52.9635 22.9266 9.5
      vertex 51.2865 22.3817 9.5
    endloop
  endfacet
  facet normal 0.309017 -0.951056 0
    outer loop
      vertex 52.9635 22.9266 9.5
      vertex 51.2865 22.3817 5.81384e-016
      vertex 52.9635 22.9266 4.60391e-016
    endloop
  endfacet
  facet normal -0.809017 -0.587785 -6.82008e-008
    outer loop
      vertex 54 21.5 7.77156e-016
      vertex 53.9775 21.531 9.5
      vertex 53.1213 22.7095 5.08594e-016
    endloop
  endfacet
  facet normal -0.809007 -0.587799 0
    outer loop
      vertex 53.9775 21.531 9.5
      vertex 54 21.5 7.77156e-016
      vertex 54 21.5 9.5
    endloop
  endfacet
  facet normal -0.809016 -0.587787 0
    outer loop
      vertex 53.1213 22.7095 5.08594e-016
      vertex 52.9635 22.9266 9.5
      vertex 52.9635 22.9266 4.60391e-016
    endloop
  endfacet
  facet normal -0.809017 -0.587785 -6.44103e-008
    outer loop
      vertex 52.9635 22.9266 9.5
      vertex 53.1213 22.7095 5.08594e-016
      vertex 53.9775 21.531 9.5
    endloop
  endfacet
endsolid OpenSCAD_Model
